#N canvas 56 23 1280 643 10;
#N canvas 25 22 1280 620 bassemu 0;
#X obj 249 7 r counter;
#X obj 261 338 hradio 20 1 0 32 empty empty empty 0 -8 0 10 -262144
-1 -1 13;
#X obj 259 399 tgl 20 1 ctrig1 empty empty 17 7 0 5 -191407 -1 -1 1
1;
#X obj 279 399 tgl 20 0 ctrig2 empty empty 17 7 0 10 -262144 -1 -1
0 1;
#X obj 299 399 tgl 20 0 ctrig3 empty empty 17 7 0 10 -262144 -1 -1
0 1;
#X obj 319 399 tgl 20 0 ctrig4 empty empty 17 7 0 10 -262144 -1 -1
0 1;
#X obj 339 399 tgl 20 0 ctrig5 empty empty 17 7 0 10 -262144 -1 -1
1 1;
#X obj 359 399 tgl 20 0 ctrig6 empty empty 17 7 0 10 -262144 -1 -1
0 1;
#X obj 379 399 tgl 20 0 ctrig7 empty empty 17 7 0 10 -262144 -1 -1
0 1;
#X obj 399 399 tgl 20 0 ctrig8 empty empty 17 7 0 10 -262144 -1 -1
0 1;
#X obj 419 399 tgl 20 0 ctrig9 empty empty 17 7 0 10 -162280 -1 -1
1 1;
#X obj 439 399 tgl 20 0 ctrig10 empty empty 17 7 0 10 -262144 -1 -1
0 1;
#X obj 459 399 tgl 20 0 ctrig11 empty empty 17 7 0 10 -262144 -1 -1
0 1;
#X obj 479 399 tgl 20 0 ctrig12 empty empty 17 7 0 10 -262144 -1 -1
0 1;
#X obj 499 399 tgl 20 0 ctrig13 empty empty 17 7 0 10 -262144 -1 -1
1 1;
#X obj 519 399 tgl 20 0 ctrig14 empty empty 17 7 0 10 -262144 -1 -1
0 1;
#X obj 539 399 tgl 20 0 ctrig15 empty empty 17 7 0 10 -262144 -1 -1
0 1;
#X obj 559 399 tgl 20 0 ctrig16 empty empty 17 7 0 10 -262144 -1 -1
0 1;
#X obj 929 136 vradio 15 1 0 5 empty empty empty 0 -6 0 8 -262144 -1
-1 0;
#X obj 132 147 vradio 20 1 0 4 empty empty empty 0 -6 0 8 -262144 -1
-1 1;
#X obj -17 248 s bass_ctl;
#X msg -17 228 vco \$1;
#X obj 835 138 tgl 20 0 empty empty empty 0 -6 0 8 -262144 -1 -1 0
1;
#X obj 1124 197 s bass_ctl;
#X msg 1124 162 hpf \$1;
#X msg 263 188 tune \$1;
#X msg 276 56 440;
#X text 164 147 Saw;
#X text 163 167 Square;
#X text 164 187 Tri;
#X text 163 208 Sine;
#X text 862 138 VCO-HPF;
#X text 965 134 Int.Only;
#X text 967 151 Ext.Only;
#X text 965 166 Int.+Ext.;
#X text 965 181 Ext.Only+HPF;
#X text 965 198 Int.+Ext.+HPF;
#X text 130 126 VCO WaveSelect:;
#X text 947 118 SoundSource:;
#X msg 682 514 reset;
#X msg -16 324 pitch \$1;
#X obj 111 258 hsl 120 18 0 128 0 0 empty empty empty -2 -6 0 8 -262144
-1 -1 5950 1;
#X obj -17 278 - 64;
#X obj -16 349 s bass_ctl;
#X obj -17 297 / 16;
#X msg 109 64 64;
#X text 138 258 Pitch Bend;
#X obj 624 534 bassemu~;
#X obj 839 19 loadbang;
#X msg 839 47 0.7;
#X obj 260 367 knob 17 17 0 127 0 0 bpitch1 empty empty 0 -8 0 4 -262144
-1 -1 567 1;
#X obj 280 367 knob 17 17 0 127 0 0 bpitch2 empty empty 0 -8 0 4 -262144
-1 -1 567 1;
#X obj 299 367 knob 17 17 0 127 0 0 bpitch3 empty empty 0 -8 0 4 -262144
-1 -1 567 1;
#X obj 318 367 knob 17 17 0 127 0 0 bpitch4 empty empty 0 -8 0 4 -262144
-1 -1 567 1;
#X obj 337 367 knob 17 17 0 127 0 0 bpitch5 empty empty 0 -8 0 4 -262144
-1 -1 567 1;
#X obj 357 367 knob 17 17 0 127 0 0 bpitch6 empty empty 0 -8 0 4 -262144
-1 -1 567 1;
#X obj 376 366 knob 17 17 0 127 0 0 bpitch7 empty empty 0 -8 0 4 -262144
-1 -1 567 1;
#X obj 398 366 knob 17 17 0 127 0 0 bpitch8 empty empty 0 -8 0 4 -262144
-1 -1 567 1;
#X obj 420 366 knob 17 17 0 127 0 0 bpitch9 empty empty 0 -8 0 4 -262144
-1 -1 567 1;
#X obj 439 366 knob 17 17 0 127 0 0 bpitch10 empty empty 0 -8 0 4 -262144
-1 -1 567 1;
#X obj 459 366 knob 17 17 0 127 0 0 bpitch11 empty empty 0 -8 0 4 -262144
-1 -1 567 1;
#X obj 478 366 knob 17 17 0 127 0 0 bpitch12 empty empty 0 -8 0 4 -262144
-1 -1 567 1;
#X obj 498 366 knob 17 17 0 127 0 0 bpitch13 empty empty 0 -8 0 4 -262144
-1 -1 567 1;
#X obj 518 366 knob 17 17 0 127 0 0 bpitch14 empty empty 0 -8 0 4 -262144
-1 -1 567 1;
#X obj 538 367 knob 17 17 0 127 0 0 bpitch15 empty empty 0 -8 0 4 -262144
-1 -1 567 1;
#X obj 558 367 knob 17 17 0 127 0 0 bpitch16 empty empty 0 -8 0 4 -262144
-1 -1 567 1;
#X obj 518 133 knob 50 50 -1 2 0 0 empty empty ENV.MOD 0 -8 1 10 -262144
-1 -1 2450 1;
#X obj 429 134 knob 50 50 -1 2 0 0 empty empty RESONANCE 0 -8 1 10
-262144 -1 -1 2450 1;
#X obj 600 132 knob 50 50 -1 1 0 0 empty empty DECAY 0 -8 1 10 -262144
-1 -1 2450 1;
#X obj 346 135 knob 50 50 -1 1 0 0 empty empty CUTTOFF 0 -8 1 10 -262144
-1 -1 2450 1;
#X obj 683 131 knob 50 50 0 1 0 0 empty empty RECWIDTH 0 -8 1 10 -262144
-1 -1 2450 1;
#X obj 762 132 knob 50 50 0 1 0 0 empty empty GLIDE 0 -8 1 10 -262144
-1 -1 0 1;
#X msg 756 211 glide \$1;
#X msg 346 187 cutoff \$1;
#X msg 425 193 reso \$1;
#X obj 474 212 s bass_ctl;
#X msg 514 187 envmod \$1;
#X msg 599 188 decay \$1;
#X msg 685 188 pw \$1;
#X obj 755 187 / 127;
#X obj 363 12 loadbang;
#X msg 683 55 0.5;
#X obj 537 467 r Ctrig;
#X obj 537 493 s bass_ctl;
#X obj 264 136 knob 50 50 0 880 0 0 empty empty TUNING 0 -8 1 10 -262144
-1 -1 2450 1;
#N canvas 525 66 1033 678 ------clock 0;
#X obj 111 560 s s1;
#X obj 149 559 s s2;
#X obj 186 560 s s3;
#X obj 220 561 s s4;
#X obj 254 561 s s5;
#X obj 289 563 s s6;
#X obj 324 561 s s7;
#X obj 359 562 s s8;
#X obj 396 563 s s9;
#X obj 431 563 s s10;
#X obj 469 563 s s11;
#X obj 508 564 s s12;
#X obj 548 563 s s13;
#X obj 588 563 s s14;
#X obj 627 563 s s15;
#X obj 668 563 s s16;
#X obj 108 441 s counter;
#X obj 107 270 expr 60000/$f1;
#X floatatom 106 312 5 0 0 0 - - -;
#X obj 106 365 metro 200;
#X obj 108 399 count 32;
#X obj 13 484 sel 0 1 2 3 4 5 6 7 8 9 10 11 12 13 14 15 16 17 18 19
20 21 22 23 24 25 26 27 28 29 30 31;
#X obj 110 590 s s17;
#X obj 151 590 s s18;
#X obj 188 590 s s19;
#X obj 228 590 s s20;
#X obj 268 589 s s21;
#X obj 311 590 s s22;
#X obj 354 589 s s23;
#X obj 398 590 s s24;
#X obj 441 591 s s25;
#X obj 482 591 s s26;
#X obj 521 591 s s27;
#X obj 566 592 s s28;
#X obj 606 591 s s29;
#X obj 647 591 s s30;
#X obj 686 591 s s31;
#X obj 731 592 s s32;
#X obj 100 100 cnv 15 120 130 empty empty empty 20 12 0 14 -233017
-66577 0;
#X obj 110 109 tgl 20 0 empty empty Start/Stop 22 7 1 10 -4034 -1 -1
8 8;
#X text 109 150 RESET;
#X obj 149 135 knob 50 50 60 600 0 0 empty empty BPM 10 -8 1 8 -262144
-1 -1 3250 1;
#X obj 214 276 s bang;
#X obj 149 15 loadbang;
#X msg 149 46 330;
#X obj 116 167 bng 15 250 50 0 empty empty empty 17 7 0 10 -262144
-1 -1;
#X obj 142 207 cnv 16 40 16 empty pddp_dsp_canvas dsp 7 8 0 14 -24198
-33289 0;
#X obj 123 206 tgl 18 0 THIS_IS_HERE_TO_GET_RID_OF_THE_OUTLET GLOBAL_PDDP_DSP_TOGGLE
empty 1 8 1 9 -24198 -33289 -33289 0 1;
#X msg 23 259 \; pd dsp \$1;
#X connect 17 0 18 0;
#X connect 18 0 19 1;
#X connect 19 0 20 0;
#X connect 20 0 16 0;
#X connect 20 0 21 0;
#X connect 21 0 0 0;
#X connect 21 1 1 0;
#X connect 21 2 2 0;
#X connect 21 3 3 0;
#X connect 21 4 4 0;
#X connect 21 5 5 0;
#X connect 21 6 6 0;
#X connect 21 7 7 0;
#X connect 21 8 8 0;
#X connect 21 9 9 0;
#X connect 21 10 10 0;
#X connect 21 11 11 0;
#X connect 21 12 12 0;
#X connect 21 13 13 0;
#X connect 21 14 14 0;
#X connect 21 15 15 0;
#X connect 21 16 22 0;
#X connect 21 17 23 0;
#X connect 21 18 24 0;
#X connect 21 19 25 0;
#X connect 21 20 26 0;
#X connect 21 21 27 0;
#X connect 21 22 28 0;
#X connect 21 23 29 0;
#X connect 21 24 30 0;
#X connect 21 25 31 0;
#X connect 21 26 32 0;
#X connect 21 27 33 0;
#X connect 21 28 34 0;
#X connect 21 29 35 0;
#X connect 21 30 36 0;
#X connect 21 31 37 0;
#X connect 39 0 19 0;
#X connect 39 0 42 0;
#X connect 41 0 17 0;
#X connect 43 0 44 0;
#X connect 44 0 41 0;
#X connect 45 0 20 1;
#X connect 47 0 48 0;
#X coords 0 -1 1 1 120 130 1 100 100;
#X restore 110 291 pd ------clock;
#X obj 579 399 tgl 20 1 ctrig17 empty empty 17 7 0 5 -162280 -1 -1
1 1;
#X obj 599 399 tgl 20 0 ctrig18 empty empty 17 7 0 10 -262144 -1 -1
0 1;
#X obj 619 399 tgl 20 0 ctrig19 empty empty 17 7 0 10 -262144 -1 -1
0 1;
#X obj 639 399 tgl 20 0 ctrig20 empty empty 17 7 0 10 -262144 -1 -1
0 1;
#X obj 659 399 tgl 20 0 ctrig21 empty empty 17 7 0 10 -262144 -1 -1
0 1;
#X obj 679 399 tgl 20 0 ctrig22 empty empty 17 7 0 10 -262144 -1 -1
0 1;
#X obj 699 399 tgl 20 0 ctrig23 empty empty 17 7 0 10 -262144 -1 -1
0 1;
#X obj 719 399 tgl 20 0 ctrig24 empty empty 17 7 0 10 -262144 -1 -1
0 1;
#X obj 739 399 tgl 20 0 ctrig25 empty empty 17 7 0 10 -162280 -1 -1
0 1;
#X obj 759 399 tgl 20 0 ctrig26 empty empty 17 7 0 10 -262144 -1 -1
0 1;
#X obj 779 399 tgl 20 0 ctrig27 empty empty 17 7 0 10 -262144 -1 -1
0 1;
#X obj 799 399 tgl 20 0 ctrig28 empty empty 17 7 0 10 -262144 -1 -1
0 1;
#X obj 819 399 tgl 20 0 ctrig29 empty empty 17 7 0 10 -262144 -1 -1
0 1;
#X obj 839 399 tgl 20 0 ctrig30 empty empty 17 7 0 10 -262144 -1 -1
0 1;
#X obj 859 399 tgl 20 0 ctrig31 empty empty 17 7 0 10 -262144 -1 -1
0 1;
#X obj 879 399 tgl 20 0 ctrig32 empty empty 17 7 0 10 -262144 -1 -1
0 1;
#X obj 578 367 knob 17 17 0 127 0 0 bpitch17 empty empty 0 -8 0 4 -262144
-1 -1 567 1;
#X obj 598 367 knob 17 17 0 127 0 0 bpitch18 empty empty 0 -8 0 4 -262144
-1 -1 567 1;
#X obj 618 366 knob 17 17 0 127 0 0 bpitch19 empty empty 0 -8 0 4 -262144
-1 -1 567 1;
#X obj 638 367 knob 17 17 0 127 0 0 bpitch20 empty empty 0 -8 0 4 -262144
-1 -1 567 1;
#X obj 658 367 knob 17 17 0 127 0 0 bpitch21 empty empty 0 -8 0 4 -262144
-1 -1 567 1;
#X obj 677 367 knob 17 17 0 127 0 0 bpitch22 empty empty 0 -8 0 4 -262144
-1 -1 567 1;
#X obj 698 367 knob 17 17 0 127 0 0 bpitch23 empty empty 0 -8 0 4 -262144
-1 -1 567 1;
#X obj 718 367 knob 17 17 0 127 0 0 bpitch24 empty empty 0 -8 0 4 -262144
-1 -1 567 1;
#X obj 739 367 knob 17 17 0 127 0 0 bpitch25 empty empty 0 -8 0 4 -262144
-1 -1 567 1;
#X obj 759 367 knob 17 17 0 127 0 0 bpitch26 empty empty 0 -8 0 4 -262144
-1 -1 567 1;
#X obj 779 367 knob 17 17 0 127 0 0 bpitch27 empty empty 0 -8 0 4 -262144
-1 -1 567 1;
#X obj 799 367 knob 17 17 0 127 0 0 bpitch28 empty empty 0 -8 0 4 -262144
-1 -1 567 1;
#X obj 818 367 knob 17 17 0 127 0 0 bpitch29 empty empty 0 -8 0 4 -262144
-1 -1 567 1;
#X obj 837 367 knob 17 17 0 127 0 0 bpitch30 empty empty 0 -8 0 4 -262144
-1 -1 567 1;
#X obj 858 368 knob 17 17 0 127 0 0 bpitch31 empty empty 0 -8 0 4 -262144
-1 -1 567 1;
#X obj 880 368 knob 17 17 0 127 0 0 bpitch32 empty empty 0 -8 0 4 -262144
-1 -1 567 1;
#X obj 236 399 bng 20 250 50 0 \$0-clearpattern empty CLEAR -6 28 1
10 -262144 -1 -1;
#X msg 237 382 0;
#X obj 839 249 knob 60 60 0 1 0 0 empty empty VOLUME 8 -8 1 10 -262144
-1 -1 5130 1;
#X msg 62 348 24;
#X obj 825 518 *~;
#N canvas 170 87 844 582 reverb 0;
#X obj 364 273 freeverb~;
#X msg 124 186 roomsize \$1;
#X msg 481 188 width \$1;
#X msg 246 189 wet \$1;
#X msg 365 190 dry \$1;
#X msg 173 249 bypass \$1;
#X obj 101 101 cnv 15 540 80 empty empty empty 20 12 0 14 -233017 -66577
0;
#X obj 246 154 hsl 100 15 0 1 0 0 empty empty Wet -2 -8 0 10 -262144
-1 -1 0 1;
#X obj 365 152 hsl 100 15 0 1 0 0 empty empty Dry -2 -8 0 10 -262144
-1 -1 0 1;
#X obj 490 152 hsl 100 15 0 1 0 0 empty empty Width -2 -8 0 10 -262144
-1 -1 0 1;
#X text 122 110 REVERB;
#X obj 126 154 hsl 100 15 0 1 0 0 empty empty Roomsize -2 -8 0 10 -262144
-1 -1 0 1;
#X obj 172 109 tgl 20 0 empty empty ON/OFF 22 10 0 10 -262144 -1 -1
1 1;
#X obj 170 20 loadbang;
#X obj 487 220 catch~ bassL;
#X obj 509 248 catch~ bassR;
#X obj 364 328 throw~ bassrevL;
#X obj 466 328 throw~ bassrevR;
#X connect 0 0 16 0;
#X connect 0 1 17 0;
#X connect 1 0 0 0;
#X connect 2 0 0 0;
#X connect 3 0 0 0;
#X connect 4 0 0 0;
#X connect 5 0 0 0;
#X connect 7 0 3 0;
#X connect 8 0 4 0;
#X connect 9 0 2 0;
#X connect 11 0 1 0;
#X connect 12 0 5 0;
#X connect 13 0 12 0;
#X connect 14 0 0 0;
#X connect 15 0 0 1;
#X coords 0 -1 1 1 540 80 1 100 100;
#X restore 262 232 pd reverb;
#N canvas 483 29 713 563 markov 0;
#X obj -289 82 demultiplex f f f f f f f f f f f f;
#X floatatom -289 2 5 0 0 0 - - -;
#X obj -289 31 + 60;
#X obj -309 113 + 0;
#X obj -281 113 + 1;
#X obj -251 113 + 2;
#X obj -224 113 + 3;
#X obj -198 112 + 4;
#X obj -170 112 + 5;
#X obj -142 111 + 6;
#X obj -116 111 + 7;
#X obj -87 110 + 8;
#X obj -58 111 + 9;
#X obj -32 110 + 10;
#X obj 0 111 + 11;
#N canvas 105 22 1224 665 markovchain 0;
#X obj 73 78 f 1;
#X obj 112 40 r state;
#X floatatom 160 68 5 0 0 0 - - -;
#X obj 72 44 bng 15 250 50 0 empty empty empty 17 7 0 10 -262144 -1
-1;
#X obj 18 178 bng 15 250 50 0 empty empty empty 17 7 0 10 -262144 -1
-1;
#X obj 18 198 random 100;
#X obj 18 249 bng 15 250 50 0 empty empty empty 17 7 0 10 -262144 -1
-1;
#X obj 73 248 bng 15 250 50 0 empty empty empty 17 7 0 10 -262144 -1
-1;
#X obj 128 248 bng 15 250 50 0 empty empty empty 17 7 0 10 -262144
-1 -1;
#X obj 183 248 bng 15 250 50 0 empty empty empty 17 7 0 10 -262144
-1 -1;
#X obj 238 249 bng 15 250 50 0 empty empty empty 17 7 0 10 -262144
-1 -1;
#X obj 293 248 bng 15 250 50 0 empty empty empty 17 7 0 10 -262144
-1 -1;
#X obj 338 248 bng 15 250 50 0 empty empty empty 17 7 0 10 -262144
-1 -1;
#X msg 128 268 0;
#X obj 112 76 + 1;
#X msg 238 269 11;
#X msg 73 268 5;
#X msg 18 269 7;
#X msg 183 268 2;
#X msg 293 269 4;
#X msg 338 268 9;
#X obj 18 293 s state;
#X obj 438 180 bng 15 250 50 0 empty empty empty 17 7 0 10 -262144
-1 -1;
#X obj 438 200 random 100;
#X obj 379 248 bng 15 250 50 0 empty empty empty 17 7 0 10 -262144
-1 -1;
#X obj 438 247 bng 15 250 50 0 empty empty empty 17 7 0 10 -262144
-1 -1;
#X obj 493 247 bng 15 250 50 0 empty empty empty 17 7 0 10 -262144
-1 -1;
#X obj 548 247 bng 15 250 50 0 empty empty empty 17 7 0 10 -262144
-1 -1;
#X obj 603 248 bng 15 250 50 0 empty empty empty 17 7 0 10 -262144
-1 -1;
#X obj 658 247 bng 15 250 50 0 empty empty empty 17 7 0 10 -262144
-1 -1;
#X obj 703 247 bng 15 250 50 0 empty empty empty 17 7 0 10 -262144
-1 -1;
#X msg 379 268 7;
#X obj 383 292 s state;
#X msg 438 267 9;
#X msg 493 267 2;
#X msg 548 267 5;
#X msg 603 268 4;
#X msg 658 268 11;
#X msg 703 267 0;
#X obj 14 330 bng 15 250 50 0 empty empty empty 17 7 0 10 -262144 -1
-1;
#X obj 14 350 random 100;
#X obj 14 405 bng 15 250 50 0 empty empty empty 17 7 0 10 -262144 -1
-1;
#X obj 69 404 bng 15 250 50 0 empty empty empty 17 7 0 10 -262144 -1
-1;
#X obj 124 404 bng 15 250 50 0 empty empty empty 17 7 0 10 -262144
-1 -1;
#X obj 179 404 bng 15 250 50 0 empty empty empty 17 7 0 10 -262144
-1 -1;
#X obj 234 405 bng 15 250 50 0 empty empty empty 17 7 0 10 -262144
-1 -1;
#X obj 289 404 bng 15 250 50 0 empty empty empty 17 7 0 10 -262144
-1 -1;
#X obj 334 404 bng 15 250 50 0 empty empty empty 17 7 0 10 -262144
-1 -1;
#X obj 14 449 s state;
#X msg 334 424 0;
#X msg 14 425 9;
#X msg 69 424 11;
#X msg 124 424 4;
#X msg 179 424 7;
#X msg 234 425 5;
#X msg 289 425 2;
#X obj 441 324 bng 15 250 50 0 empty empty empty 17 7 0 10 -262144
-1 -1;
#X obj 441 344 random 100;
#X obj 386 396 bng 15 250 50 0 empty empty empty 17 7 0 10 -262144
-1 -1;
#X obj 441 395 bng 15 250 50 0 empty empty empty 17 7 0 10 -262144
-1 -1;
#X obj 496 395 bng 15 250 50 0 empty empty empty 17 7 0 10 -262144
-1 -1;
#X obj 551 395 bng 15 250 50 0 empty empty empty 17 7 0 10 -262144
-1 -1;
#X obj 606 396 bng 15 250 50 0 empty empty empty 17 7 0 10 -262144
-1 -1;
#X obj 664 395 bng 15 250 50 0 empty empty empty 17 7 0 10 -262144
-1 -1;
#X obj 709 395 bng 15 250 50 0 empty empty empty 17 7 0 10 -262144
-1 -1;
#X obj 386 441 s state;
#X msg 664 416 2;
#X msg 386 416 11;
#X msg 441 415 0;
#X msg 496 415 5;
#X msg 551 415 9;
#X msg 606 416 7;
#X msg 709 415 4;
#X obj 446 473 bng 15 250 50 0 empty empty empty 17 7 0 10 -262144
-1 -1;
#X obj 446 493 random 100;
#X text 557 516 comment;
#X obj 391 542 bng 15 250 50 0 empty empty empty 17 7 0 10 -262144
-1 -1;
#X obj 446 541 bng 15 250 50 0 empty empty empty 17 7 0 10 -262144
-1 -1;
#X obj 501 541 bng 15 250 50 0 empty empty empty 17 7 0 10 -262144
-1 -1;
#X obj 556 541 bng 15 250 50 0 empty empty empty 17 7 0 10 -262144
-1 -1;
#X obj 611 542 bng 15 250 50 0 empty empty empty 17 7 0 10 -262144
-1 -1;
#X obj 666 541 bng 15 250 50 0 empty empty empty 17 7 0 10 -262144
-1 -1;
#X obj 711 541 bng 15 250 50 0 empty empty empty 17 7 0 10 -262144
-1 -1;
#X obj 391 586 s state;
#X msg 391 562 2;
#X msg 446 561 4;
#X msg 501 561 9;
#X msg 556 561 0;
#X msg 611 562 11;
#X msg 666 562 7;
#X msg 711 561 5;
#X obj 206 92 outlet;
#X obj 73 471 bng 15 250 50 0 empty empty empty 17 7 0 10 -262144 -1
-1;
#X obj 73 491 random 100;
#X obj 18 536 bng 15 250 50 0 empty empty empty 17 7 0 10 -262144 -1
-1;
#X obj 73 535 bng 15 250 50 0 empty empty empty 17 7 0 10 -262144 -1
-1;
#X obj 128 535 bng 15 250 50 0 empty empty empty 17 7 0 10 -262144
-1 -1;
#X obj 183 535 bng 15 250 50 0 empty empty empty 17 7 0 10 -262144
-1 -1;
#X obj 238 536 bng 15 250 50 0 empty empty empty 17 7 0 10 -262144
-1 -1;
#X obj 293 535 bng 15 250 50 0 empty empty empty 17 7 0 10 -262144
-1 -1;
#X obj 338 535 bng 15 250 50 0 empty empty empty 17 7 0 10 -262144
-1 -1;
#X obj 18 580 s state;
#X msg 338 555 4;
#X msg 18 556 0;
#X msg 73 555 2;
#X msg 128 555 7;
#X msg 183 555 11;
#X msg 238 556 9;
#X msg 293 556 5;
#X obj 800 467 bng 15 250 50 0 empty empty empty 17 7 0 10 -262144
-1 -1;
#X obj 800 487 random 100;
#X obj 745 539 bng 15 250 50 0 empty empty empty 17 7 0 10 -262144
-1 -1;
#X obj 800 538 bng 15 250 50 0 empty empty empty 17 7 0 10 -262144
-1 -1;
#X obj 855 538 bng 15 250 50 0 empty empty empty 17 7 0 10 -262144
-1 -1;
#X obj 910 538 bng 15 250 50 0 empty empty empty 17 7 0 10 -262144
-1 -1;
#X obj 965 539 bng 15 250 50 0 empty empty empty 17 7 0 10 -262144
-1 -1;
#X obj 1020 538 bng 15 250 50 0 empty empty empty 17 7 0 10 -262144
-1 -1;
#X obj 1065 538 bng 15 250 50 0 empty empty empty 17 7 0 10 -262144
-1 -1;
#X obj 745 583 s state;
#X msg 745 559 4;
#X msg 855 558 11;
#X msg 910 558 2;
#X msg 1020 559 9;
#X msg 1065 558 7;
#X msg 800 558 0;
#X msg 965 559 5;
#X obj 72 142 sel 1 3 5 6 8 10 12;
#X obj 293 222 moses 95;
#X obj 238 222 moses 90;
#X obj 438 223 moses 60;
#X obj 496 222 moses 75;
#X obj 552 222 moses 85;
#X obj 607 222 moses 90;
#X obj 664 222 moses 95;
#X obj 14 379 moses 40;
#X obj 70 379 moses 60;
#X obj 125 379 moses 75;
#X obj 180 379 moses 85;
#X obj 235 379 moses 90;
#X obj 290 379 moses 95;
#X obj 606 366 moses 90;
#X obj 664 366 moses 95;
#X obj 18 513 moses 40;
#X obj 73 513 moses 60;
#X obj 391 515 moses 40;
#X obj 446 515 moses 60;
#X obj 501 515 moses 75;
#X obj 556 515 moses 85;
#X obj 611 515 moses 90;
#X obj 666 515 moses 95;
#X obj 745 509 moses 40;
#X obj 800 509 moses 60;
#X obj 855 509 moses 75;
#X obj 910 509 moses 85;
#X obj 965 509 moses 90;
#X obj 1020 509 moses 95;
#X obj 71 12 r counter;
#X obj 18 222 moses 35;
#X obj 73 222 moses 50;
#X obj 128 222 moses 70;
#X obj 183 222 moses 80;
#X obj 379 223 moses 25;
#X obj 72 110 spigot;
#X obj 145 110 inlet;
#X obj 386 366 moses 20;
#X obj 441 366 moses 35;
#X obj 496 366 moses 60;
#X obj 551 366 moses 70;
#X obj 183 513 moses 80;
#X obj 128 513 moses 70;
#X obj 293 513 moses 95;
#X obj 238 513 moses 85;
#X connect 0 0 162 0;
#X connect 1 0 2 0;
#X connect 1 0 14 0;
#X connect 2 0 91 0;
#X connect 3 0 0 0;
#X connect 4 0 5 0;
#X connect 5 0 157 0;
#X connect 6 0 17 0;
#X connect 7 0 16 0;
#X connect 8 0 13 0;
#X connect 9 0 18 0;
#X connect 10 0 15 0;
#X connect 11 0 19 0;
#X connect 12 0 20 0;
#X connect 13 0 21 0;
#X connect 14 0 0 1;
#X connect 15 0 21 0;
#X connect 16 0 21 0;
#X connect 17 0 21 0;
#X connect 18 0 21 0;
#X connect 19 0 21 0;
#X connect 20 0 21 0;
#X connect 22 0 23 0;
#X connect 23 0 161 0;
#X connect 24 0 31 0;
#X connect 25 0 33 0;
#X connect 26 0 34 0;
#X connect 27 0 35 0;
#X connect 28 0 36 0;
#X connect 29 0 37 0;
#X connect 30 0 38 0;
#X connect 31 0 32 0;
#X connect 33 0 32 0;
#X connect 34 0 32 0;
#X connect 35 0 32 0;
#X connect 36 0 32 0;
#X connect 37 0 32 0;
#X connect 38 0 32 0;
#X connect 39 0 40 0;
#X connect 40 0 134 0;
#X connect 41 0 50 0;
#X connect 42 0 51 0;
#X connect 43 0 52 0;
#X connect 44 0 53 0;
#X connect 45 0 54 0;
#X connect 46 0 55 0;
#X connect 47 0 49 0;
#X connect 49 0 48 0;
#X connect 50 0 48 0;
#X connect 51 0 48 0;
#X connect 52 0 48 0;
#X connect 53 0 48 0;
#X connect 54 0 48 0;
#X connect 55 0 48 0;
#X connect 56 0 57 0;
#X connect 57 0 164 0;
#X connect 58 0 67 0;
#X connect 59 0 68 0;
#X connect 60 0 69 0;
#X connect 61 0 70 0;
#X connect 62 0 71 0;
#X connect 63 0 66 0;
#X connect 64 0 72 0;
#X connect 66 0 65 0;
#X connect 67 0 65 0;
#X connect 68 0 65 0;
#X connect 69 0 65 0;
#X connect 70 0 65 0;
#X connect 71 0 65 0;
#X connect 72 0 65 0;
#X connect 73 0 74 0;
#X connect 74 0 144 0;
#X connect 76 0 84 0;
#X connect 77 0 85 0;
#X connect 78 0 86 0;
#X connect 79 0 87 0;
#X connect 80 0 88 0;
#X connect 81 0 89 0;
#X connect 82 0 90 0;
#X connect 84 0 83 0;
#X connect 85 0 83 0;
#X connect 86 0 83 0;
#X connect 87 0 83 0;
#X connect 88 0 83 0;
#X connect 89 0 83 0;
#X connect 90 0 83 0;
#X connect 92 0 93 0;
#X connect 93 0 142 0;
#X connect 94 0 103 0;
#X connect 95 0 104 0;
#X connect 96 0 105 0;
#X connect 97 0 106 0;
#X connect 98 0 107 0;
#X connect 99 0 108 0;
#X connect 100 0 102 0;
#X connect 102 0 101 0;
#X connect 103 0 101 0;
#X connect 104 0 101 0;
#X connect 105 0 101 0;
#X connect 106 0 101 0;
#X connect 107 0 101 0;
#X connect 108 0 101 0;
#X connect 109 0 110 0;
#X connect 110 0 150 0;
#X connect 111 0 119 0;
#X connect 112 0 124 0;
#X connect 113 0 120 0;
#X connect 114 0 121 0;
#X connect 115 0 125 0;
#X connect 116 0 122 0;
#X connect 117 0 123 0;
#X connect 119 0 118 0;
#X connect 120 0 118 0;
#X connect 121 0 118 0;
#X connect 122 0 118 0;
#X connect 123 0 118 0;
#X connect 124 0 118 0;
#X connect 125 0 118 0;
#X connect 126 0 4 0;
#X connect 126 1 22 0;
#X connect 126 2 39 0;
#X connect 126 3 56 0;
#X connect 126 4 92 0;
#X connect 126 5 73 0;
#X connect 126 6 109 0;
#X connect 127 0 11 0;
#X connect 127 1 12 0;
#X connect 128 0 10 0;
#X connect 128 1 127 0;
#X connect 129 0 25 0;
#X connect 129 1 130 0;
#X connect 130 0 26 0;
#X connect 130 1 131 0;
#X connect 131 0 27 0;
#X connect 131 1 132 0;
#X connect 132 0 28 0;
#X connect 132 1 133 0;
#X connect 133 0 29 0;
#X connect 133 1 30 0;
#X connect 134 0 41 0;
#X connect 134 1 135 0;
#X connect 135 0 42 0;
#X connect 135 1 136 0;
#X connect 136 0 43 0;
#X connect 136 1 137 0;
#X connect 137 0 44 0;
#X connect 137 1 138 0;
#X connect 138 0 45 0;
#X connect 138 1 139 0;
#X connect 139 0 46 0;
#X connect 139 1 47 0;
#X connect 140 0 62 0;
#X connect 140 1 141 0;
#X connect 141 0 63 0;
#X connect 141 1 64 0;
#X connect 142 0 94 0;
#X connect 142 1 143 0;
#X connect 143 0 95 0;
#X connect 143 1 169 0;
#X connect 144 0 76 0;
#X connect 144 1 145 0;
#X connect 145 0 77 0;
#X connect 145 1 146 0;
#X connect 146 0 78 0;
#X connect 146 1 147 0;
#X connect 147 0 79 0;
#X connect 147 1 148 0;
#X connect 148 0 80 0;
#X connect 148 1 149 0;
#X connect 149 0 81 0;
#X connect 149 1 82 0;
#X connect 150 0 111 0;
#X connect 150 1 151 0;
#X connect 151 0 112 0;
#X connect 151 1 152 0;
#X connect 152 0 113 0;
#X connect 152 1 153 0;
#X connect 153 0 114 0;
#X connect 153 1 154 0;
#X connect 154 0 115 0;
#X connect 154 1 155 0;
#X connect 155 0 116 0;
#X connect 155 1 117 0;
#X connect 156 0 3 0;
#X connect 157 0 6 0;
#X connect 157 1 158 0;
#X connect 158 0 7 0;
#X connect 158 1 159 0;
#X connect 159 0 8 0;
#X connect 159 1 160 0;
#X connect 160 0 9 0;
#X connect 160 1 128 0;
#X connect 161 0 24 0;
#X connect 161 1 129 0;
#X connect 162 0 126 0;
#X connect 163 0 162 1;
#X connect 164 0 58 0;
#X connect 164 1 165 0;
#X connect 165 0 59 0;
#X connect 165 1 166 0;
#X connect 166 0 60 0;
#X connect 166 1 167 0;
#X connect 167 0 61 0;
#X connect 167 1 140 0;
#X connect 168 0 97 0;
#X connect 168 1 171 0;
#X connect 169 0 96 0;
#X connect 169 1 168 0;
#X connect 170 0 99 0;
#X connect 170 1 100 0;
#X connect 171 0 98 0;
#X connect 171 1 170 0;
#X restore -288 -25 pd markovchain;
#X obj -289 58 f;
#X obj -75 159 loadbang;
#X msg -74 182 2;
#X obj -228 233 + 0;
#X obj -197 232 + 12;
#X obj -289 147 f;
#X obj -289 201 demultiplex f f f f f;
#X obj -294 233 - 24;
#X obj -260 233 - 12;
#X obj 100 100 cnv 15 180 160 empty empty empty 20 12 0 14 -233017
-66577 0;
#X obj 109 222 hradio 14 1 0 12 empty empty empty 0 -8 0 10 -262144
-1 -1 0;
#X obj 172 161 hradio 18 1 0 5 empty empty empty 0 -8 0 10 -262144
-1 -1 0;
#X obj 119 153 tgl 30 0 empty empty empty 17 7 0 10 -262144 -1 -1 1
1;
#X text 143 203 SCALE SELECTOR;
#X text 119 161 ON/OFF;
#X text 194 142 TRANSPOSE;
#X text 110 238 C;
#X text 124 238 C#;
#X text 141 238 D;
#X text 153 238 D#;
#X text 170 238 E;
#X text 182 238 F;
#X text 194 238 F#;
#X text 211 238 G;
#X text 223 238 G#;
#X text 238 238 A;
#X text 251 238 Bb;
#X text 269 238 B;
#X text 212 182 0;
#X text 167 182 -24;
#X text 188 182 -12;
#X text 223 181 +12;
#X text 244 181 +24;
#X obj -265 325 s markov midi;
#X obj -166 232 + 24;
#X obj -264 277 makenote 60 100;
#X text 155 108 MELODY GENERATOR;
#X connect 0 0 3 0;
#X connect 0 1 4 0;
#X connect 0 2 5 0;
#X connect 0 3 6 0;
#X connect 0 4 7 0;
#X connect 0 5 8 0;
#X connect 0 6 9 0;
#X connect 0 7 10 0;
#X connect 0 8 11 0;
#X connect 0 9 12 0;
#X connect 0 10 13 0;
#X connect 0 11 14 0;
#X connect 1 0 2 0;
#X connect 2 0 16 0;
#X connect 3 0 21 0;
#X connect 4 0 21 0;
#X connect 5 0 21 0;
#X connect 6 0 21 0;
#X connect 7 0 21 0;
#X connect 8 0 21 0;
#X connect 9 0 21 0;
#X connect 10 0 21 0;
#X connect 11 0 21 0;
#X connect 12 0 21 0;
#X connect 13 0 21 0;
#X connect 14 0 21 0;
#X connect 15 0 1 0;
#X connect 16 0 0 0;
#X connect 17 0 18 0;
#X connect 19 0 51 0;
#X connect 20 0 51 0;
#X connect 21 0 22 0;
#X connect 22 0 23 0;
#X connect 22 1 24 0;
#X connect 22 2 19 0;
#X connect 22 3 20 0;
#X connect 22 4 50 0;
#X connect 23 0 51 0;
#X connect 24 0 51 0;
#X connect 27 0 22 1;
#X connect 28 0 15 0;
#X connect 50 0 51 0;
#X connect 51 0 49 0;
#X coords 0 -1 1 1 180 160 1 100 100;
#X restore 910 259 pd markov;
#X obj 624 467 r bass_ctl;
#X obj 863 597 dac~;
#X obj 624 584 throw~ bassL;
#X obj 635 559 throw~ bassR;
#X obj 824 467 catch~ bassrevL;
#X obj 842 489 catch~ bassrevR;
#X obj 1109 349 r markov midi;
#X obj 825 551 spigot~;
#X obj 864 515 r bang;
#X msg 348 55 0;
#X msg 427 54 0.5;
#X msg 518 53 0.5;
#X msg 599 53 0;
#X text 833 115 Extra HiPass:;
#N canvas 56 48 1274 635 trigbass 0;
#X obj 18 78 r s1;
#X obj 21 111 spigot;
#X obj 90 109 spigot;
#X obj 157 107 spigot;
#X obj 223 105 spigot;
#X obj 291 105 spigot;
#X obj 361 105 spigot;
#X obj 430 106 spigot;
#X obj 492 106 spigot;
#X obj 76 82 r s2;
#X obj 157 80 r s3;
#X obj 223 78 r s4;
#X obj 285 78 r s5;
#X obj 361 78 r s6;
#X obj 430 79 r s7;
#X obj 492 74 r s8;
#X obj 25 297 r s9;
#X obj 90 297 r s10;
#X obj 157 298 r s11;
#X obj 223 299 r s12;
#X obj 291 299 r s13;
#X obj 361 299 r s14;
#X obj 430 300 r s15;
#X obj 501 300 r s16;
#X floatatom 24 166 5 0 0 0 - - -;
#X obj 90 135 f;
#X floatatom 90 162 5 0 0 0 - - -;
#X obj 157 138 f;
#X floatatom 157 164 5 0 0 0 - - -;
#X obj 224 138 f;
#X floatatom 224 165 5 0 0 0 - - -;
#X obj 290 134 f;
#X floatatom 290 161 5 0 0 0 - - -;
#X obj 361 137 f;
#X floatatom 361 163 5 0 0 0 - - -;
#X obj 433 138 f;
#X floatatom 433 165 5 0 0 0 - - -;
#X obj 495 141 f;
#X floatatom 495 167 5 0 0 0 - - -;
#X obj 25 357 f;
#X floatatom 25 384 5 0 0 0 - - -;
#X obj 91 353 f;
#X floatatom 91 384 5 0 0 0 - - -;
#X obj 158 356 f;
#X floatatom 158 382 5 0 0 0 - - -;
#X obj 225 356 f;
#X floatatom 225 383 5 0 0 0 - - -;
#X floatatom 291 384 5 0 0 0 - - -;
#X obj 362 355 f;
#X floatatom 362 381 5 0 0 0 - - -;
#X obj 428 356 f;
#X floatatom 428 383 5 0 0 0 - - -;
#X obj 500 359 f;
#X floatatom 500 385 5 0 0 0 - - -;
#X obj 290 357 f;
#X obj 24 330 spigot;
#X obj 90 330 spigot;
#X obj 157 328 spigot;
#X obj 223 326 spigot;
#X obj 291 326 spigot;
#X obj 361 326 spigot;
#X obj 427 326 spigot;
#X obj 501 327 spigot;
#X obj 17 19 r ctrig1;
#X obj 85 18 r ctrig2;
#X obj 148 17 r ctrig3;
#X obj 211 17 r ctrig4;
#X obj 282 14 r ctrig5;
#X obj 345 18 r ctrig6;
#X obj 409 19 r ctrig7;
#X obj 471 18 r ctrig8;
#X obj 26 234 r ctrig9;
#X obj 89 234 r ctrig10;
#X obj 157 232 r ctrig11;
#X obj 220 232 r ctrig12;
#X obj 291 233 r ctrig13;
#X obj 354 233 r ctrig14;
#X obj 418 234 r ctrig15;
#X obj 481 234 r ctrig16;
#X obj 24 192 s Ctrig;
#X obj 90 192 s Ctrig;
#X obj 157 193 s Ctrig;
#X obj 223 194 s Ctrig;
#X obj 291 194 s Ctrig;
#X obj 361 194 s Ctrig;
#X obj 430 195 s Ctrig;
#X obj 492 195 s Ctrig;
#X obj 25 407 s Ctrig;
#X obj 90 414 s Ctrig;
#X obj 157 408 s Ctrig;
#X obj 224 412 s Ctrig;
#X obj 291 409 s Ctrig;
#X obj 361 409 s Ctrig;
#X obj 430 410 s Ctrig;
#X obj 501 410 s Ctrig;
#X obj 16 51 r bpitch1;
#X obj 80 53 r bpitch2;
#X obj 152 49 r bpitch3;
#X obj 217 49 r bpitch4;
#X obj 287 47 r bpitch5;
#X obj 353 47 r bpitch6;
#X obj 414 48 r bpitch7;
#X obj 482 44 r bpitch8;
#X obj 21 266 r bpitch9;
#X obj 89 262 r bpitch10;
#X obj 157 264 r bpitch11;
#X obj 222 264 r bpitch12;
#X obj 290 260 r bpitch13;
#X obj 358 262 r bpitch14;
#X obj 419 263 r bpitch15;
#X obj 487 259 r bpitch16;
#X obj 617 106 spigot;
#X obj 686 104 spigot;
#X obj 753 102 spigot;
#X obj 819 100 spigot;
#X obj 887 100 spigot;
#X obj 957 100 spigot;
#X obj 1026 101 spigot;
#X obj 1088 101 spigot;
#X floatatom 620 161 5 0 0 0 - - -;
#X obj 686 130 f;
#X floatatom 686 157 5 0 0 0 - - -;
#X obj 753 133 f;
#X floatatom 753 159 5 0 0 0 - - -;
#X obj 820 133 f;
#X floatatom 820 160 5 0 0 0 - - -;
#X obj 886 129 f;
#X floatatom 886 156 5 0 0 0 - - -;
#X obj 957 132 f;
#X floatatom 957 158 5 0 0 0 - - -;
#X obj 1029 133 f;
#X floatatom 1029 160 5 0 0 0 - - -;
#X obj 1091 136 f;
#X floatatom 1091 162 5 0 0 0 - - -;
#X obj 608 359 f;
#X floatatom 608 386 5 0 0 0 - - -;
#X obj 674 355 f;
#X floatatom 674 382 5 0 0 0 - - -;
#X obj 741 358 f;
#X floatatom 741 384 5 0 0 0 - - -;
#X obj 808 358 f;
#X floatatom 808 385 5 0 0 0 - - -;
#X floatatom 874 386 5 0 0 0 - - -;
#X obj 945 357 f;
#X floatatom 945 383 5 0 0 0 - - -;
#X obj 1011 358 f;
#X floatatom 1011 385 5 0 0 0 - - -;
#X obj 1083 361 f;
#X floatatom 1083 387 5 0 0 0 - - -;
#X obj 873 359 f;
#X obj 607 332 spigot;
#X obj 673 332 spigot;
#X obj 740 330 spigot;
#X obj 806 328 spigot;
#X obj 874 328 spigot;
#X obj 944 328 spigot;
#X obj 1013 329 spigot;
#X obj 1084 329 spigot;
#X obj 620 187 s Ctrig;
#X obj 686 187 s Ctrig;
#X obj 753 188 s Ctrig;
#X obj 819 189 s Ctrig;
#X obj 887 189 s Ctrig;
#X obj 957 189 s Ctrig;
#X obj 1026 190 s Ctrig;
#X obj 1088 190 s Ctrig;
#X obj 608 409 s Ctrig;
#X obj 673 409 s Ctrig;
#X obj 740 410 s Ctrig;
#X obj 806 411 s Ctrig;
#X obj 874 411 s Ctrig;
#X obj 944 411 s Ctrig;
#X obj 1013 412 s Ctrig;
#X obj 1084 412 s Ctrig;
#X obj 620 134 60;
#X obj 609 14 r ctrig17;
#X obj 606 43 r bpitch17;
#X obj 681 13 r ctrig18;
#X obj 676 48 r bpitch18;
#X obj 744 12 r ctrig19;
#X obj 748 44 r bpitch19;
#X obj 814 11 r ctrig20;
#X obj 813 44 r bpitch20;
#X obj 878 9 r ctrig21;
#X obj 883 42 r bpitch21;
#X obj 941 13 r ctrig22;
#X obj 949 42 r bpitch22;
#X obj 1005 14 r ctrig23;
#X obj 1010 43 r bpitch23;
#X obj 1067 13 r ctrig24;
#X obj 1078 39 r bpitch24;
#X obj 604 268 r bpitch25;
#X obj 672 236 r ctrig26;
#X obj 672 264 r bpitch26;
#X obj 740 234 r ctrig27;
#X obj 740 266 r bpitch27;
#X obj 803 234 r ctrig28;
#X obj 805 266 r bpitch28;
#X obj 874 235 r ctrig29;
#X obj 873 262 r bpitch29;
#X obj 937 235 r ctrig30;
#X obj 941 264 r bpitch30;
#X obj 1007 264 r bpitch31;
#X obj 1001 236 r ctrig31;
#X obj 1064 236 r ctrig32;
#X obj 1070 261 r bpitch32;
#X obj 614 73 r s17;
#X obj 672 77 r s18;
#X obj 753 75 r s19;
#X obj 819 73 r s20;
#X obj 881 73 r s21;
#X obj 957 73 r s22;
#X obj 1026 74 r s23;
#X obj 1088 69 r s24;
#X obj 608 299 r s25;
#X obj 673 299 r s26;
#X obj 740 300 r s27;
#X obj 806 301 r s28;
#X obj 874 301 r s29;
#X obj 944 301 r s30;
#X obj 1013 302 r s31;
#X obj 1084 302 r s32;
#X msg 559 543 -1;
#X text 597 542 -1 to turn Note Off;
#X obj 560 573 s bass_ctl;
#X obj 24 139 f;
#X obj 560 379 bng 15 250 50 0 empty empty empty 17 7 0 10 -262144
-1 -1;
#X obj 571 508 bng 15 250 50 0 empty empty empty 17 7 0 10 -262144
-1 -1;
#X obj 609 236 r ctrig25;
#X obj 565 215 delay 3000;
#X obj 571 478 delay 3000;
#X connect 0 0 1 0;
#X connect 1 0 225 0;
#X connect 1 0 229 0;
#X connect 2 0 25 0;
#X connect 2 0 229 0;
#X connect 3 0 27 0;
#X connect 3 0 229 0;
#X connect 4 0 29 0;
#X connect 4 0 229 0;
#X connect 5 0 31 0;
#X connect 5 0 229 0;
#X connect 6 0 33 0;
#X connect 6 0 229 0;
#X connect 7 0 35 0;
#X connect 7 0 229 0;
#X connect 8 0 37 0;
#X connect 8 0 229 0;
#X connect 9 0 2 0;
#X connect 10 0 3 0;
#X connect 11 0 4 0;
#X connect 12 0 5 0;
#X connect 13 0 6 0;
#X connect 14 0 7 0;
#X connect 15 0 8 0;
#X connect 16 0 55 0;
#X connect 17 0 56 0;
#X connect 18 0 57 0;
#X connect 19 0 58 0;
#X connect 20 0 59 0;
#X connect 21 0 60 0;
#X connect 22 0 61 0;
#X connect 23 0 62 0;
#X connect 24 0 79 0;
#X connect 25 0 26 0;
#X connect 26 0 80 0;
#X connect 27 0 28 0;
#X connect 28 0 81 0;
#X connect 29 0 30 0;
#X connect 30 0 82 0;
#X connect 31 0 32 0;
#X connect 32 0 83 0;
#X connect 33 0 34 0;
#X connect 34 0 84 0;
#X connect 35 0 36 0;
#X connect 36 0 85 0;
#X connect 37 0 38 0;
#X connect 38 0 86 0;
#X connect 39 0 40 0;
#X connect 40 0 87 0;
#X connect 41 0 42 0;
#X connect 42 0 88 0;
#X connect 43 0 44 0;
#X connect 44 0 89 0;
#X connect 45 0 46 0;
#X connect 46 0 90 0;
#X connect 47 0 91 0;
#X connect 48 0 49 0;
#X connect 49 0 92 0;
#X connect 50 0 51 0;
#X connect 51 0 93 0;
#X connect 52 0 53 0;
#X connect 53 0 94 0;
#X connect 54 0 47 0;
#X connect 55 0 39 0;
#X connect 55 0 230 0;
#X connect 56 0 41 0;
#X connect 56 0 230 0;
#X connect 57 0 43 0;
#X connect 57 0 230 0;
#X connect 58 0 45 0;
#X connect 58 0 230 0;
#X connect 59 0 54 0;
#X connect 59 0 230 0;
#X connect 60 0 48 0;
#X connect 60 0 230 0;
#X connect 61 0 50 0;
#X connect 61 0 230 0;
#X connect 62 0 52 0;
#X connect 62 0 230 0;
#X connect 63 0 1 1;
#X connect 64 0 2 1;
#X connect 65 0 3 1;
#X connect 66 0 4 1;
#X connect 67 0 5 1;
#X connect 68 0 6 1;
#X connect 69 0 7 1;
#X connect 70 0 8 1;
#X connect 71 0 55 1;
#X connect 72 0 56 1;
#X connect 73 0 57 1;
#X connect 74 0 58 1;
#X connect 75 0 59 1;
#X connect 76 0 60 1;
#X connect 77 0 61 1;
#X connect 78 0 62 1;
#X connect 95 0 225 1;
#X connect 96 0 25 1;
#X connect 97 0 27 1;
#X connect 98 0 29 1;
#X connect 99 0 31 1;
#X connect 100 0 33 1;
#X connect 101 0 35 1;
#X connect 102 0 37 1;
#X connect 103 0 39 1;
#X connect 104 0 41 1;
#X connect 105 0 43 1;
#X connect 106 0 45 1;
#X connect 107 0 54 1;
#X connect 108 0 48 1;
#X connect 109 0 50 1;
#X connect 110 0 52 1;
#X connect 111 0 174 0;
#X connect 111 0 229 0;
#X connect 112 0 120 0;
#X connect 112 0 229 0;
#X connect 113 0 122 0;
#X connect 113 0 229 0;
#X connect 114 0 124 0;
#X connect 114 0 229 0;
#X connect 115 0 126 0;
#X connect 115 0 229 0;
#X connect 116 0 128 0;
#X connect 116 0 229 0;
#X connect 117 0 130 0;
#X connect 117 0 229 0;
#X connect 118 0 132 0;
#X connect 118 0 229 0;
#X connect 119 0 158 0;
#X connect 120 0 121 0;
#X connect 121 0 159 0;
#X connect 122 0 123 0;
#X connect 123 0 160 0;
#X connect 124 0 125 0;
#X connect 125 0 161 0;
#X connect 126 0 127 0;
#X connect 127 0 162 0;
#X connect 128 0 129 0;
#X connect 129 0 163 0;
#X connect 130 0 131 0;
#X connect 131 0 164 0;
#X connect 132 0 133 0;
#X connect 133 0 165 0;
#X connect 134 0 135 0;
#X connect 135 0 166 0;
#X connect 136 0 137 0;
#X connect 137 0 167 0;
#X connect 138 0 139 0;
#X connect 139 0 168 0;
#X connect 140 0 141 0;
#X connect 141 0 169 0;
#X connect 142 0 170 0;
#X connect 143 0 144 0;
#X connect 144 0 171 0;
#X connect 145 0 146 0;
#X connect 146 0 172 0;
#X connect 147 0 148 0;
#X connect 148 0 173 0;
#X connect 149 0 142 0;
#X connect 150 0 134 0;
#X connect 150 0 230 0;
#X connect 151 0 136 0;
#X connect 151 0 230 0;
#X connect 152 0 138 0;
#X connect 152 0 230 0;
#X connect 153 0 140 0;
#X connect 153 0 230 0;
#X connect 154 0 149 0;
#X connect 154 0 230 0;
#X connect 155 0 143 0;
#X connect 155 0 230 0;
#X connect 156 0 145 0;
#X connect 156 0 230 0;
#X connect 157 0 147 0;
#X connect 157 0 230 0;
#X connect 174 0 119 0;
#X connect 175 0 111 1;
#X connect 176 0 174 1;
#X connect 177 0 112 1;
#X connect 178 0 120 1;
#X connect 179 0 113 1;
#X connect 180 0 122 1;
#X connect 181 0 114 1;
#X connect 182 0 124 1;
#X connect 183 0 115 1;
#X connect 184 0 126 1;
#X connect 185 0 116 1;
#X connect 186 0 128 1;
#X connect 187 0 117 1;
#X connect 188 0 130 1;
#X connect 189 0 118 1;
#X connect 190 0 132 1;
#X connect 191 0 134 1;
#X connect 192 0 151 1;
#X connect 193 0 136 1;
#X connect 194 0 152 1;
#X connect 195 0 138 1;
#X connect 196 0 153 1;
#X connect 197 0 140 1;
#X connect 198 0 154 1;
#X connect 199 0 149 1;
#X connect 200 0 155 1;
#X connect 201 0 143 1;
#X connect 202 0 145 1;
#X connect 203 0 156 1;
#X connect 204 0 157 1;
#X connect 205 0 147 1;
#X connect 206 0 111 0;
#X connect 207 0 112 0;
#X connect 208 0 113 0;
#X connect 209 0 114 0;
#X connect 210 0 115 0;
#X connect 211 0 116 0;
#X connect 212 0 117 0;
#X connect 213 0 118 0;
#X connect 214 0 150 0;
#X connect 215 0 151 0;
#X connect 216 0 152 0;
#X connect 217 0 153 0;
#X connect 218 0 154 0;
#X connect 219 0 155 0;
#X connect 220 0 156 0;
#X connect 221 0 157 0;
#X connect 222 0 224 0;
#X connect 225 0 24 0;
#X connect 226 0 222 0;
#X connect 227 0 222 0;
#X connect 228 0 150 1;
#X connect 229 0 226 0;
#X connect 230 0 227 0;
#X restore 137 465 pd trigbass;
#X text 660 491 (EMERGENCY RESET);
#X obj 902 570 s~ bassemu_rec;
#X connect 0 0 1 0;
#X connect 19 0 21 0;
#X connect 21 0 20 0;
#X connect 22 0 24 0;
#X connect 24 0 23 0;
#X connect 25 0 75 0;
#X connect 26 0 84 0;
#X connect 39 0 47 0;
#X connect 40 0 43 0;
#X connect 41 0 42 0;
#X connect 42 0 44 0;
#X connect 44 0 40 0;
#X connect 45 0 41 0;
#X connect 47 0 127 0;
#X connect 47 0 128 0;
#X connect 48 0 49 0;
#X connect 49 0 120 0;
#X connect 66 0 76 0;
#X connect 67 0 74 0;
#X connect 68 0 77 0;
#X connect 69 0 73 0;
#X connect 70 0 78 0;
#X connect 71 0 79 0;
#X connect 72 0 75 0;
#X connect 73 0 75 0;
#X connect 74 0 75 0;
#X connect 76 0 75 0;
#X connect 77 0 75 0;
#X connect 78 0 75 0;
#X connect 79 0 72 0;
#X connect 80 0 134 0;
#X connect 80 0 135 0;
#X connect 80 0 136 0;
#X connect 80 0 137 0;
#X connect 80 0 81 0;
#X connect 80 0 26 0;
#X connect 80 0 45 0;
#X connect 80 0 121 0;
#X connect 81 0 70 0;
#X connect 82 0 83 0;
#X connect 84 0 25 0;
#X connect 118 0 119 0;
#X connect 119 0 2 0;
#X connect 119 0 3 0;
#X connect 119 0 4 0;
#X connect 119 0 5 0;
#X connect 119 0 6 0;
#X connect 119 0 7 0;
#X connect 119 0 8 0;
#X connect 119 0 9 0;
#X connect 119 0 10 0;
#X connect 119 0 11 0;
#X connect 119 0 12 0;
#X connect 119 0 13 0;
#X connect 119 0 14 0;
#X connect 119 0 15 0;
#X connect 119 0 16 0;
#X connect 119 0 17 0;
#X connect 119 0 86 0;
#X connect 119 0 87 0;
#X connect 119 0 88 0;
#X connect 119 0 89 0;
#X connect 119 0 90 0;
#X connect 119 0 91 0;
#X connect 119 0 92 0;
#X connect 119 0 93 0;
#X connect 119 0 94 0;
#X connect 119 0 95 0;
#X connect 119 0 96 0;
#X connect 119 0 97 0;
#X connect 119 0 98 0;
#X connect 119 0 99 0;
#X connect 119 0 100 0;
#X connect 119 0 101 0;
#X connect 120 0 122 1;
#X connect 121 0 50 0;
#X connect 121 0 51 0;
#X connect 121 0 52 0;
#X connect 121 0 53 0;
#X connect 121 0 55 0;
#X connect 121 0 56 0;
#X connect 121 0 57 0;
#X connect 121 0 58 0;
#X connect 121 0 59 0;
#X connect 121 0 60 0;
#X connect 121 0 61 0;
#X connect 121 0 62 0;
#X connect 121 0 63 0;
#X connect 121 0 64 0;
#X connect 121 0 65 0;
#X connect 121 0 103 0;
#X connect 121 0 104 0;
#X connect 121 0 105 0;
#X connect 121 0 106 0;
#X connect 121 0 107 0;
#X connect 121 0 109 0;
#X connect 121 0 110 0;
#X connect 121 0 111 0;
#X connect 121 0 112 0;
#X connect 121 0 113 0;
#X connect 121 0 114 0;
#X connect 121 0 115 0;
#X connect 121 0 116 0;
#X connect 121 0 117 0;
#X connect 121 0 54 0;
#X connect 121 0 108 0;
#X connect 121 0 102 0;
#X connect 122 0 132 0;
#X connect 125 0 47 0;
#X connect 129 0 122 0;
#X connect 130 0 122 0;
#X connect 131 0 117 0;
#X connect 131 0 116 0;
#X connect 131 0 115 0;
#X connect 131 0 114 0;
#X connect 131 0 113 0;
#X connect 131 0 112 0;
#X connect 131 0 111 0;
#X connect 131 0 110 0;
#X connect 131 0 109 0;
#X connect 131 0 108 0;
#X connect 131 0 107 0;
#X connect 131 0 106 0;
#X connect 131 0 105 0;
#X connect 131 0 104 0;
#X connect 131 0 103 0;
#X connect 131 0 102 0;
#X connect 131 0 65 0;
#X connect 131 0 64 0;
#X connect 131 0 63 0;
#X connect 131 0 62 0;
#X connect 131 0 61 0;
#X connect 131 0 60 0;
#X connect 131 0 59 0;
#X connect 131 0 58 0;
#X connect 131 0 57 0;
#X connect 131 0 56 0;
#X connect 131 0 55 0;
#X connect 131 0 54 0;
#X connect 131 0 53 0;
#X connect 131 0 52 0;
#X connect 131 0 51 0;
#X connect 131 0 50 0;
#X connect 132 1 141 0;
#X connect 132 1 126 0;
#X connect 132 1 126 1;
#X connect 133 0 132 1;
#X connect 134 0 69 0;
#X connect 135 0 67 0;
#X connect 136 0 66 0;
#X connect 137 0 68 0;
#X coords 0 -1 1 1 1000 350 1 100 100;
#X restore 39 -5346 pd bassemu;
#N canvas 2 22 1280 620 drums2 0;
#N canvas 447 130 587 376 record 0;
#X msg 279 218 stop;
#X msg 320 219 start;
#X obj 100 100 cnv 15 130 100 empty empty empty 20 12 0 14 -233017
-66577 0;
#X obj 129 136 bng 30 250 50 0 empty empty empty 17 7 0 10 -258113
-1 -1;
#X obj 183 137 bng 30 250 50 0 empty empty empty 17 7 0 10 -66577 -1
-1;
#X text 127 111 RECORD;
#X text 184 110 STOP;
#X obj 106 175 bng 20 250 50 0 empty empty empty 0 -6 0 10 -262144
-1 -262144;
#X obj 10 158 metro 500;
#X msg 8 117 1;
#X msg 55 122 0;
#X obj 142 276 r~ bassemu_rec;
#X obj 301 328 writesf~;
#X msg 368 218 open sequence.wav;
#X obj 340 129 t b b;
#X obj 150 306 catch~;
#X connect 0 0 12 0;
#X connect 1 0 12 0;
#X connect 3 0 9 0;
#X connect 3 0 14 0;
#X connect 4 0 0 0;
#X connect 4 0 10 0;
#X connect 8 0 7 0;
#X connect 9 0 8 0;
#X connect 10 0 8 0;
#X connect 11 0 12 0;
#X connect 13 0 12 0;
#X connect 14 0 1 0;
#X connect 14 1 13 0;
#X connect 15 0 12 0;
#X coords 0 -1 1 1 130 100 1 100 100;
#X restore 954 233 pd record;
#N canvas 61 52 1038 591 toggles 0;
#N canvas 374 55 897 662 playback 0;
#X floatatom 176 80 5 0 0 0 - - -;
#X obj 30 240 select 0;
#X text 118 54 PLAYBACK;
#X obj 30 188 + 0;
#X obj 75 277 s channel1;
#X obj 187 188 + 0;
#X obj 344 188 + 0;
#X obj 500 187 + 0;
#X obj 187 240 select 0;
#X obj 232 279 s channel2;
#X obj 344 240 select 0;
#X obj 390 271 s channel3;
#X obj 500 240 select 0;
#X obj 546 292 s channel4;
#X obj 656 187 + 0;
#X obj 656 240 select 0;
#X obj 702 288 s channel5;
#X obj 32 415 select 0;
#X obj 196 371 + 0;
#X obj 196 423 select 0;
#X obj 76 466 s channel6;
#X obj 239 479 s channel7;
#X obj 33 362 + 0;
#X obj 30 215 tabread seq;
#X obj 32 390 tabread seq;
#X obj 187 215 tabread seq;
#X obj 196 398 tabread seq;
#X obj 345 215 tabread seq;
#X obj 500 215 tabread seq;
#X obj 656 215 tabread seq;
#X obj 176 53 r counter;
#X obj 187 156 + 32;
#X obj 344 155 + 64;
#X obj 500 154 + 96;
#X obj 656 155 + 128;
#X obj 33 330 + 160;
#X obj 196 339 + 192;
#X obj 261 257 bng 15 250 50 0 empty empty empty 17 7 0 10 -262144
-1 -1;
#X obj 120 246 bng 15 250 50 0 empty empty empty 17 7 0 10 -262144
-1 -1;
#X obj 432 250 bng 15 250 50 0 empty empty empty 17 7 0 10 -262144
-1 -1;
#X obj 566 267 bng 15 250 50 0 empty empty empty 17 7 0 10 -262144
-1 -1;
#X obj 287 445 bng 15 250 50 0 empty empty empty 17 7 0 10 -262144
-1 -1;
#X obj 115 439 bng 15 250 50 0 empty empty empty 17 7 0 10 -262144
-1 -1;
#X connect 0 0 3 0;
#X connect 0 0 31 0;
#X connect 0 0 32 0;
#X connect 0 0 33 0;
#X connect 0 0 34 0;
#X connect 0 0 35 0;
#X connect 0 0 36 0;
#X connect 1 1 4 0;
#X connect 1 1 38 0;
#X connect 3 0 23 0;
#X connect 5 0 25 0;
#X connect 6 0 27 0;
#X connect 7 0 28 0;
#X connect 8 1 9 0;
#X connect 8 1 37 0;
#X connect 10 1 11 0;
#X connect 10 1 39 0;
#X connect 12 1 13 0;
#X connect 12 1 40 0;
#X connect 14 0 29 0;
#X connect 15 1 16 0;
#X connect 17 1 20 0;
#X connect 17 1 42 0;
#X connect 18 0 26 0;
#X connect 19 1 21 0;
#X connect 19 1 41 0;
#X connect 22 0 24 0;
#X connect 23 0 1 0;
#X connect 24 0 17 0;
#X connect 25 0 8 0;
#X connect 26 0 19 0;
#X connect 27 0 10 0;
#X connect 28 0 12 0;
#X connect 29 0 15 0;
#X connect 30 0 0 0;
#X connect 31 0 5 0;
#X connect 32 0 6 0;
#X connect 33 0 7 0;
#X connect 34 0 14 0;
#X connect 35 0 22 0;
#X connect 36 0 18 0;
#X restore 100 234 pd playback;
#X obj 100 100 cnv 15 850 80 empty empty empty 20 12 0 14 -233017 -66577
0;
#X obj 124 153 tgl 20 1 empty empty empty 17 7 0 10 -191407 -1 -1 0
1;
#X obj 144 153 tgl 20 0 empty empty empty 17 7 0 10 -262144 -1 -1 0
1;
#X obj 164 153 tgl 20 0 empty empty empty 17 7 0 10 -262144 -1 -1 1
1;
#X obj 184 153 tgl 20 0 empty empty empty 17 7 0 10 -262144 -1 -1 0
1;
#X obj 204 153 tgl 20 0 empty empty empty 17 7 0 10 -262144 -1 -1 0
1;
#X obj 224 153 tgl 20 0 empty empty empty 17 7 0 10 -262144 -1 -1 0
1;
#X obj 244 153 tgl 20 0 empty empty empty 17 7 0 10 -262144 -1 -1 1
1;
#X obj 264 153 tgl 20 0 empty empty empty 17 7 0 10 -262144 -1 -1 0
1;
#X obj 284 153 tgl 20 0 empty empty empty 17 7 0 10 -191407 -1 -1 0
1;
#X obj 304 153 tgl 20 0 empty empty empty 17 7 0 10 -262144 -1 -1 0
1;
#X obj 324 153 tgl 20 0 empty empty empty 17 7 0 10 -262144 -1 -1 0
1;
#X obj 344 153 tgl 20 0 empty empty empty 17 7 0 10 -262144 -1 -1 0
1;
#X obj 364 153 tgl 20 0 empty empty empty 17 7 0 10 -262144 -1 -1 1
1;
#X obj 384 153 tgl 20 0 empty empty empty 17 7 0 10 -262144 -1 -1 0
1;
#X obj 404 153 tgl 20 0 empty empty empty 17 7 0 10 -262144 -1 -1 0
1;
#X obj 424 153 tgl 20 0 empty empty empty 17 7 0 10 -262144 -1 -1 0
1;
#X obj 798 114 bng 20 250 50 0 \$0-clearpattern empty RESET_PATTERN
22 8 1 12 -262144 -1 -1;
#X msg 1002 136 0;
#X obj 63 86 r counter;
#X obj 124 108 hradio 20 1 0 32 empty empty empty 0 -8 0 10 -262144
-1 -1 13;
#N canvas 0 22 1280 679 ------------------------------------------------sequence
0;
#X obj 299 -138 t f b;
#X obj 343 -135 t f b;
#X obj 383 -139 t f b;
#X msg 316 -108 0;
#X msg 356 -110 1;
#X msg 411 -110 2;
#X floatatom 144 -137 5 0 0 0 - - -;
#X floatatom 129 8 5 0 0 0 - - -;
#X obj 179 40 s barstart;
#X obj 946 49 tabwrite seq;
#X floatatom 1033 29 5 0 0 0 - - -;
#X obj 429 -137 t f b;
#X msg 452 -111 3;
#X obj 945 23 + 0;
#X obj 975 -53 + 0;
#X obj 143 -113 * 32;
#X obj 226 -73 r barstart;
#X msg 128 42 bang;
#X msg 324 86 0;
#X obj 286 85 + 0;
#X obj 292 191 + 0;
#X obj 337 250 + 0;
#X obj 390 303 + 0;
#X msg 345 190 1;
#X msg 387 248 2;
#X msg 439 299 3;
#X obj 286 111 tabread seq;
#X obj 292 217 tabread seq;
#X obj 339 271 tabread seq;
#X obj 391 328 tabread seq;
#X obj 302 62 r barstart;
#X obj 332 164 r barstart;
#X obj 377 223 r barstart;
#X obj 425 263 r barstart;
#X obj 468 -141 t f b;
#X obj 511 -139 t f b;
#X obj 553 -140 t f b;
#X obj 593 -139 t f b;
#X msg 495 -110 4;
#X msg 537 -112 5;
#X msg 580 -112 6;
#X msg 620 -112 7;
#X obj 639 -141 t f b;
#X obj 680 -141 t f b;
#X obj 724 -144 t f b;
#X obj 773 -145 t f b;
#X obj 816 -146 t f b;
#X obj 858 -147 t f b;
#X obj 901 -145 t f b;
#X obj 943 -145 t f b;
#X msg 666 -113 8;
#X msg 707 -114 9;
#X msg 751 -116 10;
#X msg 801 -116 11;
#X msg 843 -117 12;
#X msg 885 -117 13;
#X msg 926 -117 14;
#X msg 970 -117 15;
#X obj 427 80 + 0;
#X obj 462 163 + 0;
#X obj 505 222 + 0;
#X obj 553 276 + 0;
#X obj 429 107 tabread seq;
#X obj 455 190 tabread seq;
#X obj 505 247 tabread seq;
#X obj 554 301 tabread seq;
#X obj 442 51 r barstart;
#X obj 495 137 r barstart;
#X obj 537 197 r barstart;
#X obj 592 247 r barstart;
#X msg 493 83 4;
#X msg 508 163 5;
#X msg 550 223 6;
#X msg 586 277 7;
#X obj 642 167 + 0;
#X obj 700 243 + 0;
#X obj 740 303 + 0;
#X obj 614 109 tabread seq;
#X obj 642 193 tabread seq;
#X obj 678 267 tabread seq;
#X obj 741 328 tabread seq;
#X obj 629 54 r barstart;
#X obj 682 140 r barstart;
#X obj 714 215 r barstart;
#X obj 779 279 r barstart;
#X msg 651 82 8;
#X msg 695 166 9;
#X msg 739 243 10;
#X msg 769 303 11;
#X obj 883 227 + 0;
#X obj 928 275 + 0;
#X obj 805 105 tabread seq;
#X obj 832 185 tabread seq;
#X obj 875 248 tabread seq;
#X obj 924 309 tabread seq;
#X obj 820 48 r barstart;
#X obj 870 136 r barstart;
#X obj 915 195 r barstart;
#X obj 951 243 r barstart;
#X msg 839 78 12;
#X obj 612 84 + 0;
#X obj 805 79 + 0;
#X msg 883 162 13;
#X msg 925 222 14;
#X msg 957 275 15;
#X obj 839 162 + 0;
#X obj 299 -164 tgl 15 0 empty empty empty 17 7 0 10 -262144 -1 -1
0 1;
#X obj 343 -161 tgl 15 0 empty empty empty 17 7 0 10 -262144 -1 -1
0 1;
#X obj 383 -163 tgl 15 0 empty empty empty 17 7 0 10 -262144 -1 -1
0 1;
#X obj 426 -164 tgl 15 0 empty empty empty 17 7 0 10 -262144 -1 -1
0 1;
#X obj 468 -165 tgl 15 0 empty empty empty 17 7 0 10 -262144 -1 -1
0 1;
#X obj 509 -163 tgl 15 0 empty empty empty 17 7 0 10 -262144 -1 -1
0 1;
#X obj 553 -168 tgl 15 0 empty empty empty 17 7 0 10 -262144 -1 -1
0 1;
#X obj 593 -164 tgl 15 0 empty empty empty 17 7 0 10 -262144 -1 -1
0 1;
#X obj 639 -168 tgl 15 0 empty empty empty 17 7 0 10 -262144 -1 -1
0 1;
#X obj 680 -167 tgl 15 0 empty empty empty 17 7 0 10 -262144 -1 -1
0 1;
#X obj 724 -169 tgl 15 0 empty empty empty 17 7 0 10 -262144 -1 -1
0 1;
#X obj 773 -169 tgl 15 0 empty empty empty 17 7 0 10 -262144 -1 -1
0 1;
#X obj 816 -170 tgl 15 0 empty empty empty 17 7 0 10 -262144 -1 -1
0 1;
#X obj 858 -171 tgl 15 0 empty empty empty 17 7 0 10 -262144 -1 -1
0 1;
#X obj 901 -172 tgl 15 0 empty empty empty 17 7 0 10 -262144 -1 -1
0 1;
#X obj 943 -173 tgl 15 0 empty empty empty 17 7 0 10 -262144 -1 -1
0 1;
#X obj 144 -163 r \$0-inst.select;
#X obj 41 -82 r bar;
#X msg 83 -96 bang;
#X obj 41 -58 int;
#X obj 83 -72 delay 5;
#X obj 129 -21 + 0;
#X obj 41 -36 * 32;
#X obj 299 -187 inlet;
#X obj 347 -187 inlet;
#X obj 386 -187 inlet;
#X obj 428 -187 inlet;
#X obj 471 -188 inlet;
#X obj 512 -190 inlet;
#X obj 551 -190 inlet;
#X obj 593 -190 inlet;
#X obj 638 -193 inlet;
#X obj 679 -195 inlet;
#X obj 718 -195 inlet;
#X obj 768 -194 inlet;
#X obj 811 -195 inlet;
#X obj 852 -197 inlet;
#X obj 891 -197 inlet;
#X obj 933 -197 inlet;
#X obj 288 145 outlet;
#X obj 290 246 outlet;
#X obj 338 302 outlet;
#X obj 391 354 outlet;
#X obj 429 137 outlet;
#X obj 457 223 outlet;
#X obj 501 276 outlet;
#X obj 554 333 outlet;
#X obj 613 137 outlet;
#X obj 642 221 outlet;
#X obj 681 292 outlet;
#X obj 741 350 outlet;
#X obj 805 129 outlet;
#X obj 833 210 outlet;
#X obj 874 274 outlet;
#X obj 925 340 outlet;
#X obj 1004 -149 t f b;
#X obj 1048 -146 t f b;
#X obj 1088 -150 t f b;
#X obj 1134 -148 t f b;
#X obj 1174 -150 t f b;
#X obj 1216 -150 t f b;
#X obj 1258 -151 t f b;
#X obj 1298 -150 t f b;
#X obj 1344 -152 t f b;
#X obj 1385 -152 t f b;
#X obj 1429 -155 t f b;
#X obj 1478 -156 t f b;
#X obj 1521 -157 t f b;
#X obj 1563 -158 t f b;
#X obj 1606 -156 t f b;
#X obj 1648 -156 t f b;
#X obj 1004 -175 tgl 15 0 empty empty empty 17 7 0 10 -262144 -1 -1
0 1;
#X obj 1048 -172 tgl 15 0 empty empty empty 17 7 0 10 -262144 -1 -1
0 1;
#X obj 1088 -174 tgl 15 0 empty empty empty 17 7 0 10 -262144 -1 -1
0 1;
#X obj 1131 -175 tgl 15 0 empty empty empty 17 7 0 10 -262144 -1 -1
0 1;
#X obj 1173 -176 tgl 15 0 empty empty empty 17 7 0 10 -262144 -1 -1
0 1;
#X obj 1214 -174 tgl 15 0 empty empty empty 17 7 0 10 -262144 -1 -1
0 1;
#X obj 1258 -179 tgl 15 0 empty empty empty 17 7 0 10 -262144 -1 -1
0 1;
#X obj 1298 -175 tgl 15 0 empty empty empty 17 7 0 10 -262144 -1 -1
0 1;
#X obj 1344 -179 tgl 15 0 empty empty empty 17 7 0 10 -262144 -1 -1
0 1;
#X obj 1385 -178 tgl 15 0 empty empty empty 17 7 0 10 -262144 -1 -1
0 1;
#X obj 1429 -180 tgl 15 0 empty empty empty 17 7 0 10 -262144 -1 -1
0 1;
#X obj 1478 -180 tgl 15 0 empty empty empty 17 7 0 10 -262144 -1 -1
0 1;
#X obj 1521 -181 tgl 15 0 empty empty empty 17 7 0 10 -262144 -1 -1
0 1;
#X obj 1563 -182 tgl 15 0 empty empty empty 17 7 0 10 -262144 -1 -1
0 1;
#X obj 1606 -183 tgl 15 0 empty empty empty 17 7 0 10 -262144 -1 -1
0 1;
#X obj 1648 -184 tgl 15 0 empty empty empty 17 7 0 10 -262144 -1 -1
0 1;
#X obj 1004 -198 inlet;
#X obj 1052 -198 inlet;
#X obj 1091 -198 inlet;
#X obj 1133 -198 inlet;
#X obj 1176 -199 inlet;
#X obj 1217 -201 inlet;
#X obj 1256 -201 inlet;
#X obj 1298 -201 inlet;
#X obj 1343 -204 inlet;
#X obj 1384 -206 inlet;
#X obj 1423 -206 inlet;
#X obj 1473 -205 inlet;
#X obj 1516 -206 inlet;
#X msg 1021 -119 16;
#X msg 1061 -121 17;
#X msg 1116 -121 18;
#X msg 1157 -122 19;
#X msg 1200 -121 20;
#X msg 1242 -123 21;
#X msg 1285 -123 22;
#X msg 1325 -123 23;
#X msg 1371 -124 24;
#X msg 1412 -125 25;
#X msg 1456 -127 26;
#X msg 1506 -127 27;
#X msg 1548 -128 28;
#X msg 1590 -128 29;
#X msg 1631 -128 30;
#X msg 1675 -128 31;
#X obj 1563 -211 inlet;
#X obj 1613 -210 inlet;
#X obj 1656 -211 inlet;
#X obj 1019 108 + 0;
#X obj 1025 214 + 0;
#X obj 1070 273 + 0;
#X obj 1123 326 + 0;
#X obj 1019 134 tabread seq;
#X obj 1025 240 tabread seq;
#X obj 1072 294 tabread seq;
#X obj 1124 351 tabread seq;
#X obj 1034 83 r barstart;
#X obj 1065 187 r barstart;
#X obj 1110 246 r barstart;
#X obj 1158 286 r barstart;
#X obj 1160 103 + 0;
#X obj 1195 186 + 0;
#X obj 1238 245 + 0;
#X obj 1286 299 + 0;
#X obj 1162 130 tabread seq;
#X obj 1188 213 tabread seq;
#X obj 1238 270 tabread seq;
#X obj 1284 324 tabread seq;
#X obj 1175 74 r barstart;
#X obj 1228 160 r barstart;
#X obj 1270 220 r barstart;
#X obj 1322 270 r barstart;
#X obj 1372 190 + 0;
#X obj 1430 266 + 0;
#X obj 1470 326 + 0;
#X obj 1344 132 tabread seq;
#X obj 1372 216 tabread seq;
#X obj 1408 290 tabread seq;
#X obj 1471 351 tabread seq;
#X obj 1359 77 r barstart;
#X obj 1412 163 r barstart;
#X obj 1444 238 r barstart;
#X obj 1509 302 r barstart;
#X obj 1613 250 + 0;
#X obj 1658 298 + 0;
#X obj 1519 123 tabread seq;
#X obj 1562 208 tabread seq;
#X obj 1605 271 tabread seq;
#X obj 1655 333 tabread seq;
#X obj 1534 66 r barstart;
#X obj 1600 159 r barstart;
#X obj 1645 218 r barstart;
#X obj 1697 269 r barstart;
#X obj 1342 107 + 0;
#X obj 1519 97 + 0;
#X obj 1569 185 + 0;
#X obj 1021 168 outlet;
#X obj 1023 269 outlet;
#X obj 1071 325 outlet;
#X obj 1125 383 outlet;
#X obj 1162 160 outlet;
#X obj 1190 246 outlet;
#X obj 1234 299 outlet;
#X obj 1287 356 outlet;
#X obj 1343 160 outlet;
#X obj 1372 244 outlet;
#X obj 1411 315 outlet;
#X obj 1472 379 outlet;
#X obj 1519 147 outlet;
#X obj 1563 233 outlet;
#X obj 1604 297 outlet;
#X obj 1655 363 outlet;
#X msg 1052 109 16;
#X msg 1078 213 17;
#X msg 1120 271 18;
#X msg 1172 322 19;
#X msg 1226 106 20;
#X msg 1241 186 21;
#X msg 1283 246 22;
#X msg 1316 300 23;
#X msg 1381 105 24;
#X msg 1425 189 25;
#X msg 1469 266 26;
#X msg 1499 326 27;
#X msg 1553 96 28;
#X msg 1613 185 29;
#X msg 1655 245 30;
#X msg 1687 298 31;
#X obj 43 -164 loadbang;
#X msg 52 -139 0;
#N canvas 0 22 450 278 (subpatch) 0;
#X array seq 250 float 3;
#A 0 0 0 1 0 0 0 1 0 0 0 0 0 1 0 0 0 1 0 0 0 0 1 0 0 0 1 0 0 0 0 0
0 0 0 0 0 0 0 0 0 0 0 0 0 0 0 0 0 0 0 0 0 0 0 0 0 0 0 0 0 0 0 0 0 0
0 0 0 0 0 0 0 0 0 0 0 0 0 0 0 0 0 0 0 0 0 0 0 0 0 0 0 0 0 0 0 0 0 0
0 0 0 0 0 0 0 0 0 0 0 0 0 0 0 0 0 0 0 0 0 0 0 0 0 0 0 0 0 0 0 0 0 0
0 0 0 0 0 0 0 0 0 0 0 0 0 0 0 0 0 0 0 0 0 0 0 0 0 0 0 0 0 0 0 0 0 0
0 0 0 0 0 0 0 0 0 0 0 0 0 0 0 0 0 0 0 0 0 0 0 0 0 0 0 0 0 0 0 0 0 0
0 0 0 0 0 0 0 0 0 0 0 0 0 0 0 0 0 0 0 0 0 0 0 0 0 0 0 0 0 0 0 0 0 0
0 0 0 0 0 0 0 0 0 0 0 0 0 0 0;
#X coords 0 1 250 -1 200 150 1 0 0;
#X restore 46 122 graph;
#X msg 30 32 \; seq const 0 \;;
#X obj 30 3 r resetsequence;
#X connect 0 0 13 0;
#X connect 0 1 3 0;
#X connect 1 0 13 0;
#X connect 1 1 4 0;
#X connect 2 0 13 0;
#X connect 2 1 5 0;
#X connect 3 0 14 0;
#X connect 4 0 14 0;
#X connect 5 0 14 0;
#X connect 6 0 15 0;
#X connect 7 0 8 0;
#X connect 7 0 17 0;
#X connect 10 0 9 1;
#X connect 11 0 13 0;
#X connect 11 1 12 0;
#X connect 12 0 14 0;
#X connect 13 0 9 0;
#X connect 14 0 10 0;
#X connect 15 0 127 1;
#X connect 15 0 124 0;
#X connect 16 0 14 1;
#X connect 17 0 18 0;
#X connect 18 0 19 0;
#X connect 18 0 23 0;
#X connect 19 0 26 0;
#X connect 20 0 27 0;
#X connect 21 0 28 0;
#X connect 22 0 29 0;
#X connect 23 0 20 0;
#X connect 23 0 24 0;
#X connect 24 0 21 0;
#X connect 24 0 25 0;
#X connect 25 0 22 0;
#X connect 25 0 70 0;
#X connect 26 0 106 0;
#X connect 26 0 145 0;
#X connect 27 0 107 0;
#X connect 27 0 146 0;
#X connect 28 0 108 0;
#X connect 28 0 147 0;
#X connect 29 0 109 0;
#X connect 29 0 148 0;
#X connect 30 0 19 1;
#X connect 31 0 20 1;
#X connect 32 0 21 1;
#X connect 33 0 22 1;
#X connect 34 0 13 0;
#X connect 34 1 38 0;
#X connect 35 0 13 0;
#X connect 35 1 39 0;
#X connect 36 0 13 0;
#X connect 36 1 40 0;
#X connect 37 0 13 0;
#X connect 37 1 41 0;
#X connect 38 0 14 0;
#X connect 39 0 14 0;
#X connect 40 0 14 0;
#X connect 41 0 14 0;
#X connect 42 0 13 0;
#X connect 42 1 50 0;
#X connect 43 0 13 0;
#X connect 43 1 51 0;
#X connect 44 0 13 0;
#X connect 44 1 52 0;
#X connect 45 0 13 0;
#X connect 45 1 53 0;
#X connect 46 0 13 0;
#X connect 46 1 54 0;
#X connect 47 0 13 0;
#X connect 47 1 55 0;
#X connect 48 0 13 0;
#X connect 48 1 56 0;
#X connect 49 0 13 0;
#X connect 49 1 57 0;
#X connect 50 0 14 0;
#X connect 51 0 14 0;
#X connect 52 0 14 0;
#X connect 53 0 14 0;
#X connect 54 0 14 0;
#X connect 55 0 14 0;
#X connect 56 0 14 0;
#X connect 57 0 14 0;
#X connect 58 0 62 0;
#X connect 59 0 63 0;
#X connect 60 0 64 0;
#X connect 61 0 65 0;
#X connect 62 0 110 0;
#X connect 62 0 149 0;
#X connect 63 0 111 0;
#X connect 63 0 150 0;
#X connect 64 0 112 0;
#X connect 64 0 151 0;
#X connect 65 0 113 0;
#X connect 65 0 152 0;
#X connect 66 0 58 1;
#X connect 67 0 59 1;
#X connect 68 0 60 1;
#X connect 69 0 61 1;
#X connect 70 0 58 0;
#X connect 70 0 71 0;
#X connect 71 0 59 0;
#X connect 71 0 72 0;
#X connect 72 0 60 0;
#X connect 72 0 73 0;
#X connect 73 0 61 0;
#X connect 73 0 85 0;
#X connect 74 0 78 0;
#X connect 75 0 79 0;
#X connect 76 0 80 0;
#X connect 77 0 114 0;
#X connect 77 0 153 0;
#X connect 78 0 115 0;
#X connect 78 0 154 0;
#X connect 79 0 116 0;
#X connect 79 0 155 0;
#X connect 80 0 117 0;
#X connect 80 0 156 0;
#X connect 81 0 100 1;
#X connect 82 0 74 1;
#X connect 83 0 75 1;
#X connect 84 0 76 1;
#X connect 85 0 86 0;
#X connect 85 0 100 0;
#X connect 86 0 74 0;
#X connect 86 0 87 0;
#X connect 87 0 75 0;
#X connect 87 0 88 0;
#X connect 88 0 76 0;
#X connect 88 0 99 0;
#X connect 89 0 93 0;
#X connect 90 0 94 0;
#X connect 91 0 118 0;
#X connect 91 0 157 0;
#X connect 92 0 119 0;
#X connect 92 0 158 0;
#X connect 93 0 120 0;
#X connect 93 0 159 0;
#X connect 94 0 121 0;
#X connect 94 0 160 0;
#X connect 95 0 101 1;
#X connect 96 0 105 1;
#X connect 97 0 89 1;
#X connect 98 0 90 1;
#X connect 99 0 102 0;
#X connect 99 0 101 0;
#X connect 100 0 77 0;
#X connect 101 0 91 0;
#X connect 102 0 103 0;
#X connect 102 0 105 0;
#X connect 103 0 89 0;
#X connect 103 0 104 0;
#X connect 104 0 90 0;
#X connect 104 0 289 0;
#X connect 105 0 92 0;
#X connect 106 0 0 0;
#X connect 107 0 1 0;
#X connect 108 0 2 0;
#X connect 109 0 11 0;
#X connect 110 0 34 0;
#X connect 111 0 35 0;
#X connect 112 0 36 0;
#X connect 113 0 37 0;
#X connect 114 0 42 0;
#X connect 115 0 43 0;
#X connect 116 0 44 0;
#X connect 117 0 45 0;
#X connect 118 0 46 0;
#X connect 119 0 47 0;
#X connect 120 0 48 0;
#X connect 121 0 49 0;
#X connect 122 0 6 0;
#X connect 123 0 125 0;
#X connect 124 0 126 0;
#X connect 125 0 128 0;
#X connect 126 0 125 0;
#X connect 127 0 7 0;
#X connect 128 0 127 0;
#X connect 129 0 0 0;
#X connect 130 0 1 0;
#X connect 131 0 2 0;
#X connect 132 0 11 0;
#X connect 133 0 34 0;
#X connect 134 0 35 0;
#X connect 135 0 36 0;
#X connect 136 0 37 0;
#X connect 137 0 42 0;
#X connect 138 0 43 0;
#X connect 139 0 44 0;
#X connect 140 0 45 0;
#X connect 141 0 46 0;
#X connect 142 0 47 0;
#X connect 143 0 48 0;
#X connect 144 0 49 0;
#X connect 161 0 13 0;
#X connect 161 1 206 0;
#X connect 162 0 13 0;
#X connect 162 1 207 0;
#X connect 163 0 13 0;
#X connect 163 1 208 0;
#X connect 164 0 13 0;
#X connect 164 1 209 0;
#X connect 165 0 13 0;
#X connect 165 1 210 0;
#X connect 166 0 13 0;
#X connect 166 1 211 0;
#X connect 167 0 13 0;
#X connect 167 1 212 0;
#X connect 168 0 13 0;
#X connect 168 1 213 0;
#X connect 169 0 13 0;
#X connect 169 1 214 0;
#X connect 170 0 13 0;
#X connect 170 1 215 0;
#X connect 171 0 13 0;
#X connect 171 1 216 0;
#X connect 172 0 13 0;
#X connect 172 1 217 0;
#X connect 173 0 13 0;
#X connect 173 1 218 0;
#X connect 174 0 13 0;
#X connect 174 1 219 0;
#X connect 175 0 13 0;
#X connect 175 1 220 0;
#X connect 176 0 13 0;
#X connect 176 1 221 0;
#X connect 177 0 161 0;
#X connect 178 0 162 0;
#X connect 179 0 163 0;
#X connect 180 0 164 0;
#X connect 181 0 165 0;
#X connect 182 0 166 0;
#X connect 183 0 167 0;
#X connect 184 0 168 0;
#X connect 185 0 169 0;
#X connect 186 0 170 0;
#X connect 187 0 171 0;
#X connect 188 0 172 0;
#X connect 189 0 173 0;
#X connect 190 0 174 0;
#X connect 191 0 175 0;
#X connect 192 0 176 0;
#X connect 193 0 161 0;
#X connect 194 0 162 0;
#X connect 195 0 163 0;
#X connect 196 0 164 0;
#X connect 197 0 165 0;
#X connect 198 0 166 0;
#X connect 199 0 167 0;
#X connect 200 0 168 0;
#X connect 201 0 169 0;
#X connect 202 0 170 0;
#X connect 203 0 171 0;
#X connect 204 0 172 0;
#X connect 205 0 173 0;
#X connect 206 0 14 0;
#X connect 207 0 14 0;
#X connect 208 0 14 0;
#X connect 209 0 14 0;
#X connect 210 0 14 0;
#X connect 211 0 14 0;
#X connect 212 0 14 0;
#X connect 213 0 14 0;
#X connect 214 0 14 0;
#X connect 215 0 14 0;
#X connect 216 0 14 0;
#X connect 217 0 14 0;
#X connect 218 0 14 0;
#X connect 219 0 14 0;
#X connect 220 0 14 0;
#X connect 221 0 14 0;
#X connect 222 0 174 0;
#X connect 223 0 175 0;
#X connect 224 0 176 0;
#X connect 225 0 229 0;
#X connect 226 0 230 0;
#X connect 227 0 231 0;
#X connect 228 0 232 0;
#X connect 229 0 273 0;
#X connect 229 0 225 1;
#X connect 229 0 177 0;
#X connect 230 0 274 0;
#X connect 230 0 178 0;
#X connect 231 0 275 0;
#X connect 231 0 179 0;
#X connect 232 0 276 0;
#X connect 232 0 180 0;
#X connect 233 0 225 1;
#X connect 234 0 226 1;
#X connect 235 0 227 1;
#X connect 236 0 228 1;
#X connect 237 0 241 0;
#X connect 238 0 242 0;
#X connect 239 0 243 0;
#X connect 240 0 244 0;
#X connect 241 0 277 0;
#X connect 241 0 181 0;
#X connect 242 0 278 0;
#X connect 242 0 182 0;
#X connect 243 0 279 0;
#X connect 243 0 183 0;
#X connect 244 0 280 0;
#X connect 244 0 184 0;
#X connect 245 0 237 1;
#X connect 246 0 238 1;
#X connect 247 0 239 1;
#X connect 248 0 240 1;
#X connect 249 0 253 0;
#X connect 250 0 254 0;
#X connect 251 0 255 0;
#X connect 252 0 281 0;
#X connect 252 0 185 0;
#X connect 253 0 282 0;
#X connect 253 0 186 0;
#X connect 254 0 283 0;
#X connect 254 0 187 0;
#X connect 255 0 284 0;
#X connect 255 0 188 0;
#X connect 256 0 270 1;
#X connect 257 0 249 1;
#X connect 258 0 250 1;
#X connect 259 0 251 1;
#X connect 260 0 264 0;
#X connect 261 0 265 0;
#X connect 262 0 285 0;
#X connect 262 0 189 0;
#X connect 263 0 286 0;
#X connect 263 0 190 0;
#X connect 264 0 287 0;
#X connect 264 0 191 0;
#X connect 265 0 288 0;
#X connect 265 0 192 0;
#X connect 266 0 271 1;
#X connect 267 0 272 1;
#X connect 268 0 260 1;
#X connect 269 0 261 1;
#X connect 270 0 252 0;
#X connect 271 0 262 0;
#X connect 272 0 263 0;
#X connect 289 0 225 0;
#X connect 289 0 290 0;
#X connect 290 0 226 0;
#X connect 290 0 291 0;
#X connect 291 0 227 0;
#X connect 291 0 292 0;
#X connect 292 0 228 0;
#X connect 292 0 293 0;
#X connect 293 0 237 0;
#X connect 293 0 294 0;
#X connect 294 0 238 0;
#X connect 294 0 295 0;
#X connect 295 0 239 0;
#X connect 295 0 296 0;
#X connect 296 0 240 0;
#X connect 296 0 297 0;
#X connect 297 0 298 0;
#X connect 297 0 270 0;
#X connect 298 0 249 0;
#X connect 298 0 299 0;
#X connect 299 0 250 0;
#X connect 299 0 300 0;
#X connect 300 0 251 0;
#X connect 300 0 301 0;
#X connect 301 0 302 0;
#X connect 301 0 271 0;
#X connect 302 0 303 0;
#X connect 302 0 272 0;
#X connect 303 0 260 0;
#X connect 303 0 304 0;
#X connect 304 0 261 0;
#X connect 305 0 306 0;
#X connect 306 0 15 0;
#X connect 309 0 308 0;
#X restore 208 233 pd ------------------------------------------------sequence
;
#X obj 444 153 tgl 20 1 empty empty empty 17 7 0 10 -191407 -1 -1 1
1;
#X obj 464 153 tgl 20 0 empty empty empty 17 7 0 10 -262144 -1 -1 0
1;
#X obj 484 153 tgl 20 0 empty empty empty 17 7 0 10 -262144 -1 -1 0
1;
#X obj 504 153 tgl 20 0 empty empty empty 17 7 0 10 -262144 -1 -1 0
1;
#X obj 524 153 tgl 20 0 empty empty empty 17 7 0 10 -262144 -1 -1 0
1;
#X obj 544 153 tgl 20 0 empty empty empty 17 7 0 10 -262144 -1 -1 1
1;
#X obj 564 153 tgl 20 0 empty empty empty 17 7 0 10 -262144 -1 -1 0
1;
#X obj 584 153 tgl 20 0 empty empty empty 17 7 0 10 -262144 -1 -1 0
1;
#X obj 604 153 tgl 20 0 empty empty empty 17 7 0 10 -191407 -1 -1 0
1;
#X obj 624 153 tgl 20 0 empty empty empty 17 7 0 10 -262144 -1 -1 1
1;
#X obj 644 153 tgl 20 0 empty empty empty 17 7 0 10 -262144 -1 -1 0
1;
#X obj 664 153 tgl 20 0 empty empty empty 17 7 0 10 -262144 -1 -1 0
1;
#X obj 684 153 tgl 20 0 empty empty empty 17 7 0 10 -262144 -1 -1 0
1;
#X obj 704 153 tgl 20 0 empty empty empty 17 7 0 10 -262144 -1 -1 0
1;
#X obj 724 153 tgl 20 0 empty empty empty 17 7 0 10 -262144 -1 -1 0
1;
#X obj 744 153 tgl 20 0 empty empty empty 17 7 0 10 -262144 -1 -1 0
1;
#X obj 799 149 bng 20 250 50 0 resetsequence empty CLEAR_ALL_DRUMS
22 8 1 12 -262144 -1 -1;
#X connect 2 0 22 0;
#X connect 3 0 22 1;
#X connect 4 0 22 2;
#X connect 5 0 22 3;
#X connect 6 0 22 4;
#X connect 7 0 22 5;
#X connect 8 0 22 6;
#X connect 9 0 22 7;
#X connect 10 0 22 8;
#X connect 11 0 22 9;
#X connect 12 0 22 10;
#X connect 13 0 22 11;
#X connect 14 0 22 12;
#X connect 15 0 22 13;
#X connect 16 0 22 14;
#X connect 17 0 22 15;
#X connect 18 0 19 0;
#X connect 19 0 2 0;
#X connect 19 0 3 0;
#X connect 19 0 4 0;
#X connect 19 0 5 0;
#X connect 19 0 6 0;
#X connect 19 0 7 0;
#X connect 19 0 9 0;
#X connect 19 0 8 0;
#X connect 19 0 10 0;
#X connect 19 0 11 0;
#X connect 19 0 12 0;
#X connect 19 0 13 0;
#X connect 19 0 14 0;
#X connect 19 0 15 0;
#X connect 19 0 16 0;
#X connect 19 0 17 0;
#X connect 19 0 23 0;
#X connect 19 0 24 0;
#X connect 19 0 25 0;
#X connect 19 0 26 0;
#X connect 19 0 27 0;
#X connect 19 0 28 0;
#X connect 19 0 29 0;
#X connect 19 0 30 0;
#X connect 19 0 31 0;
#X connect 19 0 32 0;
#X connect 19 0 33 0;
#X connect 19 0 34 0;
#X connect 19 0 35 0;
#X connect 19 0 36 0;
#X connect 19 0 37 0;
#X connect 19 0 38 0;
#X connect 20 0 21 0;
#X connect 22 0 2 0;
#X connect 22 1 3 0;
#X connect 22 2 4 0;
#X connect 22 3 5 0;
#X connect 22 4 6 0;
#X connect 22 5 7 0;
#X connect 22 6 8 0;
#X connect 22 7 9 0;
#X connect 22 8 10 0;
#X connect 22 9 11 0;
#X connect 22 10 12 0;
#X connect 22 11 13 0;
#X connect 22 12 14 0;
#X connect 22 13 15 0;
#X connect 22 14 16 0;
#X connect 22 15 17 0;
#X connect 22 16 23 0;
#X connect 22 17 24 0;
#X connect 22 18 25 0;
#X connect 22 19 26 0;
#X connect 22 20 27 0;
#X connect 22 21 28 0;
#X connect 22 22 29 0;
#X connect 22 23 30 0;
#X connect 22 24 31 0;
#X connect 22 25 32 0;
#X connect 22 26 33 0;
#X connect 22 27 34 0;
#X connect 22 28 35 0;
#X connect 22 29 36 0;
#X connect 22 30 37 0;
#X connect 22 31 38 0;
#X connect 23 0 22 16;
#X connect 24 0 22 17;
#X connect 25 0 22 18;
#X connect 26 0 22 19;
#X connect 27 0 22 20;
#X connect 28 0 22 21;
#X connect 29 0 22 22;
#X connect 30 0 22 23;
#X connect 31 0 22 24;
#X connect 32 0 22 25;
#X connect 33 0 22 26;
#X connect 34 0 22 27;
#X connect 35 0 22 28;
#X connect 36 0 22 29;
#X connect 37 0 22 30;
#X connect 38 0 22 31;
#X coords 0 -1 1 1 850 80 1 100 100;
#X restore 236 115 pd toggles;
#N canvas 211 71 711 530 lowtom_GUI 0;
#X obj 100 100 cnv 15 85 120 empty empty empty 20 12 0 14 -233017 -66577
0;
#X obj 118 284 bng 15 250 50 0 empty empty empty 17 7 0 10 -262144
-1 -1;
#N canvas 172 70 892 566 lowtom 0;
#X obj 215 68 bng 15 250 50 0 empty empty empty 17 7 0 10 -262144 -1
-1;
#X obj 215 101 t b b;
#X obj 86 150 noise~;
#X obj 91 245 *~;
#X obj 246 167 vline~;
#X obj 256 435 *~;
#X obj 253 481 dac~;
#X obj 258 373 *~ 0.7;
#X obj 41 200 *~;
#X obj 215 35 inlet;
#X obj 162 210 +~ 140;
#X obj 206 209 +~ 275;
#X obj 296 209 +~ 645;
#X obj 120 282 vcf~ 150;
#X obj 179 281 vcf~ 75;
#X obj 236 280 vcf~ 64;
#X obj 289 279 vcf~ 55;
#X obj 120 310 *~ 300;
#X obj 237 310 *~ 30;
#X obj 43 152 ead~;
#X obj 53 86 inlet;
#X obj 64 108 inlet;
#X obj 299 407 inlet;
#X msg 246 141 7 1 0 \, 0 100 1;
#X obj 179 309 *~ 20;
#X obj 252 209 +~ 420;
#X obj 289 309 *~ 100;
#X text 90 21 comment;
#X obj 301 452 throw~;
#X obj 87 213 lop~ 1100;
#X obj 86 176 *~ 0.4;
#X connect 0 0 1 0;
#X connect 0 0 19 0;
#X connect 1 1 23 0;
#X connect 2 0 30 0;
#X connect 3 0 13 0;
#X connect 3 0 14 0;
#X connect 3 0 15 0;
#X connect 3 0 16 0;
#X connect 4 0 10 0;
#X connect 4 0 11 0;
#X connect 4 0 12 0;
#X connect 4 0 25 0;
#X connect 5 0 6 0;
#X connect 5 0 6 1;
#X connect 5 0 28 0;
#X connect 7 0 5 0;
#X connect 8 0 3 0;
#X connect 9 0 0 0;
#X connect 10 0 13 1;
#X connect 11 0 14 1;
#X connect 12 0 16 1;
#X connect 13 0 17 0;
#X connect 14 0 24 0;
#X connect 15 0 18 0;
#X connect 16 0 26 0;
#X connect 17 0 7 0;
#X connect 18 0 7 0;
#X connect 19 0 8 0;
#X connect 19 0 8 1;
#X connect 20 0 19 1;
#X connect 21 0 19 2;
#X connect 22 0 5 1;
#X connect 23 0 4 0;
#X connect 24 0 7 0;
#X connect 25 0 15 1;
#X connect 26 0 7 0;
#X connect 29 0 3 1;
#X connect 30 0 29 0;
#X restore 118 302 pd lowtom;
#X obj 118 262 r channel3;
#X obj 108 176 knob 28 28 10 500 0 0 empty empty ATK 3 37 1 10 -262144
-1 -1 0 1;
#X obj 144 175 knob 28 28 200 2000 0 0 empty empty DECAY -2 37 1 10
-262144 -1 -1 300 1;
#X msg 133 66 400;
#X msg 158 66 1;
#X obj 143 124 knob 28 28 0 1 0 0 empty empty LVL 6 40 1 10 -262144
-1 -1 2700 1;
#X text 119 101 LOW TOM;
#X obj 94 31 loadbang;
#X connect 1 0 2 2;
#X connect 3 0 1 0;
#X connect 4 0 2 0;
#X connect 5 0 2 1;
#X connect 6 0 5 0;
#X connect 7 0 8 0;
#X connect 8 0 2 3;
#X connect 10 0 7 0;
#X connect 10 0 6 0;
#X coords 0 -1 1 1 85 120 1 100 100;
#X restore 438 220 pd lowtom_GUI;
#N canvas 124 99 832 552 hitom_GUI 0;
#X obj 100 100 cnv 15 85 120 empty empty empty 20 12 0 14 -233017 -66577
0;
#X obj 120 268 bng 15 250 50 0 empty empty empty 17 7 0 10 -262144
-1 -1;
#N canvas 274 22 1057 686 hitom 0;
#X obj 31 -288 bng 15 250 50 0 empty empty empty 17 7 0 10 -262144
-1 -1;
#X obj 30 -264 t b b;
#X obj 87 -180 noise~;
#X obj 87 -147 *~ 0.5;
#X obj 33 -96 *~;
#X obj 219 -162 vline~;
#X obj 93 -47 vcf~ 70;
#X obj 152 -48 vcf~ 70;
#X obj 209 -49 vcf~ 70;
#X obj 262 -50 vcf~ 70;
#X obj 319 -49 vcf~ 70;
#X obj 160 83 *~;
#X obj 157 129 dac~;
#X msg 219 -188 6 1 0 \, 0 100 1;
#X obj 93 -15 *~ 200;
#X obj 152 -16 *~ 30;
#X obj 210 -15 *~ 20;
#X obj 262 -16 *~ 8;
#X obj 319 -16 *~ 3;
#X obj 87 -115 lop~ 1200;
#X obj 32 -153 *~;
#X obj 32 -126 *~;
#X obj 32 -315 inlet;
#X obj 31 -186 ead~;
#X obj 183 -119 +~ 360;
#X obj 139 -118 +~ 190;
#X obj 225 -120 +~ 590;
#X obj 269 -120 +~ 825;
#X obj 313 -120 +~ 1470;
#X obj 40 -227 inlet;
#X obj 81 -226 inlet;
#X obj 208 65 inlet;
#X obj 208 99 throw~;
#X obj 159 44 *~ 1.3;
#X connect 0 0 1 0;
#X connect 1 0 23 0;
#X connect 1 1 13 0;
#X connect 2 0 3 0;
#X connect 3 0 19 0;
#X connect 4 0 10 0;
#X connect 4 0 9 0;
#X connect 4 0 8 0;
#X connect 4 0 7 0;
#X connect 4 0 6 0;
#X connect 5 0 24 0;
#X connect 5 0 25 0;
#X connect 5 0 26 0;
#X connect 5 0 27 0;
#X connect 5 0 28 0;
#X connect 6 0 14 0;
#X connect 7 0 15 0;
#X connect 8 0 16 0;
#X connect 9 0 17 0;
#X connect 10 0 18 0;
#X connect 11 0 12 0;
#X connect 11 0 12 1;
#X connect 11 0 32 0;
#X connect 13 0 5 0;
#X connect 14 0 33 0;
#X connect 15 0 33 0;
#X connect 16 0 33 0;
#X connect 17 0 33 0;
#X connect 18 0 33 0;
#X connect 19 0 4 1;
#X connect 20 0 21 0;
#X connect 20 0 21 1;
#X connect 21 0 4 0;
#X connect 22 0 0 0;
#X connect 23 0 20 0;
#X connect 23 0 20 1;
#X connect 24 0 7 1;
#X connect 25 0 6 1;
#X connect 26 0 8 1;
#X connect 27 0 9 1;
#X connect 28 0 10 1;
#X connect 29 0 23 1;
#X connect 30 0 23 2;
#X connect 31 0 11 1;
#X connect 33 0 11 0;
#X restore 120 287 pd hitom;
#X obj 122 248 r channel4;
#X obj 108 173 knob 28 28 10 500 0 0 empty empty ATK 3 37 1 10 -262144
-1 -1 0 1;
#X obj 144 172 knob 28 28 300 2000 0 0 empty empty DECAY -2 37 1 10
-262144 -1 -1 159 1;
#X msg 132 22 400;
#X obj 143 120 knob 28 28 0 1 0 0 empty empty LVL 6 40 1 10 -262144
-1 -1 2700 1;
#X msg 166 20 1;
#X text 125 100 HI TOM;
#X obj 106 -19 loadbang;
#X connect 1 0 2 0;
#X connect 3 0 1 0;
#X connect 4 0 2 1;
#X connect 5 0 2 2;
#X connect 6 0 5 0;
#X connect 7 0 2 3;
#X connect 8 0 7 0;
#X connect 10 0 6 0;
#X connect 10 0 8 0;
#X coords 0 -1 1 1 85 120 1 100 100;
#X restore 542 220 pd hitom_GUI;
#N canvas 161 228 627 405 clap_GUI 0;
#X obj 100 100 cnv 15 85 120 empty empty empty 20 12 0 14 -233017 -66577
0;
#X obj 112 281 bng 15 250 50 0 empty empty empty 17 7 0 10 -262144
-1 -1;
#X obj 112 259 r channel5;
#N canvas 373 38 896 695 clap 0;
#X obj -512 -83 bng 15 250 50 0 empty empty empty 17 7 0 10 -262144
-1 -1;
#X obj -458 -48 noise~;
#X obj -467 -11 hip~ 300;
#X obj -557 16 lop~ 8000;
#X obj -414 16 bp~ 2500 10;
#X obj -493 69 *~ 0.8;
#X obj -587 96 *~;
#X obj -589 -26 ead~ 1 300;
#X obj -587 128 *~ 0.6;
#X obj -587 163 dac~;
#X obj -512 -111 inlet;
#X obj -563 -61 inlet;
#X obj -526 -51 inlet;
#X obj -522 111 inlet;
#X obj -556 46 *~ 0.4;
#X obj -492 16 bp~ 1240 25;
#X obj -502 158 throw~;
#X connect 0 0 7 0;
#X connect 1 0 2 0;
#X connect 1 0 4 0;
#X connect 1 0 3 0;
#X connect 2 0 15 0;
#X connect 3 0 14 0;
#X connect 4 0 5 0;
#X connect 5 0 6 1;
#X connect 6 0 8 0;
#X connect 7 0 6 0;
#X connect 8 0 9 0;
#X connect 8 0 9 1;
#X connect 8 0 16 0;
#X connect 10 0 0 0;
#X connect 11 0 7 1;
#X connect 12 0 7 2;
#X connect 13 0 8 1;
#X connect 14 0 5 0;
#X connect 15 0 5 0;
#X restore 112 302 pd clap;
#X obj 144 120 knob 28 28 0 1 0 0 empty empty LVL 6 40 1 10 -262144
-1 -1 2700 1;
#X obj 108 175 knob 28 28 10 1000 0 1 empty empty ATK 3 37 1 10 -1
-1 -1 0 0;
#X obj 145 175 knob 28 28 200 1500 0 0 empty empty DECAY 1 37 1 10
-262144 -1 -1 0 1;
#X text 127 100 CLAP;
#X msg 143 54 1;
#X obj 143 20 loadbang;
#X connect 1 0 3 3;
#X connect 2 0 1 0;
#X connect 4 0 3 2;
#X connect 5 0 3 0;
#X connect 6 0 3 1;
#X connect 8 0 4 0;
#X connect 9 0 8 0;
#X coords 0 -1 1 1 85 120 1 100 100;
#X restore 646 221 pd clap_GUI;
#N canvas 110 83 730 434 clhat_GUI 0;
#X obj 100 100 cnv 15 85 120 empty empty empty 20 12 0 14 -233017 -66577
0;
#X obj 104 277 bng 15 250 50 0 empty empty empty 17 7 0 10 -262144
-1 -1;
#N canvas 364 50 562 610 clhat 0;
#X obj -88 31 noise~;
#X obj -85 289 dac~;
#X obj -86 145 *~;
#X obj -27 50 bng 15 250 50 0 empty empty empty 17 7 0 10 -262144 -1
-1;
#X obj -88 79 hip~ 60000;
#X obj -86 203 *~;
#X obj -86 173 *~ 0.8;
#X obj -27 24 inlet;
#X obj -15 98 ead~;
#X obj -3 68 inlet;
#X obj 30 97 inlet;
#X obj 58 168 inlet;
#X obj -28 260 throw~;
#X connect 0 0 4 0;
#X connect 2 0 6 0;
#X connect 3 0 8 0;
#X connect 4 0 2 0;
#X connect 5 0 1 0;
#X connect 5 0 1 1;
#X connect 5 0 12 0;
#X connect 6 0 5 0;
#X connect 7 0 3 0;
#X connect 8 0 2 1;
#X connect 9 0 8 1;
#X connect 10 0 8 2;
#X connect 11 0 5 1;
#X restore 105 296 pd clhat;
#X obj 104 254 r channel6;
#X obj 146 174 knob 28 28 50 300 0 0 empty empty DECAY 1 37 1 10 -262144
-1 -1 270 1;
#X msg 94 45 75;
#X obj 146 122 knob 28 28 0 1 0 0 empty empty LVL 6 40 1 10 -262144
-1 -1 2700 1;
#X text 122 101 CL HAT;
#X obj 107 174 knob 28 28 2 300 0 1 empty empty ATK 3 37 1 10 -1 -1
-1 0 0;
#X msg 130 44 1;
#X obj 95 13 loadbang;
#X connect 1 0 2 0;
#X connect 3 0 1 0;
#X connect 4 0 2 2;
#X connect 5 0 4 0;
#X connect 6 0 2 3;
#X connect 8 0 2 1;
#X connect 9 0 6 0;
#X connect 10 0 9 0;
#X connect 10 0 5 0;
#X coords 0 -1 1 1 85 120 1 100 100;
#X restore 750 221 pd clhat_GUI;
#N canvas 120 22 688 574 ophat_GUI 0;
#X obj 100 100 cnv 15 85 120 empty empty empty 20 12 0 14 -233017 -66577
0;
#X obj 119 274 bng 15 250 50 0 empty empty empty 17 7 0 10 -262144
-1 -1;
#N canvas 562 105 583 554 ohh 0;
#X obj 17 116 noise~;
#X msg 65 65 bang;
#X obj 64 35 inlet;
#X obj 51 176 *~;
#X obj 54 266 *~;
#X obj 957 189;
#X obj 55 291 dac~;
#X obj 51 201 hip~ 17000;
#X obj 66 145 ead~;
#X obj 104 68 inlet;
#X obj 124 245 inlet;
#X obj 143 93 inlet;
#X obj 120 284 throw~;
#X connect 0 0 3 0;
#X connect 1 0 8 0;
#X connect 2 0 1 0;
#X connect 3 0 7 0;
#X connect 4 0 6 0;
#X connect 4 0 6 1;
#X connect 4 0 12 0;
#X connect 7 0 4 0;
#X connect 8 0 3 1;
#X connect 9 0 8 1;
#X connect 10 0 4 1;
#X connect 11 0 8 2;
#X restore 121 300 pd ohh;
#X obj 118 249 r channel7;
#X obj 146 176 knob 28 28 300 600 0 0 empty empty DECAY 1 37 1 10 -262144
-1 -1 0 1;
#X obj 146 124 knob 28 28 0 1 0 0 empty empty LVL 4 40 1 10 -262144
-1 -1 810 1;
#X msg 113 23 200;
#X msg 158 22 0.3;
#X obj 108 177 knob 28 28 20 100 0 0 empty empty ATK 3 37 1 10 -262144
-1 -1 0 1;
#X text 123 101 O. HAT;
#X obj 112 -22 loadbang;
#X connect 1 0 2 0;
#X connect 3 0 1 0;
#X connect 4 0 2 3;
#X connect 5 0 2 2;
#X connect 6 0 4 0;
#X connect 7 0 5 0;
#X connect 8 0 2 1;
#X connect 10 0 6 0;
#X connect 10 0 7 0;
#X coords 0 -1 1 1 85 120 1 100 100;
#X restore 850 221 pd ophat_GUI;
#X obj 136 161 vradio 20 1 0 7 \$0-inst.select empty empty 0 -8 0 10
-262144 -1 -1 0;
#X text 120 134 INSTRUMENT SELECT;
#X text 167 163 KICK;
#X text 166 183 SNARE;
#X text 168 203 L.TOM;
#X text 168 223 H.TOM;
#X text 168 243 CLAP;
#X text 168 263 CL.HAT;
#X text 168 286 OP.HAT;
#X obj 165 403 bng 15 250 50 0 empty empty empty 17 7 0 10 -262144
-1 -1;
#X obj 239 242 knob 28 28 -10 200 0 0 empty empty TUNING -3 40 1 10
-262144 -1 -1 2300 1;
#X obj 239 293 knob 28 28 10 1000 0 1 empty empty ATK 4 37 1 10 -1
-1 -1 0 0;
#X obj 280 293 knob 28 28 5 2000 0 0 empty empty DECAY -2 37 1 10 -262144
-1 -1 2200 1;
#X msg 168 -11 1;
#X obj 280 242 knob 28 28 0 1 0 0 empty empty LVL 6 40 1 10 -262144
-1 -1 2700 1;
#X msg 203 -10 400;
#N canvas 402 125 1024 686 ---kick 0;
#X obj 262 46 bng 15 250 50 0 empty empty empty 17 7 0 10 -262144 -1
-1;
#X obj 262 72 t b b;
#X obj 289 167 vline~;
#X obj 1046 802;
#X obj 292 246 *~;
#X obj 25 294 vcf~ 70;
#X obj 25 326 *~ 35;
#X obj 84 325 *~ 35;
#X obj 142 326 *~ 35;
#X obj 223 410 *~;
#X obj 221 460 *~;
#X obj 218 506 dac~;
#X obj 261 8 inlet;
#X obj 144 245 +~ 46;
#X msg 289 108 1 1.2 0 \, 0 25 2;
#X obj 292 390 ead~;
#X obj 61 208 inlet;
#X obj 314 352 inlet;
#X obj 357 352 inlet;
#X obj 275 435 inlet;
#X obj 102 246 +~ 60;
#X obj 188 245 +~ 160;
#X obj 58 247 +~ 20;
#X obj 251 292 vcf~ 30;
#X obj 84 293 vcf~ 100;
#X obj 194 291 vcf~ 50;
#X obj 141 292 vcf~ 70;
#X obj 287 502 throw~;
#X obj 194 325 *~ 10;
#X obj 251 325 *~ 8;
#X text 289 477 comment;
#X obj 259 533 outlet~;
#X connect 0 0 1 0;
#X connect 1 0 15 0;
#X connect 1 1 14 0;
#X connect 2 0 4 0;
#X connect 2 0 4 1;
#X connect 4 0 5 0;
#X connect 4 0 23 0;
#X connect 4 0 24 0;
#X connect 4 0 25 0;
#X connect 4 0 26 0;
#X connect 5 0 6 0;
#X connect 6 0 9 0;
#X connect 7 0 9 0;
#X connect 8 0 9 0;
#X connect 9 0 10 0;
#X connect 10 0 11 0;
#X connect 10 0 11 1;
#X connect 10 0 27 0;
#X connect 10 0 31 0;
#X connect 12 0 0 0;
#X connect 13 0 26 1;
#X connect 14 0 2 0;
#X connect 15 0 9 1;
#X connect 16 0 13 0;
#X connect 16 0 20 0;
#X connect 16 0 21 0;
#X connect 16 0 22 0;
#X connect 17 0 15 1;
#X connect 18 0 15 2;
#X connect 19 0 10 1;
#X connect 20 0 24 1;
#X connect 21 0 25 1;
#X connect 22 0 5 1;
#X connect 23 0 29 0;
#X connect 24 0 7 0;
#X connect 25 0 28 0;
#X connect 26 0 8 0;
#X connect 28 0 9 0;
#X connect 29 0 9 0;
#X restore 230 417 pd ---kick;
#X msg 124 -7 100;
#X text 259 218 KICK;
#X obj 230 565 outlet~;
#N canvas 328 22 1044 695 snare2 0;
#X obj 316 54 bng 15 250 50 0 empty empty empty 17 7 0 10 -262144 -1
-1;
#X msg 316 80 bang;
#X obj 178 315 *~;
#X obj 255 329 *~;
#X obj 349 222 noise~;
#X obj 318 299 *~;
#X obj 383 342 *~;
#X obj 314 402 *~;
#X obj 316 26 inlet;
#X obj 367 299 hip~ 400;
#X obj 349 251 lop~ 400;
#X obj 219 110 f;
#X obj 288 191 f;
#X obj 311 453 dac~;
#X obj 193 214 ead~;
#X obj 268 223 ead~;
#X obj 336 194 ead~;
#X obj 461 184 ead~;
#X obj 394 117 / 2.2;
#X text 219 49 attack;
#X obj 178 288 osc~ 330;
#X obj 255 296 osc~ 180;
#X obj 378 383 inlet;
#X obj 219 74 inlet;
#X obj 455 93 inlet;
#X text 458 67 decay;
#X obj 178 343 *~ 0.6;
#X obj 255 356 *~ 0.7;
#X obj 319 344 *~ 0.5;
#X obj 379 420 throw~;
#X obj 259 511 outlet~;
#X connect 0 0 1 0;
#X connect 1 0 11 0;
#X connect 1 0 14 0;
#X connect 1 0 15 0;
#X connect 1 0 16 0;
#X connect 1 0 17 0;
#X connect 2 0 26 0;
#X connect 3 0 27 0;
#X connect 4 0 10 0;
#X connect 5 0 28 0;
#X connect 6 0 7 0;
#X connect 7 0 13 0;
#X connect 7 0 13 1;
#X connect 7 0 29 0;
#X connect 7 0 30 0;
#X connect 8 0 0 0;
#X connect 9 0 6 0;
#X connect 10 0 5 0;
#X connect 10 0 9 0;
#X connect 11 0 14 1;
#X connect 11 0 15 1;
#X connect 11 0 16 1;
#X connect 11 0 17 1;
#X connect 12 0 15 2;
#X connect 12 0 14 2;
#X connect 14 0 2 1;
#X connect 15 0 3 1;
#X connect 16 0 5 1;
#X connect 17 0 6 1;
#X connect 18 0 12 0;
#X connect 20 0 2 0;
#X connect 21 0 3 0;
#X connect 22 0 7 1;
#X connect 23 0 11 0;
#X connect 24 0 18 0;
#X connect 24 0 17 2;
#X connect 24 0 16 2;
#X connect 26 0 7 0;
#X connect 27 0 7 0;
#X connect 28 0 7 0;
#X restore 406 455 pd snare2;
#X obj 342 291 knob 28 28 10 100 0 0 empty empty ATK 4 37 1 10 -262144
-1 -1 0 1;
#X obj 381 291 knob 28 28 200 1000 0 0 empty empty DECAY -2 37 1 10
-262144 -1 -1 169 1;
#X obj 384 442 bng 15 250 50 0 empty empty empty 17 7 0 10 -262144
-1 -1;
#X obj 383 413 r channel2;
#X obj 378 240 knob 28 28 0 1 0 0 empty empty LVL 6 40 1 10 -262144
-1 -1 2700 1;
#X msg 240 -11 1;
#X text 359 217 SNARE;
#X msg 274 -10 250;
#X obj 123 -60 loadbang;
#X obj 345 547 outlet~;
#N canvas 710 22 450 300 rhthym 0;
#N canvas 357 409 1224 665 markovchain 0;
#X obj 73 78 f 1;
#X obj 112 40 r state;
#X floatatom 160 68 5 0 0 0 - - -;
#X obj 72 44 bng 15 250 50 0 empty empty empty 17 7 0 10 -262144 -1
-1;
#X obj 18 178 bng 15 250 50 0 empty empty empty 17 7 0 10 -262144 -1
-1;
#X obj 18 198 random 100;
#X obj 18 249 bng 15 250 50 0 empty empty empty 17 7 0 10 -262144 -1
-1;
#X obj 73 248 bng 15 250 50 0 empty empty empty 17 7 0 10 -262144 -1
-1;
#X obj 128 248 bng 15 250 50 0 empty empty empty 17 7 0 10 -262144
-1 -1;
#X obj 183 248 bng 15 250 50 0 empty empty empty 17 7 0 10 -262144
-1 -1;
#X obj 238 249 bng 15 250 50 0 empty empty empty 17 7 0 10 -262144
-1 -1;
#X obj 293 248 bng 15 250 50 0 empty empty empty 17 7 0 10 -262144
-1 -1;
#X obj 338 248 bng 15 250 50 0 empty empty empty 17 7 0 10 -262144
-1 -1;
#X msg 128 268 0;
#X obj 112 76 + 1;
#X msg 238 269 11;
#X msg 73 268 5;
#X msg 18 269 7;
#X msg 183 268 2;
#X msg 293 269 4;
#X msg 338 268 9;
#X obj 18 293 s state;
#X obj 438 180 bng 15 250 50 0 empty empty empty 17 7 0 10 -262144
-1 -1;
#X obj 438 200 random 100;
#X obj 379 248 bng 15 250 50 0 empty empty empty 17 7 0 10 -262144
-1 -1;
#X obj 438 247 bng 15 250 50 0 empty empty empty 17 7 0 10 -262144
-1 -1;
#X obj 493 247 bng 15 250 50 0 empty empty empty 17 7 0 10 -262144
-1 -1;
#X obj 548 247 bng 15 250 50 0 empty empty empty 17 7 0 10 -262144
-1 -1;
#X obj 603 248 bng 15 250 50 0 empty empty empty 17 7 0 10 -262144
-1 -1;
#X obj 658 247 bng 15 250 50 0 empty empty empty 17 7 0 10 -262144
-1 -1;
#X obj 703 247 bng 15 250 50 0 empty empty empty 17 7 0 10 -262144
-1 -1;
#X msg 379 268 7;
#X obj 383 292 s state;
#X msg 438 267 9;
#X msg 493 267 2;
#X msg 548 267 5;
#X msg 603 268 4;
#X msg 658 268 11;
#X msg 703 267 0;
#X obj 14 330 bng 15 250 50 0 empty empty empty 17 7 0 10 -262144 -1
-1;
#X obj 14 350 random 100;
#X obj 14 405 bng 15 250 50 0 empty empty empty 17 7 0 10 -262144 -1
-1;
#X obj 69 404 bng 15 250 50 0 empty empty empty 17 7 0 10 -262144 -1
-1;
#X obj 124 404 bng 15 250 50 0 empty empty empty 17 7 0 10 -262144
-1 -1;
#X obj 179 404 bng 15 250 50 0 empty empty empty 17 7 0 10 -262144
-1 -1;
#X obj 234 405 bng 15 250 50 0 empty empty empty 17 7 0 10 -262144
-1 -1;
#X obj 289 404 bng 15 250 50 0 empty empty empty 17 7 0 10 -262144
-1 -1;
#X obj 334 404 bng 15 250 50 0 empty empty empty 17 7 0 10 -262144
-1 -1;
#X obj 14 449 s state;
#X msg 334 424 0;
#X msg 14 425 9;
#X msg 69 424 11;
#X msg 124 424 4;
#X msg 179 424 7;
#X msg 234 425 5;
#X msg 289 425 2;
#X obj 441 324 bng 15 250 50 0 empty empty empty 17 7 0 10 -262144
-1 -1;
#X obj 441 344 random 100;
#X obj 386 396 bng 15 250 50 0 empty empty empty 17 7 0 10 -262144
-1 -1;
#X obj 441 395 bng 15 250 50 0 empty empty empty 17 7 0 10 -262144
-1 -1;
#X obj 496 395 bng 15 250 50 0 empty empty empty 17 7 0 10 -262144
-1 -1;
#X obj 551 395 bng 15 250 50 0 empty empty empty 17 7 0 10 -262144
-1 -1;
#X obj 606 396 bng 15 250 50 0 empty empty empty 17 7 0 10 -262144
-1 -1;
#X obj 664 395 bng 15 250 50 0 empty empty empty 17 7 0 10 -262144
-1 -1;
#X obj 709 395 bng 15 250 50 0 empty empty empty 17 7 0 10 -262144
-1 -1;
#X obj 386 441 s state;
#X msg 664 416 2;
#X msg 386 416 11;
#X msg 441 415 0;
#X msg 496 415 5;
#X msg 551 415 9;
#X msg 606 416 7;
#X msg 709 415 4;
#X obj 446 473 bng 15 250 50 0 empty empty empty 17 7 0 10 -262144
-1 -1;
#X obj 446 493 random 100;
#X text 557 516 comment;
#X obj 391 542 bng 15 250 50 0 empty empty empty 17 7 0 10 -262144
-1 -1;
#X obj 446 541 bng 15 250 50 0 empty empty empty 17 7 0 10 -262144
-1 -1;
#X obj 501 541 bng 15 250 50 0 empty empty empty 17 7 0 10 -262144
-1 -1;
#X obj 556 541 bng 15 250 50 0 empty empty empty 17 7 0 10 -262144
-1 -1;
#X obj 611 542 bng 15 250 50 0 empty empty empty 17 7 0 10 -262144
-1 -1;
#X obj 666 541 bng 15 250 50 0 empty empty empty 17 7 0 10 -262144
-1 -1;
#X obj 711 541 bng 15 250 50 0 empty empty empty 17 7 0 10 -262144
-1 -1;
#X obj 391 586 s state;
#X msg 391 562 2;
#X msg 446 561 4;
#X msg 501 561 9;
#X msg 556 561 0;
#X msg 611 562 11;
#X msg 666 562 7;
#X msg 711 561 5;
#X obj 206 92 outlet;
#X obj 73 471 bng 15 250 50 0 empty empty empty 17 7 0 10 -262144 -1
-1;
#X obj 73 491 random 100;
#X obj 18 536 bng 15 250 50 0 empty empty empty 17 7 0 10 -262144 -1
-1;
#X obj 73 535 bng 15 250 50 0 empty empty empty 17 7 0 10 -262144 -1
-1;
#X obj 128 535 bng 15 250 50 0 empty empty empty 17 7 0 10 -262144
-1 -1;
#X obj 183 535 bng 15 250 50 0 empty empty empty 17 7 0 10 -262144
-1 -1;
#X obj 238 536 bng 15 250 50 0 empty empty empty 17 7 0 10 -262144
-1 -1;
#X obj 293 535 bng 15 250 50 0 empty empty empty 17 7 0 10 -262144
-1 -1;
#X obj 338 535 bng 15 250 50 0 empty empty empty 17 7 0 10 -262144
-1 -1;
#X obj 18 580 s state;
#X msg 338 555 4;
#X msg 18 556 0;
#X msg 73 555 2;
#X msg 128 555 7;
#X msg 183 555 11;
#X msg 238 556 9;
#X msg 293 556 5;
#X obj 800 467 bng 15 250 50 0 empty empty empty 17 7 0 10 -262144
-1 -1;
#X obj 800 487 random 100;
#X obj 745 539 bng 15 250 50 0 empty empty empty 17 7 0 10 -262144
-1 -1;
#X obj 800 538 bng 15 250 50 0 empty empty empty 17 7 0 10 -262144
-1 -1;
#X obj 855 538 bng 15 250 50 0 empty empty empty 17 7 0 10 -262144
-1 -1;
#X obj 910 538 bng 15 250 50 0 empty empty empty 17 7 0 10 -262144
-1 -1;
#X obj 965 539 bng 15 250 50 0 empty empty empty 17 7 0 10 -262144
-1 -1;
#X obj 1020 538 bng 15 250 50 0 empty empty empty 17 7 0 10 -262144
-1 -1;
#X obj 1065 538 bng 15 250 50 0 empty empty empty 17 7 0 10 -262144
-1 -1;
#X obj 745 583 s state;
#X msg 745 559 4;
#X msg 855 558 11;
#X msg 910 558 2;
#X msg 1020 559 9;
#X msg 1065 558 7;
#X msg 800 558 0;
#X msg 965 559 5;
#X obj 72 142 sel 1 3 5 6 8 10 12;
#X obj 293 222 moses 95;
#X obj 238 222 moses 90;
#X obj 438 223 moses 60;
#X obj 496 222 moses 75;
#X obj 552 222 moses 85;
#X obj 607 222 moses 90;
#X obj 664 222 moses 95;
#X obj 14 379 moses 40;
#X obj 70 379 moses 60;
#X obj 125 379 moses 75;
#X obj 180 379 moses 85;
#X obj 235 379 moses 90;
#X obj 290 379 moses 95;
#X obj 606 366 moses 90;
#X obj 664 366 moses 95;
#X obj 18 513 moses 40;
#X obj 73 513 moses 60;
#X obj 391 515 moses 40;
#X obj 446 515 moses 60;
#X obj 501 515 moses 75;
#X obj 556 515 moses 85;
#X obj 611 515 moses 90;
#X obj 666 515 moses 95;
#X obj 745 509 moses 40;
#X obj 800 509 moses 60;
#X obj 855 509 moses 75;
#X obj 910 509 moses 85;
#X obj 965 509 moses 90;
#X obj 1020 509 moses 95;
#X obj 71 12 r counter;
#X obj 18 222 moses 35;
#X obj 73 222 moses 50;
#X obj 128 222 moses 70;
#X obj 183 222 moses 80;
#X obj 379 223 moses 25;
#X obj 72 110 spigot;
#X obj 145 110 inlet;
#X obj 386 366 moses 20;
#X obj 441 366 moses 35;
#X obj 496 366 moses 60;
#X obj 551 366 moses 70;
#X obj 183 513 moses 80;
#X obj 128 513 moses 70;
#X obj 293 513 moses 95;
#X obj 238 513 moses 85;
#X connect 0 0 162 0;
#X connect 1 0 2 0;
#X connect 1 0 14 0;
#X connect 2 0 91 0;
#X connect 3 0 0 0;
#X connect 4 0 5 0;
#X connect 5 0 157 0;
#X connect 6 0 17 0;
#X connect 7 0 16 0;
#X connect 8 0 13 0;
#X connect 9 0 18 0;
#X connect 10 0 15 0;
#X connect 11 0 19 0;
#X connect 12 0 20 0;
#X connect 13 0 21 0;
#X connect 14 0 0 1;
#X connect 15 0 21 0;
#X connect 16 0 21 0;
#X connect 17 0 21 0;
#X connect 18 0 21 0;
#X connect 19 0 21 0;
#X connect 20 0 21 0;
#X connect 22 0 23 0;
#X connect 23 0 161 0;
#X connect 24 0 31 0;
#X connect 25 0 33 0;
#X connect 26 0 34 0;
#X connect 27 0 35 0;
#X connect 28 0 36 0;
#X connect 29 0 37 0;
#X connect 30 0 38 0;
#X connect 31 0 32 0;
#X connect 33 0 32 0;
#X connect 34 0 32 0;
#X connect 35 0 32 0;
#X connect 36 0 32 0;
#X connect 37 0 32 0;
#X connect 38 0 32 0;
#X connect 39 0 40 0;
#X connect 40 0 134 0;
#X connect 41 0 50 0;
#X connect 42 0 51 0;
#X connect 43 0 52 0;
#X connect 44 0 53 0;
#X connect 45 0 54 0;
#X connect 46 0 55 0;
#X connect 47 0 49 0;
#X connect 49 0 48 0;
#X connect 50 0 48 0;
#X connect 51 0 48 0;
#X connect 52 0 48 0;
#X connect 53 0 48 0;
#X connect 54 0 48 0;
#X connect 55 0 48 0;
#X connect 56 0 57 0;
#X connect 57 0 164 0;
#X connect 58 0 67 0;
#X connect 59 0 68 0;
#X connect 60 0 69 0;
#X connect 61 0 70 0;
#X connect 62 0 71 0;
#X connect 63 0 66 0;
#X connect 64 0 72 0;
#X connect 66 0 65 0;
#X connect 67 0 65 0;
#X connect 68 0 65 0;
#X connect 69 0 65 0;
#X connect 70 0 65 0;
#X connect 71 0 65 0;
#X connect 72 0 65 0;
#X connect 73 0 74 0;
#X connect 74 0 144 0;
#X connect 76 0 84 0;
#X connect 77 0 85 0;
#X connect 78 0 86 0;
#X connect 79 0 87 0;
#X connect 80 0 88 0;
#X connect 81 0 89 0;
#X connect 82 0 90 0;
#X connect 84 0 83 0;
#X connect 85 0 83 0;
#X connect 86 0 83 0;
#X connect 87 0 83 0;
#X connect 88 0 83 0;
#X connect 89 0 83 0;
#X connect 90 0 83 0;
#X connect 92 0 93 0;
#X connect 93 0 142 0;
#X connect 94 0 103 0;
#X connect 95 0 104 0;
#X connect 96 0 105 0;
#X connect 97 0 106 0;
#X connect 98 0 107 0;
#X connect 99 0 108 0;
#X connect 100 0 102 0;
#X connect 102 0 101 0;
#X connect 103 0 101 0;
#X connect 104 0 101 0;
#X connect 105 0 101 0;
#X connect 106 0 101 0;
#X connect 107 0 101 0;
#X connect 108 0 101 0;
#X connect 109 0 110 0;
#X connect 110 0 150 0;
#X connect 111 0 119 0;
#X connect 112 0 124 0;
#X connect 113 0 120 0;
#X connect 114 0 121 0;
#X connect 115 0 125 0;
#X connect 116 0 122 0;
#X connect 117 0 123 0;
#X connect 119 0 118 0;
#X connect 120 0 118 0;
#X connect 121 0 118 0;
#X connect 122 0 118 0;
#X connect 123 0 118 0;
#X connect 124 0 118 0;
#X connect 125 0 118 0;
#X connect 126 0 4 0;
#X connect 126 1 22 0;
#X connect 126 2 39 0;
#X connect 126 3 56 0;
#X connect 126 4 92 0;
#X connect 126 5 73 0;
#X connect 126 6 109 0;
#X connect 127 0 11 0;
#X connect 127 1 12 0;
#X connect 128 0 10 0;
#X connect 128 1 127 0;
#X connect 129 0 25 0;
#X connect 129 1 130 0;
#X connect 130 0 26 0;
#X connect 130 1 131 0;
#X connect 131 0 27 0;
#X connect 131 1 132 0;
#X connect 132 0 28 0;
#X connect 132 1 133 0;
#X connect 133 0 29 0;
#X connect 133 1 30 0;
#X connect 134 0 41 0;
#X connect 134 1 135 0;
#X connect 135 0 42 0;
#X connect 135 1 136 0;
#X connect 136 0 43 0;
#X connect 136 1 137 0;
#X connect 137 0 44 0;
#X connect 137 1 138 0;
#X connect 138 0 45 0;
#X connect 138 1 139 0;
#X connect 139 0 46 0;
#X connect 139 1 47 0;
#X connect 140 0 62 0;
#X connect 140 1 141 0;
#X connect 141 0 63 0;
#X connect 141 1 64 0;
#X connect 142 0 94 0;
#X connect 142 1 143 0;
#X connect 143 0 95 0;
#X connect 143 1 169 0;
#X connect 144 0 76 0;
#X connect 144 1 145 0;
#X connect 145 0 77 0;
#X connect 145 1 146 0;
#X connect 146 0 78 0;
#X connect 146 1 147 0;
#X connect 147 0 79 0;
#X connect 147 1 148 0;
#X connect 148 0 80 0;
#X connect 148 1 149 0;
#X connect 149 0 81 0;
#X connect 149 1 82 0;
#X connect 150 0 111 0;
#X connect 150 1 151 0;
#X connect 151 0 112 0;
#X connect 151 1 152 0;
#X connect 152 0 113 0;
#X connect 152 1 153 0;
#X connect 153 0 114 0;
#X connect 153 1 154 0;
#X connect 154 0 115 0;
#X connect 154 1 155 0;
#X connect 155 0 116 0;
#X connect 155 1 117 0;
#X connect 156 0 3 0;
#X connect 157 0 6 0;
#X connect 157 1 158 0;
#X connect 158 0 7 0;
#X connect 158 1 159 0;
#X connect 159 0 8 0;
#X connect 159 1 160 0;
#X connect 160 0 9 0;
#X connect 160 1 128 0;
#X connect 161 0 24 0;
#X connect 161 1 129 0;
#X connect 162 0 126 0;
#X connect 163 0 162 1;
#X connect 164 0 58 0;
#X connect 164 1 165 0;
#X connect 165 0 59 0;
#X connect 165 1 166 0;
#X connect 166 0 60 0;
#X connect 166 1 167 0;
#X connect 167 0 61 0;
#X connect 167 1 140 0;
#X connect 168 0 97 0;
#X connect 168 1 171 0;
#X connect 169 0 96 0;
#X connect 169 1 168 0;
#X connect 170 0 99 0;
#X connect 170 1 100 0;
#X connect 171 0 98 0;
#X connect 171 1 170 0;
#X restore -202 210 pd markovchain;
#X text -162 0 receive a master tempo -> use a number as maximum amount
of quantisation -> use a separae modulo for each drum sound -->;
#X obj -206 84 r mastertempo;
#X obj -205 127 % 32;
#X connect 2 0 3 0;
#X restore 389 511 pd rhthym chain;
#N canvas 305 49 918 695 note-length 0;
#X msg -4057 -3437 2;
#X obj -4114 -3541 bng 15 250 50 0 empty empty empty 17 7 0 10 -262144
-1 -1;
#X obj -4117 -3467 bng 15 250 50 0 empty empty empty 17 7 0 10 -262144
-1 -1;
#X obj -4057 -3467 bng 15 250 50 0 empty empty empty 17 7 0 10 -262144
-1 -1;
#X obj -3996 -3462 bng 15 250 50 0 empty empty empty 17 7 0 10 -262144
-1 -1;
#X obj -4117 -3400 s mstate;
#X msg -3926 -3433 4;
#X msg -3866 -3433 2;
#X msg -3804 -3428 1;
#X obj -3923 -3540 bng 15 250 50 0 empty empty empty 17 7 0 10 -262144
-1 -1;
#X obj -3927 -3463 bng 15 250 50 0 empty empty empty 17 7 0 10 -262144
-1 -1;
#X obj -3866 -3463 bng 15 250 50 0 empty empty empty 17 7 0 10 -262144
-1 -1;
#X obj -3805 -3458 bng 15 250 50 0 empty empty empty 17 7 0 10 -262144
-1 -1;
#X obj -3926 -3400 s mstate;
#X obj -4087 -3638 r mstate;
#X obj -4115 -3638 bng 15 250 50 0 empty empty empty 17 7 0 10 -262144
-1 -1;
#X obj -4114 -3605 f 1;
#X floatatom -4087 -3606 5 0 0 0 - - -;
#X msg -3741 -3432 4;
#X obj -3738 -3539 bng 15 250 50 0 empty empty empty 17 7 0 10 -262144
-1 -1;
#X obj -3742 -3462 bng 15 250 50 0 empty empty empty 17 7 0 10 -262144
-1 -1;
#X obj -3681 -3462 bng 15 250 50 0 empty empty empty 17 7 0 10 -262144
-1 -1;
#X obj -3620 -3457 bng 15 250 50 0 empty empty empty 17 7 0 10 -262144
-1 -1;
#X obj -3741 -3399 s mstate;
#X obj -4114 -3519 random 100;
#X obj -3923 -3515 random 100;
#X obj -3805 -3489 moses 90;
#X msg -4117 -3436 1;
#X msg -3995 -3432 4;
#X obj -4117 -3494 moses 10;
#X obj -4057 -3494 moses 80;
#X obj -3996 -3493 moses 100;
#X obj -4114 -3573 sel 1 2 4;
#X obj -3738 -3514 random 100;
#X obj -3741 -3489 moses 10;
#X obj -3620 -3488 moses 90;
#X obj -3926 -3490 moses 10;
#X obj -4077 -3997 r count;
#X floatatom -4077 -3946 5 0 0 0 - - -;
#X msg -3681 -3432 2;
#X msg -3619 -3427 1;
#X obj -4108 -3845 spigot;
#X obj -4108 -3874 r bang;
#X obj -3681 -3489 moses 40;
#X obj -3806 -3875 spigot;
#X obj -3806 -3903 r bang;
#X obj -3806 -3844 bng 15 250 50 0 empty empty empty 17 7 0 10 -262144
-1 -1;
#X obj -3866 -3490 moses 70;
#X msg -4117 -3949 0;
#X obj -3771 -3932 > 64;
#X obj -4077 -3916 < 64;
#X msg -3749 -3647 2;
#X obj -3806 -3751 bng 15 250 50 0 empty empty empty 17 7 0 10 -262144
-1 -1;
#X obj -3809 -3677 bng 15 250 50 0 empty empty empty 17 7 0 10 -262144
-1 -1;
#X obj -3749 -3677 bng 15 250 50 0 empty empty empty 17 7 0 10 -262144
-1 -1;
#X obj -3688 -3672 bng 15 250 50 0 empty empty empty 17 7 0 10 -262144
-1 -1;
#X msg -3609 -3643 4;
#X msg -3549 -3643 2;
#X msg -3487 -3638 1;
#X obj -3606 -3750 bng 15 250 50 0 empty empty empty 17 7 0 10 -262144
-1 -1;
#X obj -3610 -3673 bng 15 250 50 0 empty empty empty 17 7 0 10 -262144
-1 -1;
#X obj -3549 -3673 bng 15 250 50 0 empty empty empty 17 7 0 10 -262144
-1 -1;
#X obj -3488 -3668 bng 15 250 50 0 empty empty empty 17 7 0 10 -262144
-1 -1;
#X msg -3424 -3642 4;
#X msg -3364 -3642 2;
#X msg -3302 -3637 1;
#X obj -3421 -3749 bng 15 250 50 0 empty empty empty 17 7 0 10 -262144
-1 -1;
#X obj -3425 -3672 bng 15 250 50 0 empty empty empty 17 7 0 10 -262144
-1 -1;
#X obj -3364 -3672 bng 15 250 50 0 empty empty empty 17 7 0 10 -262144
-1 -1;
#X obj -3303 -3667 bng 15 250 50 0 empty empty empty 17 7 0 10 -262144
-1 -1;
#X obj -3806 -3729 random 100;
#X obj -3606 -3725 random 100;
#X obj -3488 -3699 moses 90;
#X msg -3809 -3646 1;
#X msg -3687 -3642 4;
#X obj -3809 -3704 moses 10;
#X obj -3688 -3703 moses 100;
#X obj -3806 -3789 sel 1 2 4;
#X obj -3421 -3724 random 100;
#X obj -3424 -3699 moses 10;
#X obj -3303 -3698 moses 90;
#X obj -3609 -3700 moses 10;
#X obj -3549 -3700 moses 85;
#X obj -3364 -3699 moses 60;
#X obj -3806 -3816 f 1;
#X floatatom -3779 -3817 5 0 0 0 - - -;
#X obj -3779 -3849 r mstate2;
#X obj -3809 -3610 s mstate2;
#X obj -3609 -3610 s mstate2;
#X obj -3424 -3609 s mstate2;
#X obj -3749 -3704 moses 90;
#X obj -4077 -3972 count 64;
#X connect 0 0 5 0;
#X connect 1 0 24 0;
#X connect 2 0 27 0;
#X connect 3 0 0 0;
#X connect 4 0 28 0;
#X connect 6 0 13 0;
#X connect 7 0 13 0;
#X connect 8 0 13 0;
#X connect 9 0 25 0;
#X connect 10 0 6 0;
#X connect 11 0 7 0;
#X connect 12 0 8 0;
#X connect 14 0 17 0;
#X connect 14 0 16 1;
#X connect 15 0 16 0;
#X connect 16 0 32 0;
#X connect 18 0 23 0;
#X connect 19 0 33 0;
#X connect 20 0 18 0;
#X connect 21 0 39 0;
#X connect 22 0 40 0;
#X connect 24 0 29 0;
#X connect 25 0 36 0;
#X connect 26 0 12 0;
#X connect 27 0 5 0;
#X connect 28 0 5 0;
#X connect 29 0 2 0;
#X connect 29 1 30 0;
#X connect 30 0 3 0;
#X connect 30 1 31 0;
#X connect 31 0 4 0;
#X connect 32 0 1 0;
#X connect 32 1 9 0;
#X connect 32 2 19 0;
#X connect 33 0 34 0;
#X connect 34 0 20 0;
#X connect 34 1 43 0;
#X connect 35 0 22 0;
#X connect 36 0 10 0;
#X connect 36 1 47 0;
#X connect 37 0 91 0;
#X connect 38 0 49 0;
#X connect 38 0 50 0;
#X connect 39 0 23 0;
#X connect 40 0 23 0;
#X connect 41 0 15 0;
#X connect 42 0 41 0;
#X connect 43 0 21 0;
#X connect 43 1 35 0;
#X connect 44 0 46 0;
#X connect 45 0 44 0;
#X connect 46 0 84 0;
#X connect 47 0 11 0;
#X connect 47 1 26 0;
#X connect 48 0 38 0;
#X connect 49 0 44 1;
#X connect 50 0 41 1;
#X connect 51 0 87 0;
#X connect 52 0 70 0;
#X connect 53 0 73 0;
#X connect 54 0 51 0;
#X connect 55 0 74 0;
#X connect 56 0 88 0;
#X connect 57 0 88 0;
#X connect 58 0 88 0;
#X connect 59 0 71 0;
#X connect 60 0 56 0;
#X connect 61 0 57 0;
#X connect 62 0 58 0;
#X connect 63 0 89 0;
#X connect 64 0 89 0;
#X connect 65 0 89 0;
#X connect 66 0 78 0;
#X connect 67 0 63 0;
#X connect 68 0 64 0;
#X connect 69 0 65 0;
#X connect 70 0 75 0;
#X connect 71 0 81 0;
#X connect 72 0 62 0;
#X connect 73 0 87 0;
#X connect 74 0 87 0;
#X connect 75 0 53 0;
#X connect 75 1 90 0;
#X connect 76 0 55 0;
#X connect 77 0 52 0;
#X connect 77 1 59 0;
#X connect 77 2 66 0;
#X connect 78 0 79 0;
#X connect 79 0 67 0;
#X connect 79 1 83 0;
#X connect 80 0 69 0;
#X connect 81 0 60 0;
#X connect 81 1 82 0;
#X connect 82 0 61 0;
#X connect 82 1 72 0;
#X connect 83 0 68 0;
#X connect 83 1 80 0;
#X connect 84 0 77 0;
#X connect 86 0 85 0;
#X connect 86 0 84 1;
#X connect 90 0 54 0;
#X connect 90 1 76 0;
#X connect 91 0 38 0;
#X restore 242 481 pd note-length chain;
#X obj 155 374 r channel1;
#X connect 16 0 23 1;
#X connect 17 0 23 0;
#X connect 18 0 23 3;
#X connect 19 0 23 4;
#X connect 20 0 21 0;
#X connect 21 0 23 2;
#X connect 22 0 19 0;
#X connect 23 0 26 0;
#X connect 24 0 17 0;
#X connect 27 0 37 0;
#X connect 28 0 27 0;
#X connect 29 0 27 3;
#X connect 30 0 27 1;
#X connect 31 0 30 0;
#X connect 32 0 27 2;
#X connect 33 0 32 0;
#X connect 35 0 29 0;
#X connect 36 0 24 0;
#X connect 36 0 20 0;
#X connect 36 0 22 0;
#X connect 36 0 33 0;
#X connect 36 0 35 0;
#X connect 40 0 16 0;
#X coords 0 -1 1 1 1000 260 1 100 100;
#X restore 39 -4996 pd drums2;
#X coords 0 643 1 642 100 60 0;
