#N canvas 31 51 949 660 10;
#X obj 335 -1465 tgl 15 0 empty empty empty 17 7 0 10 -262144 -1 -1
1 1;
#X obj 334 -1408 bng 15 250 50 0 empty empty empty 17 7 0 10 -262144
-1 -1;
#X obj 334 -1382 s rcount;
#X obj 334 -1433 metro;
#X obj 518 -1451 r rcount;
#X msg -136 -1499 \; pd dsp 1;
#X obj -135 -1529 tgl 15 0 empty empty empty 17 7 0 10 -262144 -1 -1
1 1;
#X obj -26 -1510 bng 15 250 50 0 empty empty empty 17 7 0 10 -262144
-1 -1;
#X obj -26 -1485 count 12;
#X obj 18 -1422 r state2;
#X obj 2 -1272 r C arp;
#X obj 75 -1273 r D arp;
#X obj 148 -1275 r E arp;
#X obj 217 -1275 r F arp;
#X obj 290 -1276 r G arp;
#X obj 369 -1276 r A arp;
#X obj 449 -1280 r B arp;
#N canvas 361 79 675 424 C 0;
#X obj -8463 -4056 bng 15 250 50 0 empty empty empty 17 7 0 10 -262144
-1 -1;
#X obj -8464 -4027 random 100;
#X obj -8465 -3979 bng 15 250 50 0 empty empty empty 17 7 0 10 -262144
-1 -1;
#X obj -8405 -3977 bng 15 250 50 0 empty empty empty 17 7 0 10 -262144
-1 -1;
#X obj -8350 -3977 bng 15 250 50 0 empty empty empty 17 7 0 10 -262144
-1 -1;
#X obj -8295 -3977 bng 15 250 50 0 empty empty empty 17 7 0 10 -262144
-1 -1;
#X obj -8240 -3976 bng 15 250 50 0 empty empty empty 17 7 0 10 -262144
-1 -1;
#X obj -8185 -3977 bng 15 250 50 0 empty empty empty 17 7 0 10 -262144
-1 -1;
#X msg -8405 -3957 2;
#X msg -8465 -3958 1;
#X msg -8349 -3957 3;
#X msg -8295 -3957 4;
#X msg -8240 -3956 5;
#X msg -8185 -3954 6;
#X obj -8121 -3977 bng 15 250 50 0 empty empty empty 17 7 0 10 -262144
-1 -1;
#X msg -8121 -3953 7;
#X msg -8076 -3953 8;
#X obj -8076 -3979 bng 15 250 50 0 empty empty empty 17 7 0 10 -262144
-1 -1;
#X obj -8051 -3934 s state2;
#X obj -8464 -3895 s C arp;
#X obj -8404 -3896 s D arp;
#X obj -8349 -3897 s E arp;
#X obj -8291 -3896 s F arp;
#X obj -8234 -3898 s G arp;
#X obj -8180 -3899 s A arp;
#X obj -8120 -3901 s B arp;
#X obj -8065 -3897 s C2 arp;
#X obj -8462 -4092 inlet;
#X obj -8465 -4002 moses 0;
#X obj -8405 -4003 moses 0;
#X obj -8350 -4003 moses 25;
#X obj -8295 -4003 moses 30;
#X obj -8240 -4003 moses 35;
#X obj -8121 -4003 moses 100;
#X obj -8185 -4003 moses 100;
#X connect 0 0 1 0;
#X connect 1 0 28 0;
#X connect 2 0 9 0;
#X connect 3 0 8 0;
#X connect 4 0 10 0;
#X connect 5 0 11 0;
#X connect 6 0 12 0;
#X connect 7 0 13 0;
#X connect 8 0 18 0;
#X connect 8 0 20 0;
#X connect 9 0 18 0;
#X connect 9 0 19 0;
#X connect 10 0 18 0;
#X connect 10 0 21 0;
#X connect 11 0 18 0;
#X connect 11 0 22 0;
#X connect 12 0 18 0;
#X connect 12 0 23 0;
#X connect 13 0 18 0;
#X connect 13 0 24 0;
#X connect 14 0 15 0;
#X connect 15 0 18 0;
#X connect 15 0 25 0;
#X connect 16 0 18 0;
#X connect 16 0 26 0;
#X connect 17 0 16 0;
#X connect 27 0 0 0;
#X connect 28 0 2 0;
#X connect 28 1 29 0;
#X connect 29 0 3 0;
#X connect 29 1 30 0;
#X connect 30 0 4 0;
#X connect 30 1 31 0;
#X connect 31 0 5 0;
#X connect 31 1 32 0;
#X connect 32 0 6 0;
#X connect 32 1 34 0;
#X connect 33 0 14 0;
#X connect 33 1 17 0;
#X connect 34 0 7 0;
#X connect 34 1 33 0;
#X restore 2 -1308 pd C chain;
#N canvas 502 159 577 331 D 0;
#X obj -8588 -4194 bng 15 250 50 0 empty empty empty 17 7 0 10 -262144
-1 -1;
#X obj -8589 -4165 random 100;
#X obj -8571 -4117 bng 15 250 50 0 empty empty empty 17 7 0 10 -262144
-1 -1;
#X obj -8530 -4115 bng 15 250 50 0 empty empty empty 17 7 0 10 -262144
-1 -1;
#X obj -8475 -4115 bng 15 250 50 0 empty empty empty 17 7 0 10 -262144
-1 -1;
#X obj -8420 -4115 bng 15 250 50 0 empty empty empty 17 7 0 10 -262144
-1 -1;
#X obj -8365 -4114 bng 15 250 50 0 empty empty empty 17 7 0 10 -262144
-1 -1;
#X obj -8310 -4115 bng 15 250 50 0 empty empty empty 17 7 0 10 -262144
-1 -1;
#X msg -8530 -4095 2;
#X msg -8571 -4096 1;
#X msg -8475 -4095 3;
#X msg -8420 -4095 4;
#X msg -8365 -4094 5;
#X msg -8310 -4091 6;
#X obj -8247 -4115 bng 15 250 50 0 empty empty empty 17 7 0 10 -262144
-1 -1;
#X msg -8247 -4091 7;
#X msg -8202 -4091 8;
#X obj -8202 -4117 bng 15 250 50 0 empty empty empty 17 7 0 10 -262144
-1 -1;
#X obj -8176 -4072 s state2;
#X obj -8587 -4040 s C arp;
#X obj -8531 -4038 s D arp;
#X obj -8476 -4039 s E arp;
#X obj -8420 -4038 s F arp;
#X obj -8362 -4037 s G arp;
#X obj -8305 -4037 s A arp;
#X obj -8247 -4037 s B arp;
#X obj -8192 -4036 s C2 arp;
#X obj -8587 -4230 inlet;
#X obj -8588 -4139 moses 0;
#X obj -8530 -4141 moses 0;
#X obj -8475 -4141 moses 0;
#X obj -8420 -4141 moses 0;
#X obj -8365 -4141 moses 50;
#X obj -8247 -4141 moses 100;
#X obj -8310 -4141 moses;
#X connect 0 0 1 0;
#X connect 1 0 28 0;
#X connect 2 0 9 0;
#X connect 3 0 8 0;
#X connect 4 0 10 0;
#X connect 5 0 11 0;
#X connect 6 0 12 0;
#X connect 7 0 13 0;
#X connect 8 0 18 0;
#X connect 8 0 20 0;
#X connect 9 0 18 0;
#X connect 9 0 19 0;
#X connect 10 0 18 0;
#X connect 10 0 21 0;
#X connect 11 0 18 0;
#X connect 11 0 22 0;
#X connect 12 0 18 0;
#X connect 12 0 23 0;
#X connect 13 0 18 0;
#X connect 13 0 24 0;
#X connect 14 0 15 0;
#X connect 15 0 18 0;
#X connect 15 0 25 0;
#X connect 16 0 18 0;
#X connect 16 0 26 0;
#X connect 17 0 16 0;
#X connect 27 0 0 0;
#X connect 28 0 2 0;
#X connect 28 1 29 0;
#X connect 29 0 3 0;
#X connect 29 1 30 0;
#X connect 30 0 4 0;
#X connect 30 1 31 0;
#X connect 31 0 5 0;
#X connect 31 1 32 0;
#X connect 32 0 6 0;
#X connect 32 1 34 0;
#X connect 33 0 14 0;
#X connect 33 1 17 0;
#X connect 34 0 7 0;
#X connect 34 1 33 0;
#X restore 76 -1309 pd D chain;
#X obj 2 -1333 bng 15 250 50 0 empty empty empty 17 7 0 10 -262144
-1 -1;
#X obj 76 -1331 bng 15 250 50 0 empty empty empty 17 7 0 10 -262144
-1 -1;
#X obj 148 -1333 bng 15 250 50 0 empty empty empty 17 7 0 10 -262144
-1 -1;
#X obj 223 -1333 bng 15 250 50 0 empty empty empty 17 7 0 10 -262144
-1 -1;
#X obj 377 -1333 bng 15 250 50 0 empty empty empty 17 7 0 10 -262144
-1 -1;
#X obj 299 -1334 bng 15 250 50 0 empty empty empty 17 7 0 10 -262144
-1 -1;
#X obj 452 -1333 bng 15 250 50 0 empty empty empty 17 7 0 10 -262144
-1 -1;
#N canvas 14 72 577 331 E 0;
#X obj -8588 -4194 bng 15 250 50 0 empty empty empty 17 7 0 10 -262144
-1 -1;
#X obj -8589 -4165 random 100;
#X obj -8571 -4117 bng 15 250 50 0 empty empty empty 17 7 0 10 -262144
-1 -1;
#X obj -8530 -4115 bng 15 250 50 0 empty empty empty 17 7 0 10 -262144
-1 -1;
#X obj -8475 -4115 bng 15 250 50 0 empty empty empty 17 7 0 10 -262144
-1 -1;
#X obj -8420 -4115 bng 15 250 50 0 empty empty empty 17 7 0 10 -262144
-1 -1;
#X obj -8365 -4114 bng 15 250 50 0 empty empty empty 17 7 0 10 -262144
-1 -1;
#X obj -8310 -4115 bng 15 250 50 0 empty empty empty 17 7 0 10 -262144
-1 -1;
#X msg -8530 -4095 2;
#X msg -8571 -4096 1;
#X msg -8475 -4095 3;
#X msg -8420 -4095 4;
#X msg -8365 -4094 5;
#X msg -8310 -4091 6;
#X obj -8253 -4115 bng 15 250 50 0 empty empty empty 17 7 0 10 -262144
-1 -1;
#X msg -8253 -4091 7;
#X msg -8208 -4091 8;
#X obj -8208 -4117 bng 15 250 50 0 empty empty empty 17 7 0 10 -262144
-1 -1;
#X obj -8176 -4072 s state2;
#X obj -8592 -4038 s C arp;
#X obj -8533 -4038 s D arp;
#X obj -8469 -4038 s E arp;
#X obj -8410 -4038 s F arp;
#X obj -8347 -4038 s G arp;
#X obj -8288 -4038 s A arp;
#X obj -8224 -4038 s B arp;
#X obj -8165 -4038 s C2 arp;
#X obj -8587 -4230 inlet;
#X obj -8253 -4141 moses 100;
#X obj -8590 -4140 moses 0;
#X obj -8530 -4141 moses 0;
#X obj -8475 -4141 moses 0;
#X obj -8420 -4141 moses 0;
#X obj -8365 -4141 moses 0;
#X obj -8310 -4141 moses 100;
#X connect 0 0 1 0;
#X connect 1 0 29 0;
#X connect 2 0 9 0;
#X connect 3 0 8 0;
#X connect 4 0 10 0;
#X connect 5 0 11 0;
#X connect 6 0 12 0;
#X connect 7 0 13 0;
#X connect 8 0 18 0;
#X connect 8 0 20 0;
#X connect 9 0 18 0;
#X connect 9 0 19 0;
#X connect 10 0 18 0;
#X connect 10 0 21 0;
#X connect 11 0 18 0;
#X connect 11 0 22 0;
#X connect 12 0 18 0;
#X connect 12 0 23 0;
#X connect 13 0 18 0;
#X connect 13 0 24 0;
#X connect 14 0 15 0;
#X connect 15 0 18 0;
#X connect 15 0 25 0;
#X connect 16 0 18 0;
#X connect 16 0 26 0;
#X connect 17 0 16 0;
#X connect 27 0 0 0;
#X connect 28 0 14 0;
#X connect 28 1 17 0;
#X connect 29 0 2 0;
#X connect 29 1 30 0;
#X connect 30 0 3 0;
#X connect 30 1 31 0;
#X connect 31 0 4 0;
#X connect 31 1 32 0;
#X connect 32 0 5 0;
#X connect 32 1 33 0;
#X connect 33 0 6 0;
#X connect 33 1 34 0;
#X connect 34 0 7 0;
#X connect 34 1 28 0;
#X restore 148 -1310 pd E chain;
#N canvas 500 191 577 331 F 0;
#X obj -8588 -4194 bng 15 250 50 0 empty empty empty 17 7 0 10 -262144
-1 -1;
#X obj -8589 -4165 random 100;
#X obj -8571 -4117 bng 15 250 50 0 empty empty empty 17 7 0 10 -262144
-1 -1;
#X obj -8530 -4115 bng 15 250 50 0 empty empty empty 17 7 0 10 -262144
-1 -1;
#X obj -8475 -4115 bng 15 250 50 0 empty empty empty 17 7 0 10 -262144
-1 -1;
#X obj -8420 -4115 bng 15 250 50 0 empty empty empty 17 7 0 10 -262144
-1 -1;
#X obj -8365 -4114 bng 15 250 50 0 empty empty empty 17 7 0 10 -262144
-1 -1;
#X obj -8310 -4115 bng 15 250 50 0 empty empty empty 17 7 0 10 -262144
-1 -1;
#X msg -8530 -4095 2;
#X msg -8571 -4096 1;
#X msg -8475 -4095 3;
#X msg -8420 -4095 4;
#X msg -8365 -4094 5;
#X msg -8310 -4091 6;
#X obj -8245 -4115 bng 15 250 50 0 empty empty empty 17 7 0 10 -262144
-1 -1;
#X msg -8245 -4091 7;
#X msg -8200 -4091 8;
#X obj -8200 -4117 bng 15 250 50 0 empty empty empty 17 7 0 10 -262144
-1 -1;
#X obj -8168 -4072 s state2;
#X obj -8592 -4038 s C arp;
#X obj -8533 -4038 s D arp;
#X obj -8469 -4038 s E arp;
#X obj -8410 -4038 s F arp;
#X obj -8347 -4038 s G arp;
#X obj -8288 -4038 s A arp;
#X obj -8216 -4038 s B arp;
#X obj -8157 -4038 s C2 arp;
#X obj -8587 -4230 inlet;
#X obj -8245 -4141 moses 90;
#X obj -8590 -4140 moses 25;
#X obj -8530 -4141 moses 50;
#X obj -8475 -4141 moses;
#X obj -8420 -4141 moses 75;
#X obj -8365 -4141 moses;
#X obj -8310 -4141 moses 100;
#X connect 0 0 1 0;
#X connect 1 0 29 0;
#X connect 2 0 9 0;
#X connect 3 0 8 0;
#X connect 4 0 10 0;
#X connect 5 0 11 0;
#X connect 6 0 12 0;
#X connect 7 0 13 0;
#X connect 8 0 18 0;
#X connect 8 0 20 0;
#X connect 9 0 18 0;
#X connect 9 0 19 0;
#X connect 10 0 18 0;
#X connect 10 0 21 0;
#X connect 11 0 18 0;
#X connect 11 0 22 0;
#X connect 12 0 18 0;
#X connect 12 0 23 0;
#X connect 13 0 18 0;
#X connect 13 0 24 0;
#X connect 14 0 15 0;
#X connect 15 0 18 0;
#X connect 15 0 25 0;
#X connect 16 0 18 0;
#X connect 16 0 26 0;
#X connect 17 0 16 0;
#X connect 27 0 0 0;
#X connect 28 0 14 0;
#X connect 28 1 17 0;
#X connect 29 0 2 0;
#X connect 29 1 30 0;
#X connect 30 0 3 0;
#X connect 30 1 31 0;
#X connect 31 0 4 0;
#X connect 31 1 32 0;
#X connect 32 0 5 0;
#X connect 32 1 33 0;
#X connect 33 0 6 0;
#X connect 33 1 34 0;
#X connect 34 0 7 0;
#X connect 34 1 28 0;
#X restore 223 -1309 pd F chain;
#N canvas 298 210 577 331 G 0;
#X obj -8588 -4194 bng 15 250 50 0 empty empty empty 17 7 0 10 -262144
-1 -1;
#X obj -8589 -4165 random 100;
#X obj -8571 -4117 bng 15 250 50 0 empty empty empty 17 7 0 10 -262144
-1 -1;
#X obj -8530 -4115 bng 15 250 50 0 empty empty empty 17 7 0 10 -262144
-1 -1;
#X obj -8475 -4115 bng 15 250 50 0 empty empty empty 17 7 0 10 -262144
-1 -1;
#X obj -8420 -4115 bng 15 250 50 0 empty empty empty 17 7 0 10 -262144
-1 -1;
#X obj -8365 -4114 bng 15 250 50 0 empty empty empty 17 7 0 10 -262144
-1 -1;
#X obj -8310 -4115 bng 15 250 50 0 empty empty empty 17 7 0 10 -262144
-1 -1;
#X msg -8530 -4095 2;
#X msg -8571 -4096 1;
#X msg -8475 -4095 3;
#X msg -8420 -4095 4;
#X msg -8365 -4094 5;
#X msg -8310 -4091 6;
#X obj -8253 -4115 bng 15 250 50 0 empty empty empty 17 7 0 10 -262144
-1 -1;
#X msg -8253 -4091 7;
#X msg -8208 -4091 8;
#X obj -8208 -4117 bng 15 250 50 0 empty empty empty 17 7 0 10 -262144
-1 -1;
#X obj -8176 -4072 s state2;
#X obj -8584 -4037 s C arp;
#X obj -8530 -4039 s D arp;
#X obj -8475 -4039 s E arp;
#X obj -8410 -4038 s F arp;
#X obj -8347 -4038 s G arp;
#X obj -8288 -4038 s A arp;
#X obj -8224 -4038 s B arp;
#X obj -8165 -4038 s C2 arp;
#X obj -8587 -4230 inlet;
#X obj -8253 -4141 moses 98;
#X obj -8590 -4140 moses 50;
#X obj -8530 -4141 moses;
#X obj -8475 -4141 moses;
#X obj -8310 -4141 moses 100;
#X obj -8420 -4141 moses;
#X obj -8365 -4141 moses;
#X connect 0 0 1 0;
#X connect 1 0 29 0;
#X connect 2 0 9 0;
#X connect 3 0 8 0;
#X connect 4 0 10 0;
#X connect 5 0 11 0;
#X connect 6 0 12 0;
#X connect 7 0 13 0;
#X connect 8 0 18 0;
#X connect 8 0 20 0;
#X connect 9 0 18 0;
#X connect 9 0 19 0;
#X connect 10 0 18 0;
#X connect 10 0 21 0;
#X connect 11 0 18 0;
#X connect 11 0 22 0;
#X connect 12 0 18 0;
#X connect 12 0 23 0;
#X connect 13 0 18 0;
#X connect 13 0 24 0;
#X connect 14 0 15 0;
#X connect 15 0 18 0;
#X connect 15 0 25 0;
#X connect 16 0 18 0;
#X connect 16 0 26 0;
#X connect 17 0 16 0;
#X connect 27 0 0 0;
#X connect 28 0 14 0;
#X connect 28 1 17 0;
#X connect 29 0 2 0;
#X connect 29 1 30 0;
#X connect 30 0 3 0;
#X connect 30 1 31 0;
#X connect 31 0 4 0;
#X connect 31 1 33 0;
#X connect 32 0 7 0;
#X connect 32 1 28 0;
#X connect 33 0 5 0;
#X connect 33 1 34 0;
#X connect 34 0 6 0;
#X connect 34 1 32 0;
#X restore 299 -1310 pd G chain;
#N canvas 237 79 577 331 A 0;
#X obj -8588 -4194 bng 15 250 50 0 empty empty empty 17 7 0 10 -262144
-1 -1;
#X obj -8589 -4165 random 100;
#X obj -8571 -4117 bng 15 250 50 0 empty empty empty 17 7 0 10 -262144
-1 -1;
#X obj -8530 -4115 bng 15 250 50 0 empty empty empty 17 7 0 10 -262144
-1 -1;
#X obj -8475 -4115 bng 15 250 50 0 empty empty empty 17 7 0 10 -262144
-1 -1;
#X obj -8420 -4115 bng 15 250 50 0 empty empty empty 17 7 0 10 -262144
-1 -1;
#X obj -8365 -4114 bng 15 250 50 0 empty empty empty 17 7 0 10 -262144
-1 -1;
#X obj -8310 -4115 bng 15 250 50 0 empty empty empty 17 7 0 10 -262144
-1 -1;
#X msg -8530 -4095 2;
#X msg -8571 -4096 1;
#X msg -8475 -4095 3;
#X msg -8420 -4095 4;
#X msg -8365 -4094 5;
#X msg -8310 -4091 6;
#X obj -8265 -4115 bng 15 250 50 0 empty empty empty 17 7 0 10 -262144
-1 -1;
#X msg -8259 -4090 7;
#X obj -8176 -4072 s state2;
#X obj -8592 -4038 s C arp;
#X obj -8533 -4038 s D arp;
#X obj -8469 -4038 s E arp;
#X obj -8410 -4038 s F arp;
#X obj -8348 -4038 s G arp;
#X obj -8292 -4037 s A arp;
#X obj -8230 -4037 s B arp;
#X obj -8587 -4230 inlet;
#X obj -8570 -4140 moses;
#X obj -8530 -4141 moses 50;
#X obj -8411 -4141 moses;
#X obj -8475 -4141 moses;
#X obj -8366 -4140 moses 100;
#X obj -8292 -4139 moses;
#X connect 0 0 1 0;
#X connect 1 0 25 0;
#X connect 2 0 9 0;
#X connect 3 0 8 0;
#X connect 4 0 10 0;
#X connect 5 0 11 0;
#X connect 6 0 12 0;
#X connect 7 0 13 0;
#X connect 8 0 16 0;
#X connect 8 0 18 0;
#X connect 9 0 16 0;
#X connect 9 0 17 0;
#X connect 10 0 16 0;
#X connect 10 0 19 0;
#X connect 11 0 16 0;
#X connect 11 0 20 0;
#X connect 12 0 16 0;
#X connect 12 0 21 0;
#X connect 13 0 16 0;
#X connect 13 0 22 0;
#X connect 14 0 15 0;
#X connect 15 0 16 0;
#X connect 15 0 23 0;
#X connect 24 0 0 0;
#X connect 25 0 2 0;
#X connect 25 1 26 0;
#X connect 26 0 3 0;
#X connect 26 1 28 0;
#X connect 27 0 5 0;
#X connect 27 1 29 0;
#X connect 28 0 4 0;
#X connect 28 1 27 0;
#X connect 29 0 6 0;
#X connect 29 1 30 0;
#X connect 30 0 7 0;
#X connect 30 1 14 0;
#X restore 377 -1311 pd A chain;
#N canvas 17 22 577 331 B 0;
#X obj -8588 -4194 bng 15 250 50 0 empty empty empty 17 7 0 10 -262144
-1 -1;
#X obj -8589 -4165 random 100;
#X obj -8571 -4117 bng 15 250 50 0 empty empty empty 17 7 0 10 -262144
-1 -1;
#X obj -8530 -4115 bng 15 250 50 0 empty empty empty 17 7 0 10 -262144
-1 -1;
#X obj -8475 -4115 bng 15 250 50 0 empty empty empty 17 7 0 10 -262144
-1 -1;
#X obj -8420 -4115 bng 15 250 50 0 empty empty empty 17 7 0 10 -262144
-1 -1;
#X obj -8365 -4114 bng 15 250 50 0 empty empty empty 17 7 0 10 -262144
-1 -1;
#X obj -8310 -4115 bng 15 250 50 0 empty empty empty 17 7 0 10 -262144
-1 -1;
#X msg -8530 -4095 2;
#X msg -8571 -4096 1;
#X msg -8475 -4095 3;
#X msg -8420 -4095 4;
#X msg -8365 -4094 5;
#X msg -8310 -4091 6;
#X obj -8253 -4115 bng 15 250 50 0 empty empty empty 17 7 0 10 -262144
-1 -1;
#X msg -8253 -4091 7;
#X msg -8208 -4091 8;
#X obj -8208 -4117 bng 15 250 50 0 empty empty empty 17 7 0 10 -262144
-1 -1;
#X obj -8176 -4072 s state2;
#X obj -8592 -4038 s C arp;
#X obj -8533 -4038 s D arp;
#X obj -8469 -4038 s E arp;
#X obj -8410 -4038 s F arp;
#X obj -8347 -4038 s G arp;
#X obj -8288 -4038 s A arp;
#X obj -8224 -4038 s B arp;
#X obj -8165 -4038 s C2 arp;
#X obj -8587 -4230 inlet;
#X obj -8590 -4140 moses 50;
#X obj -8530 -4141 moses;
#X obj -8475 -4141 moses;
#X obj -8420 -4141 moses;
#X obj -8365 -4141 moses 100;
#X obj -8305 -4141 moses;
#X obj -8253 -4141 moses;
#X connect 0 0 1 0;
#X connect 1 0 28 0;
#X connect 2 0 9 0;
#X connect 3 0 8 0;
#X connect 4 0 10 0;
#X connect 5 0 11 0;
#X connect 6 0 12 0;
#X connect 7 0 13 0;
#X connect 8 0 18 0;
#X connect 8 0 20 0;
#X connect 9 0 18 0;
#X connect 9 0 19 0;
#X connect 10 0 18 0;
#X connect 10 0 21 0;
#X connect 11 0 18 0;
#X connect 11 0 22 0;
#X connect 12 0 18 0;
#X connect 12 0 23 0;
#X connect 13 0 18 0;
#X connect 13 0 24 0;
#X connect 14 0 15 0;
#X connect 15 0 18 0;
#X connect 15 0 25 0;
#X connect 16 0 18 0;
#X connect 16 0 26 0;
#X connect 17 0 16 0;
#X connect 27 0 0 0;
#X connect 28 0 2 0;
#X connect 28 1 29 0;
#X connect 29 0 3 0;
#X connect 29 1 30 0;
#X connect 30 0 4 0;
#X connect 30 1 31 0;
#X connect 31 0 5 0;
#X connect 31 1 32 0;
#X connect 32 0 6 0;
#X connect 32 1 33 0;
#X connect 33 0 7 0;
#X connect 33 1 34 0;
#X connect 34 0 14 0;
#X connect 34 1 17 0;
#X restore 452 -1311 pd B chain;
#X obj -26 -1429 spigot;
#X obj 2 -1388 f;
#X obj -26 -1403 bng 15 250 50 0 empty empty empty 17 7 0 10 -262144
-1 -1;
#X obj 2 -1361 sel 1 2 3 4 5 6 7;
#X obj -26 -1456 == 0;
#X obj 33 -1514 s bangs;
#X obj 0 -1249 bng 15 250 50 0 empty empty empty 17 7 0 10 -262144
-1 -1;
#X obj 75 -1251 bng 15 250 50 0 empty empty empty 17 7 0 10 -262144
-1 -1;
#X obj 147 -1250 bng 15 250 50 0 empty empty empty 17 7 0 10 -262144
-1 -1;
#X obj 217 -1249 bng 15 250 50 0 empty empty empty 17 7 0 10 -262144
-1 -1;
#X obj 290 -1250 bng 15 250 50 0 empty empty empty 17 7 0 10 -262144
-1 -1;
#X obj 369 -1252 bng 15 250 50 0 empty empty empty 17 7 0 10 -262144
-1 -1;
#X obj 449 -1255 bng 15 250 50 0 empty empty empty 17 7 0 10 -262144
-1 -1;
#X obj 37 -1457 s triadcount;
#N canvas 340 98 533 443 C 0;
#X msg -8273 -3699 60;
#X msg -8235 -3699 64;
#X msg -8193 -3698 67;
#X text -8288 -3698 C;
#X obj -8273 -3671 - 12;
#X obj -8278 -3950 r bangs;
#X floatatom -8230 -3929 5 0 0 0 - - -;
#X obj -8279 -3878 bng 15 250 50 0 empty empty empty 17 7 0 10 -262144
-1 -1;
#X obj -8186 -3961 sel 12;
#X obj -8183 -3932 t b b;
#X obj -8162 -3859 spigot;
#X msg -8101 -3869 1;
#X floatatom -8213 -3809 5 0 0 0 - - -;
#X obj -8101 -3966 inlet;
#X obj -8213 -3831 counter 12;
#X obj -8101 -3931 bng 15 250 50 0 empty empty empty 17 7 0 10 -262144
-1 -1;
#X obj -8273 -3764 sel 0 1 2 3 4 5 6 7 8 9 10 11 12;
#X msg -8128 -3893 0;
#X obj -8273 -3637 outlet;
#X text -8183 -3647 using the '0' output from [sel] triggered it at
the end of the count instead of the beginning. This disrupted the sequence
of notes and so was omitted.;
#X connect 0 0 4 0;
#X connect 1 0 4 0;
#X connect 2 0 4 0;
#X connect 4 0 18 0;
#X connect 5 0 6 0;
#X connect 5 0 7 0;
#X connect 7 0 10 0;
#X connect 8 0 9 0;
#X connect 9 0 14 3;
#X connect 9 1 17 0;
#X connect 10 0 14 0;
#X connect 11 0 10 1;
#X connect 12 0 16 0;
#X connect 13 0 15 0;
#X connect 14 0 12 0;
#X connect 14 0 8 0;
#X connect 15 0 11 0;
#X connect 16 1 0 0;
#X connect 16 2 1 0;
#X connect 16 3 2 0;
#X connect 16 4 1 0;
#X connect 16 5 2 0;
#X connect 16 6 1 0;
#X connect 16 7 0 0;
#X connect 16 8 1 0;
#X connect 16 9 2 0;
#X connect 16 10 1 0;
#X connect 16 11 2 0;
#X connect 16 12 1 0;
#X connect 17 0 10 1;
#X restore 1 -1227 pd C triad;
#N canvas 398 112 455 441 D 0;
#X obj -8507 -4169 r bangs;
#X floatatom -8477 -4143 5 0 0 0 - - -;
#X obj -8508 -4111 bng 15 250 50 0 empty empty empty 17 7 0 10 -262144
-1 -1;
#X obj -8434 -4164 sel 12;
#X obj -8434 -4135 t b b;
#X obj -8403 -4082 spigot;
#X msg -8342 -4092 1;
#X obj -8454 -4054 counter 24;
#X floatatom -8454 -4027 5 0 0 0 - - -;
#X msg -8369 -4116 0;
#X obj -8339 -4177 inlet;
#X msg -8437 -3944 62;
#X msg -8399 -3945 65;
#X msg -8361 -3943 69;
#X obj -8438 -3906 - 12;
#X text -8460 -3944 D;
#X obj -8296 -4123 r bang;
#X obj -8340 -4140 bng 15 250 50 0 empty empty empty 17 7 0 10 -262144
-1 -1;
#X obj -8455 -3993 sel 0 1 2 3 4 5 6 7 8 9 10 11 12;
#X obj -8438 -3865 outlet;
#X connect 0 0 1 0;
#X connect 0 0 2 0;
#X connect 2 0 5 0;
#X connect 3 0 4 0;
#X connect 4 0 7 3;
#X connect 4 1 9 0;
#X connect 5 0 7 0;
#X connect 6 0 5 1;
#X connect 7 0 8 0;
#X connect 7 0 3 0;
#X connect 8 0 18 0;
#X connect 9 0 5 1;
#X connect 10 0 17 0;
#X connect 11 0 14 0;
#X connect 12 0 14 0;
#X connect 13 0 14 0;
#X connect 14 0 19 0;
#X connect 16 0 6 0;
#X connect 17 0 6 0;
#X connect 18 1 11 0;
#X connect 18 2 12 0;
#X connect 18 3 13 0;
#X connect 18 4 12 0;
#X connect 18 5 13 0;
#X connect 18 6 12 0;
#X connect 18 7 11 0;
#X connect 18 8 12 0;
#X connect 18 9 13 0;
#X connect 18 10 12 0;
#X connect 18 11 13 0;
#X connect 18 12 12 0;
#X restore 75 -1227 pd D triad;
#N canvas 185 84 432 447 E 0;
#X obj -8450 -4158 r bangs;
#X floatatom -8402 -4133 5 0 0 0 - - -;
#X obj -8451 -4082 bng 15 250 50 0 empty empty empty 17 7 0 10 -262144
-1 -1;
#X obj -8343 -4134 sel 12;
#X obj -8343 -4105 t b b;
#X obj -8322 -4032 spigot;
#X obj -8373 -4004 counter 24;
#X floatatom -8373 -3978 5 0 0 0 - - -;
#X msg -8288 -4066 0;
#X obj -8251 -4134 inlet;
#X text -8390 -3898 E;
#X msg -8250 -4047 1;
#X obj -8250 -4071 bng 15 250 50 0 empty empty empty 17 7 0 10 -262144
-1 -1;
#X msg -8278 -3893 69;
#X obj -8354 -3851 - 12;
#X obj -8372 -3943 sel 0 1 2 3 4 5 6 7 8 9 10 11 12;
#X msg -8354 -3894 64;
#X msg -8316 -3895 67;
#X obj -8354 -3800 outlet;
#X connect 0 0 1 0;
#X connect 0 0 2 0;
#X connect 2 0 5 0;
#X connect 3 0 4 0;
#X connect 4 0 6 3;
#X connect 4 1 8 0;
#X connect 5 0 6 0;
#X connect 6 0 7 0;
#X connect 6 0 3 0;
#X connect 7 0 15 0;
#X connect 8 0 5 1;
#X connect 9 0 12 0;
#X connect 11 0 5 1;
#X connect 12 0 11 0;
#X connect 13 0 14 0;
#X connect 14 0 18 0;
#X connect 15 1 16 0;
#X connect 15 2 17 0;
#X connect 15 3 13 0;
#X connect 15 4 17 0;
#X connect 15 5 13 0;
#X connect 15 6 17 0;
#X connect 15 7 16 0;
#X connect 15 8 17 0;
#X connect 15 9 13 0;
#X connect 15 10 17 0;
#X connect 15 11 13 0;
#X connect 15 12 17 0;
#X connect 16 0 14 0;
#X connect 17 0 14 0;
#X restore 147 -1227 pd E triad;
#N canvas 391 96 483 492 F 0;
#X obj -8268 -4145 bng 15 250 50 0 empty empty empty 17 7 0 10 -262144
-1 -1;
#X obj -8456 -4200 r bangs;
#X floatatom -8408 -4179 5 0 0 0 - - -;
#X obj -8457 -4128 bng 15 250 50 0 empty empty empty 17 7 0 10 -262144
-1 -1;
#X obj -8349 -4180 sel 12;
#X obj -8349 -4151 t b b;
#X obj -8328 -4078 spigot;
#X msg -8267 -4088 1;
#X obj -8379 -4050 counter 24;
#X floatatom -8379 -4024 5 0 0 0 - - -;
#X msg -8294 -4112 0;
#X obj -8269 -4189 inlet;
#X obj -8361 -3902 - 12;
#X obj -8379 -3994 sel 0 1 2 3 4 5 6 7 8 9 10 11 12;
#X text -8384 -3945 F;
#X msg -8361 -3945 65;
#X msg -8323 -3946 70;
#X msg -8285 -3944 73;
#X obj -8360 -3848 outlet;
#X connect 0 0 7 0;
#X connect 1 0 2 0;
#X connect 1 0 3 0;
#X connect 3 0 6 0;
#X connect 4 0 5 0;
#X connect 5 0 8 3;
#X connect 5 1 10 0;
#X connect 6 0 8 0;
#X connect 7 0 6 1;
#X connect 8 0 9 0;
#X connect 8 0 4 0;
#X connect 9 0 13 0;
#X connect 10 0 6 1;
#X connect 11 0 0 0;
#X connect 12 0 18 0;
#X connect 13 1 15 0;
#X connect 13 2 16 0;
#X connect 13 3 17 0;
#X connect 13 4 16 0;
#X connect 13 5 17 0;
#X connect 13 6 16 0;
#X connect 13 7 15 0;
#X connect 13 8 16 0;
#X connect 13 9 17 0;
#X connect 13 10 16 0;
#X connect 13 11 17 0;
#X connect 13 12 16 0;
#X connect 15 0 12 0;
#X connect 16 0 12 0;
#X connect 17 0 12 0;
#X restore 217 -1227 pd F triad;
#N canvas 391 96 855 546 G 0;
#X obj -8323 -4206 bng 15 250 50 0 empty empty empty 17 7 0 10 -262144
-1 -1;
#X obj -8512 -4249 r bangs;
#X floatatom -8464 -4228 5 0 0 0 - - -;
#X obj -8513 -4177 bng 15 250 50 0 empty empty empty 17 7 0 10 -262144
-1 -1;
#X obj -8405 -4229 sel 12;
#X obj -8405 -4200 t b b;
#X obj -8384 -4127 spigot;
#X msg -8323 -4137 1;
#X obj -8435 -4099 counter 24;
#X floatatom -8435 -4073 5 0 0 0 - - -;
#X msg -8350 -4161 0;
#X obj -8323 -4237 inlet;
#X obj -8416 -3938 - 12;
#X obj -8434 -4030 sel 0 1 2 3 4 5 6 7 8 9 10 11 12;
#X msg -8416 -3981 67;
#X msg -8378 -3982 71;
#X msg -8340 -3980 74;
#X text -8433 -3981 G;
#X obj -8416 -3892 outlet;
#X connect 0 0 7 0;
#X connect 1 0 2 0;
#X connect 1 0 3 0;
#X connect 3 0 6 0;
#X connect 4 0 5 0;
#X connect 5 0 8 3;
#X connect 5 1 10 0;
#X connect 6 0 8 0;
#X connect 7 0 6 1;
#X connect 8 0 9 0;
#X connect 8 0 4 0;
#X connect 9 0 13 0;
#X connect 10 0 6 1;
#X connect 11 0 0 0;
#X connect 12 0 18 0;
#X connect 13 1 14 0;
#X connect 13 2 15 0;
#X connect 13 3 16 0;
#X connect 13 4 15 0;
#X connect 13 5 16 0;
#X connect 13 6 15 0;
#X connect 13 7 14 0;
#X connect 13 8 15 0;
#X connect 13 9 16 0;
#X connect 13 10 15 0;
#X connect 13 11 16 0;
#X connect 13 12 15 0;
#X connect 14 0 12 0;
#X connect 15 0 12 0;
#X connect 16 0 12 0;
#X restore 290 -1228 pd G triad;
#N canvas 533 204 502 501 A 0;
#X obj -8498 -4190 r bangs;
#X floatatom -8450 -4169 5 0 0 0 - - -;
#X obj -8499 -4118 bng 15 250 50 0 empty empty empty 17 7 0 10 -262144
-1 -1;
#X obj -8405 -4192 sel 12;
#X obj -8405 -4163 t b b;
#X obj -8384 -4090 spigot;
#X msg -8323 -4100 1;
#X obj -8435 -4062 counter 24;
#X floatatom -8435 -4036 5 0 0 0 - - -;
#X msg -8350 -4124 0;
#X obj -8314 -4159 bng 15 250 50 0 empty empty empty 17 7 0 10 -262144
-1 -1;
#X obj -8313 -4188 inlet;
#X obj -8417 -3917 - 12;
#X floatatom -8300 -3915 5 0 0 0 - - -;
#X msg -8301 -3941 600;
#X obj -8435 -4009 sel 0 1 2 3 4 5 6 7 8 9 10 11 12;
#X text -8440 -3960 A;
#X msg -8417 -3959 69;
#X msg -8379 -3961 72;
#X msg -8341 -3959 76;
#X obj -8417 -3884 outlet;
#X connect 0 0 1 0;
#X connect 0 0 2 0;
#X connect 2 0 5 0;
#X connect 3 0 4 0;
#X connect 4 0 7 3;
#X connect 4 1 9 0;
#X connect 5 0 7 0;
#X connect 6 0 5 1;
#X connect 7 0 8 0;
#X connect 7 0 3 0;
#X connect 8 0 15 0;
#X connect 9 0 5 1;
#X connect 10 0 6 0;
#X connect 11 0 10 0;
#X connect 12 0 20 0;
#X connect 14 0 13 0;
#X connect 15 1 17 0;
#X connect 15 2 18 0;
#X connect 15 3 19 0;
#X connect 15 4 18 0;
#X connect 15 5 19 0;
#X connect 15 6 18 0;
#X connect 15 7 17 0;
#X connect 15 8 18 0;
#X connect 15 9 19 0;
#X connect 15 10 18 0;
#X connect 15 11 19 0;
#X connect 15 12 18 0;
#X connect 17 0 12 0;
#X connect 18 0 12 0;
#X connect 19 0 12 0;
#X restore 369 -1229 pd A triad;
#N canvas 391 96 331 426 B 0;
#X obj -8352 -4189 bng 15 250 50 0 empty empty empty 17 7 0 10 -262144
-1 -1;
#X obj -8542 -4239 r bangs;
#X floatatom -8494 -4218 5 0 0 0 - - -;
#X obj -8543 -4167 bng 15 250 50 0 empty empty empty 17 7 0 10 -262144
-1 -1;
#X obj -8435 -4219 sel 12;
#X obj -8435 -4190 t b b;
#X obj -8414 -4117 spigot;
#X msg -8353 -4127 1;
#X obj -8465 -4089 counter 24;
#X floatatom -8465 -4063 5 0 0 0 - - -;
#X msg -8380 -4151 0;
#X obj -8352 -4220 inlet;
#X obj -8447 -3940 - 12;
#X obj -8465 -4032 sel 0 1 2 3 4 5 6 7 8 9 10 11 12;
#X text -8470 -3983 B;
#X msg -8447 -3983 71;
#X msg -8409 -3984 74;
#X msg -8371 -3982 77;
#X obj -8448 -3902 outlet;
#X connect 0 0 7 0;
#X connect 1 0 2 0;
#X connect 1 0 3 0;
#X connect 3 0 6 0;
#X connect 4 0 5 0;
#X connect 5 0 8 3;
#X connect 5 1 10 0;
#X connect 6 0 8 0;
#X connect 7 0 6 1;
#X connect 8 0 9 0;
#X connect 8 0 4 0;
#X connect 9 0 13 0;
#X connect 10 0 6 1;
#X connect 11 0 0 0;
#X connect 12 0 18 0;
#X connect 13 1 15 0;
#X connect 13 2 16 0;
#X connect 13 3 17 0;
#X connect 13 4 16 0;
#X connect 13 5 17 0;
#X connect 13 6 16 0;
#X connect 13 7 15 0;
#X connect 13 8 16 0;
#X connect 13 9 17 0;
#X connect 13 10 16 0;
#X connect 13 11 17 0;
#X connect 13 12 16 0;
#X connect 15 0 12 0;
#X connect 16 0 12 0;
#X connect 17 0 12 0;
#X restore 449 -1230 pd B triad;
#X obj -26 -1538 r rcount;
#X obj 308 -1041 makenote 50 200;
#N canvas 48 22 1157 635 arp-velocity 0;
#X obj 88 148 sel 0 1 2 3 4 5 6 7 8 9 10 11;
#X floatatom 88 267 5 0 0 0 - - -;
#X obj 268 187 bng 15 250 50 0 empty empty empty 17 7 0 10 -262144
-1 -1;
#X obj 181 187 bng 15 250 50 0 empty empty empty 17 7 0 10 -262144
-1 -1;
#X obj 88 183 bng 15 250 50 0 empty empty empty 17 7 0 10 -262144 -1
-1;
#X obj 354 144 sel 0 1 2 3 4 5 6 7 8 9 10 11;
#X floatatom 354 260 5 0 0 0 - - -;
#X obj 535 183 bng 15 250 50 0 empty empty empty 17 7 0 10 -262144
-1 -1;
#X obj 447 184 bng 15 250 50 0 empty empty empty 17 7 0 10 -262144
-1 -1;
#X obj 354 185 bng 15 250 50 0 empty empty empty 17 7 0 10 -262144
-1 -1;
#X obj 65 -232 r triadcount;
#X obj 88 217 random 20;
#X obj 88 239 + 40;
#X obj 269 214 random 5;
#X obj 182 239 + 40;
#X obj 269 238 + 40;
#X floatatom 66 -62 5 0 0 0 - - -;
#X obj 354 236 + 40;
#X obj 535 209 random 10;
#X obj 354 213 random 15;
#X obj 447 235 + 35;
#X obj 447 211 random 15;
#X obj 535 232 + 35;
#X floatatom 65 -205 5 0 0 0 - - -;
#X obj 65 -179 == 0;
#X floatatom 65 -154 5 0 0 0 - - -;
#X obj 65 -136 sel 1;
#X obj 603 139 sel 0 1 2 3 4 5 6 7 8 9 10 11;
#X floatatom 603 255 5 0 0 0 - - -;
#X obj 784 178 bng 15 250 50 0 empty empty empty 17 7 0 10 -262144
-1 -1;
#X obj 696 179 bng 15 250 50 0 empty empty empty 17 7 0 10 -262144
-1 -1;
#X obj 603 180 bng 15 250 50 0 empty empty empty 17 7 0 10 -262144
-1 -1;
#X obj 784 204 random 10;
#X obj 603 208 random 15;
#X obj 696 230 + 35;
#X obj 696 206 random 15;
#X obj 784 227 + 35;
#X obj 66 -86 random 4;
#X obj 66 -36 sel 0 1 2 3;
#X obj 859 138 sel 0 1 2 3 4 5 6 7 8 9 10 11;
#X floatatom 859 254 5 0 0 0 - - -;
#X obj 1040 177 bng 15 250 50 0 empty empty empty 17 7 0 10 -262144
-1 -1;
#X obj 952 178 bng 15 250 50 0 empty empty empty 17 7 0 10 -262144
-1 -1;
#X obj 859 179 bng 15 250 50 0 empty empty empty 17 7 0 10 -262144
-1 -1;
#X obj 859 207 random 15;
#X obj 952 205 random 15;
#X obj 1040 226 + 35;
#X obj 919 272 outlet;
#X obj 66 -109 bng 15 250 50 0 empty empty empty 17 7 0 10 -262144
-1 -1;
#X floatatom 67 19 5 0 0 0 - - -;
#X obj 116 -1 sel 12;
#X obj 119 28 t b b;
#X obj 139 65 spigot;
#X msg 200 55 1;
#X floatatom 88 115 5 0 0 0 - - -;
#X obj 88 93 counter 12;
#X obj 200 -7 bng 15 250 50 0 empty empty empty 17 7 0 10 -262144 -1
-1;
#X msg 173 31 0;
#X obj 19 -2 r triadcount;
#X floatatom 337 14 5 0 0 0 - - -;
#X obj 382 -7 sel 12;
#X obj 385 22 t b b;
#X obj 405 66 spigot;
#X msg 466 56 1;
#X floatatom 354 116 5 0 0 0 - - -;
#X obj 354 94 counter 12;
#X obj 466 -6 bng 15 250 50 0 empty empty empty 17 7 0 10 -262144 -1
-1;
#X msg 439 32 0;
#X obj 289 -7 r triadcount;
#X floatatom 599 18 5 0 0 0 - - -;
#X obj 642 -6 sel 12;
#X obj 645 23 t b b;
#X obj 654 66 spigot;
#X msg 715 56 1;
#X floatatom 603 116 5 0 0 0 - - -;
#X obj 603 94 counter 12;
#X obj 715 -6 bng 15 250 50 0 empty empty empty 17 7 0 10 -262144 -1
-1;
#X msg 688 32 0;
#X obj 551 -3 r triadcount;
#X floatatom 846 16 5 0 0 0 - - -;
#X obj 892 -9 sel 12;
#X obj 895 20 t b b;
#X obj 912 62 spigot;
#X msg 973 52 1;
#X floatatom 861 112 5 0 0 0 - - -;
#X obj 861 90 counter 12;
#X obj 973 -10 bng 15 250 50 0 empty empty empty 17 7 0 10 -262144
-1 -1;
#X msg 946 28 0;
#X obj 798 -5 r triadcount;
#X obj 603 231 + 35;
#X obj 181 215 random 15;
#X obj 859 230 + 35;
#X obj 952 229 + 32;
#X obj 1040 203 random 10;
#X connect 0 0 4 0;
#X connect 0 1 3 0;
#X connect 0 2 3 0;
#X connect 0 3 2 0;
#X connect 0 4 2 0;
#X connect 0 5 2 0;
#X connect 0 6 3 0;
#X connect 0 6 4 0;
#X connect 0 7 3 0;
#X connect 0 8 3 0;
#X connect 0 9 2 0;
#X connect 0 10 2 0;
#X connect 1 0 47 0;
#X connect 2 0 13 0;
#X connect 3 0 90 0;
#X connect 4 0 11 0;
#X connect 5 0 9 0;
#X connect 5 1 8 0;
#X connect 5 2 8 0;
#X connect 5 3 7 0;
#X connect 5 4 7 0;
#X connect 5 5 7 0;
#X connect 5 6 8 0;
#X connect 5 6 9 0;
#X connect 5 7 8 0;
#X connect 5 8 8 0;
#X connect 5 9 7 0;
#X connect 5 10 7 0;
#X connect 6 0 47 0;
#X connect 7 0 18 0;
#X connect 8 0 21 0;
#X connect 9 0 19 0;
#X connect 10 0 23 0;
#X connect 11 0 12 0;
#X connect 12 0 1 0;
#X connect 13 0 15 0;
#X connect 14 0 1 0;
#X connect 15 0 1 0;
#X connect 16 0 38 0;
#X connect 17 0 6 0;
#X connect 18 0 22 0;
#X connect 19 0 17 0;
#X connect 20 0 6 0;
#X connect 21 0 20 0;
#X connect 22 0 6 0;
#X connect 23 0 24 0;
#X connect 24 0 25 0;
#X connect 25 0 26 0;
#X connect 26 0 48 0;
#X connect 27 0 31 0;
#X connect 27 1 30 0;
#X connect 27 2 30 0;
#X connect 27 3 29 0;
#X connect 27 4 29 0;
#X connect 27 5 29 0;
#X connect 27 6 30 0;
#X connect 27 6 31 0;
#X connect 27 7 30 0;
#X connect 27 8 30 0;
#X connect 27 9 29 0;
#X connect 27 10 29 0;
#X connect 28 0 47 0;
#X connect 29 0 32 0;
#X connect 30 0 35 0;
#X connect 31 0 33 0;
#X connect 32 0 36 0;
#X connect 33 0 89 0;
#X connect 34 0 28 0;
#X connect 35 0 34 0;
#X connect 36 0 28 0;
#X connect 37 0 16 0;
#X connect 38 0 56 0;
#X connect 38 1 66 0;
#X connect 38 2 76 0;
#X connect 38 3 86 0;
#X connect 39 0 43 0;
#X connect 39 1 42 0;
#X connect 39 2 42 0;
#X connect 39 3 41 0;
#X connect 39 4 41 0;
#X connect 39 5 41 0;
#X connect 39 6 42 0;
#X connect 39 6 43 0;
#X connect 39 7 42 0;
#X connect 39 8 42 0;
#X connect 39 9 41 0;
#X connect 39 10 41 0;
#X connect 40 0 47 0;
#X connect 41 0 93 0;
#X connect 42 0 45 0;
#X connect 43 0 44 0;
#X connect 44 0 91 0;
#X connect 45 0 92 0;
#X connect 46 0 40 0;
#X connect 48 0 37 0;
#X connect 50 0 51 0;
#X connect 51 0 55 3;
#X connect 51 1 57 0;
#X connect 52 0 55 0;
#X connect 53 0 52 1;
#X connect 54 0 0 0;
#X connect 55 0 54 0;
#X connect 55 0 50 0;
#X connect 56 0 53 0;
#X connect 57 0 52 1;
#X connect 58 0 49 0;
#X connect 58 0 52 0;
#X connect 60 0 61 0;
#X connect 61 0 65 3;
#X connect 61 1 67 0;
#X connect 62 0 65 0;
#X connect 63 0 62 1;
#X connect 64 0 5 0;
#X connect 65 0 64 0;
#X connect 65 0 60 0;
#X connect 66 0 63 0;
#X connect 67 0 62 1;
#X connect 68 0 59 0;
#X connect 68 0 62 0;
#X connect 70 0 71 0;
#X connect 71 0 75 3;
#X connect 71 1 77 0;
#X connect 72 0 75 0;
#X connect 73 0 72 1;
#X connect 74 0 27 0;
#X connect 75 0 74 0;
#X connect 75 0 70 0;
#X connect 76 0 73 0;
#X connect 77 0 72 1;
#X connect 78 0 69 0;
#X connect 78 0 72 0;
#X connect 80 0 81 0;
#X connect 81 0 85 3;
#X connect 81 1 87 0;
#X connect 82 0 85 0;
#X connect 83 0 82 1;
#X connect 84 0 39 0;
#X connect 85 0 84 0;
#X connect 85 0 80 0;
#X connect 86 0 83 0;
#X connect 87 0 82 1;
#X connect 88 0 79 0;
#X connect 88 0 82 0;
#X connect 89 0 28 0;
#X connect 90 0 14 0;
#X connect 91 0 40 0;
#X connect 92 0 40 0;
#X connect 93 0 46 0;
#X restore 351 -1086 pd arp-velocity;
#N canvas 314 91 484 425 duration 0;
#X floatatom -7420 -4203 5 0 0 0 - - -;
#X floatatom -7420 -4054 5 0 0 0 - - -;
#X obj -7418 -4024 outlet;
#X floatatom -7347 -4048 5 0 0 0 - - -;
#X obj -7420 -4232 r triadcount;
#X obj -7420 -4180 sel 0 6;
#X obj -7362 -4180 sel 1 2 3 4 5 7 8 9 10 11;
#X obj -7420 -4113 random 100;
#X obj -7420 -4083 + 700;
#X obj -7347 -4114 random 30;
#X obj -7347 -4081 + 190;
#X connect 0 0 5 0;
#X connect 0 0 6 0;
#X connect 1 0 2 0;
#X connect 3 0 2 0;
#X connect 4 0 0 0;
#X connect 5 0 7 0;
#X connect 5 1 7 0;
#X connect 6 0 9 0;
#X connect 6 1 9 0;
#X connect 6 2 9 0;
#X connect 6 3 9 0;
#X connect 6 4 9 0;
#X connect 6 5 9 0;
#X connect 6 6 9 0;
#X connect 6 7 9 0;
#X connect 6 8 9 0;
#X connect 6 9 9 0;
#X connect 7 0 8 0;
#X connect 8 0 1 0;
#X connect 9 0 10 0;
#X connect 10 0 3 0;
#X restore 409 -1058 pd duration;
#X obj 308 -1002 noteout;
#X obj 276 -1072 delay;
#X floatatom 301 -1094 5 0 0 0 - - -;
#X obj 277 -1175 bng 15 250 50 0 empty empty empty 17 7 0 10 -262144
-1 -1;
#X floatatom 108 -1170 5 0 0 0 - - -;
#X obj 216 -1055 f;
#X obj 301 -1164 r bangs;
#X obj 301 -1118 + 40;
#X obj 301 -1141 random 15;
#X obj 522 -1412 i;
#X obj 551 -1414 + 1;
#X obj 522 -1335 == 0;
#X floatatom 522 -1311 5 0 0 0 - - -;
#X floatatom 522 -1361 5 0 0 0 - - -;
#X obj 522 -1287 sel 1;
#X obj 583 -1415 r mstate;
#X obj 522 -1260 bng 15 250 50 0 empty empty empty 17 7 0 10 -262144
-1 -1;
#N canvas 81 22 1268 688 markovchain 0;
#X obj 72 83 f 1;
#X floatatom 220 80 5 0 0 0 - - -;
#X obj 72 54 bng 15 250 50 0 empty empty empty 17 7 0 10 -262144 -1
-1;
#X obj 31 143 bng 15 250 50 0 empty empty empty 17 7 0 10 -262144 -1
-1;
#X obj 31 163 random 100;
#X obj 32 217 bng 15 250 50 0 empty empty empty 17 7 0 10 -262144 -1
-1;
#X obj 87 216 bng 15 250 50 0 empty empty empty 17 7 0 10 -262144 -1
-1;
#X obj 142 216 bng 15 250 50 0 empty empty empty 17 7 0 10 -262144
-1 -1;
#X obj 197 216 bng 15 250 50 0 empty empty empty 17 7 0 10 -262144
-1 -1;
#X obj 252 217 bng 15 250 50 0 empty empty empty 17 7 0 10 -262144
-1 -1;
#X obj 307 216 bng 15 250 50 0 empty empty empty 17 7 0 10 -262144
-1 -1;
#X obj 352 216 bng 15 250 50 0 empty empty empty 17 7 0 10 -262144
-1 -1;
#X obj 32 263 s state;
#X obj 469 147 bng 15 250 50 0 empty empty empty 17 7 0 10 -262144
-1 -1;
#X obj 469 166 random 100;
#X obj 410 215 bng 15 250 50 0 empty empty empty 17 7 0 10 -262144
-1 -1;
#X obj 469 214 bng 15 250 50 0 empty empty empty 17 7 0 10 -262144
-1 -1;
#X obj 524 214 bng 15 250 50 0 empty empty empty 17 7 0 10 -262144
-1 -1;
#X obj 579 214 bng 15 250 50 0 empty empty empty 17 7 0 10 -262144
-1 -1;
#X obj 634 215 bng 15 250 50 0 empty empty empty 17 7 0 10 -262144
-1 -1;
#X obj 689 214 bng 15 250 50 0 empty empty empty 17 7 0 10 -262144
-1 -1;
#X obj 734 214 bng 15 250 50 0 empty empty empty 17 7 0 10 -262144
-1 -1;
#X obj 410 256 s state;
#X obj 220 101 outlet;
#X obj 70 19 inlet;
#X msg 87 236 2;
#X msg 469 234 2;
#X msg 32 237 1;
#X msg 142 236 3;
#X msg 197 236 4;
#X msg 252 237 5;
#X msg 307 237 6;
#X msg 352 236 7;
#X obj 220 52 r note;
#X msg 32 283 0;
#X msg 86 283 2;
#X msg 140 286 4;
#X msg 194 284 5;
#X msg 251 285 7;
#X msg 305 284 9;
#X msg 352 283 11;
#X obj 32 311 s note;
#X msg 412 283 0;
#X msg 469 283 2;
#X msg 525 283 4;
#X msg 580 284 5;
#X msg 634 286 7;
#X msg 688 284 9;
#X msg 735 283 11;
#X obj 415 311 s note;
#X msg 410 235 1;
#X msg 524 234 3;
#X msg 579 234 4;
#X msg 634 235 5;
#X msg 689 235 6;
#X msg 734 234 7;
#X obj 848 145 bng 15 250 50 0 empty empty empty 17 7 0 10 -262144
-1 -1;
#X obj 848 165 random 100;
#X obj 849 215 bng 15 250 50 0 empty empty empty 17 7 0 10 -262144
-1 -1;
#X obj 904 214 bng 15 250 50 0 empty empty empty 17 7 0 10 -262144
-1 -1;
#X obj 959 214 bng 15 250 50 0 empty empty empty 17 7 0 10 -262144
-1 -1;
#X obj 1004 214 bng 15 250 50 0 empty empty empty 17 7 0 10 -262144
-1 -1;
#X obj 1069 215 bng 15 250 50 0 empty empty empty 17 7 0 10 -262144
-1 -1;
#X obj 1124 214 bng 15 250 50 0 empty empty empty 17 7 0 10 -262144
-1 -1;
#X obj 1175 219 bng 15 250 50 0 empty empty empty 17 7 0 10 -262144
-1 -1;
#X obj 849 259 s state;
#X msg 904 234 2;
#X msg 849 235 1;
#X msg 959 234 3;
#X msg 1004 234 4;
#X msg 1069 235 5;
#X msg 1124 235 6;
#X msg 1175 239 7;
#X msg 849 281 0;
#X msg 903 281 2;
#X msg 957 284 4;
#X msg 1006 282 5;
#X msg 1068 283 7;
#X msg 1122 282 9;
#X msg 1175 283 11;
#X obj 849 309 s note;
#X obj 63 347 bng 15 250 50 0 empty empty empty 17 7 0 10 -262144 -1
-1;
#X obj 63 366 random 100;
#X obj 25 415 bng 15 250 50 0 empty empty empty 17 7 0 10 -262144 -1
-1;
#X obj 84 414 bng 15 250 50 0 empty empty empty 17 7 0 10 -262144 -1
-1;
#X obj 139 414 bng 15 250 50 0 empty empty empty 17 7 0 10 -262144
-1 -1;
#X obj 194 414 bng 15 250 50 0 empty empty empty 17 7 0 10 -262144
-1 -1;
#X obj 249 415 bng 15 250 50 0 empty empty empty 17 7 0 10 -262144
-1 -1;
#X obj 304 414 bng 15 250 50 0 empty empty empty 17 7 0 10 -262144
-1 -1;
#X obj 360 415 bng 15 250 50 0 empty empty empty 17 7 0 10 -262144
-1 -1;
#X obj 25 456 s state;
#X obj 25 390 moses 25;
#X msg 84 434 2;
#X msg 30 483 0;
#X msg 87 483 2;
#X msg 138 486 4;
#X msg 192 484 5;
#X msg 249 485 7;
#X msg 303 484 9;
#X msg 361 484 11;
#X obj 30 511 s note;
#X msg 25 435 1;
#X msg 139 434 3;
#X msg 194 434 4;
#X msg 249 435 5;
#X msg 304 435 6;
#X msg 360 435 7;
#X obj 73 118 sel 1 2 3 4 5 6 7;
#X obj 437 354 bng 15 250 50 0 empty empty empty 17 7 0 10 -262144
-1 -1;
#X obj 437 373 random 100;
#X obj 437 420 bng 15 250 50 0 empty empty empty 17 7 0 10 -262144
-1 -1;
#X obj 496 419 bng 15 250 50 0 empty empty empty 17 7 0 10 -262144
-1 -1;
#X obj 551 419 bng 15 250 50 0 empty empty empty 17 7 0 10 -262144
-1 -1;
#X obj 619 419 bng 15 250 50 0 empty empty empty 17 7 0 10 -262144
-1 -1;
#X obj 671 420 bng 15 250 50 0 empty empty empty 17 7 0 10 -262144
-1 -1;
#X obj 726 419 bng 15 250 50 0 empty empty empty 17 7 0 10 -262144
-1 -1;
#X obj 783 421 bng 15 250 50 0 empty empty empty 17 7 0 10 -262144
-1 -1;
#X obj 437 461 s state;
#X msg 496 439 2;
#X msg 438 483 0;
#X msg 496 483 2;
#X msg 551 482 4;
#X msg 619 482 5;
#X msg 671 481 7;
#X msg 725 480 9;
#X msg 784 480 11;
#X obj 438 505 s note;
#X msg 437 440 1;
#X msg 551 439 3;
#X msg 619 439 4;
#X msg 671 440 5;
#X msg 726 440 6;
#X msg 783 441 7;
#X obj 852 340 bng 15 250 50 0 empty empty empty 17 7 0 10 -262144
-1 -1;
#X obj 852 359 random 100;
#X obj 853 410 bng 15 250 50 0 empty empty empty 17 7 0 10 -262144
-1 -1;
#X obj 912 409 bng 15 250 50 0 empty empty empty 17 7 0 10 -262144
-1 -1;
#X obj 967 409 bng 15 250 50 0 empty empty empty 17 7 0 10 -262144
-1 -1;
#X obj 1022 409 bng 15 250 50 0 empty empty empty 17 7 0 10 -262144
-1 -1;
#X obj 1077 410 bng 15 250 50 0 empty empty empty 17 7 0 10 -262144
-1 -1;
#X obj 1132 409 bng 15 250 50 0 empty empty empty 17 7 0 10 -262144
-1 -1;
#X obj 1177 409 bng 15 250 50 0 empty empty empty 17 7 0 10 -262144
-1 -1;
#X obj 853 451 s state;
#X msg 912 429 2;
#X msg 858 478 0;
#X msg 915 478 2;
#X msg 966 481 4;
#X msg 1020 479 5;
#X msg 1077 480 7;
#X msg 1131 479 9;
#X msg 1178 478 11;
#X obj 858 506 s note;
#X msg 853 430 1;
#X msg 967 429 3;
#X msg 1022 429 4;
#X msg 1077 430 5;
#X msg 1132 430 6;
#X msg 1177 429 7;
#X obj 89 535 bng 15 250 50 0 empty empty empty 17 7 0 10 -262144 -1
-1;
#X obj 89 554 random 100;
#X obj 30 603 bng 15 250 50 0 empty empty empty 17 7 0 10 -262144 -1
-1;
#X obj 89 602 bng 15 250 50 0 empty empty empty 17 7 0 10 -262144 -1
-1;
#X obj 144 602 bng 15 250 50 0 empty empty empty 17 7 0 10 -262144
-1 -1;
#X obj 199 602 bng 15 250 50 0 empty empty empty 17 7 0 10 -262144
-1 -1;
#X obj 254 603 bng 15 250 50 0 empty empty empty 17 7 0 10 -262144
-1 -1;
#X obj 315 603 bng 15 250 50 0 empty empty empty 17 7 0 10 -262144
-1 -1;
#X obj 360 603 bng 15 250 50 0 empty empty empty 17 7 0 10 -262144
-1 -1;
#X obj 30 644 s state;
#X msg 89 622 2;
#X msg 35 671 0;
#X msg 92 671 2;
#X msg 143 674 4;
#X msg 197 672 5;
#X msg 254 673 7;
#X msg 314 673 9;
#X msg 361 672 11;
#X obj 35 699 s note;
#X msg 30 623 1;
#X msg 144 622 3;
#X msg 199 622 4;
#X msg 254 623 5;
#X msg 315 624 6;
#X msg 360 623 7;
#X floatatom 32 110 5 0 0 0 - - -;
#X msg 282 144 1;
#X obj 324 156 s state;
#X text 1258 92 major diatonic harmony;
#X obj 114 44 r state;
#X obj 1440 91 multiplex f f f f f f f f f f f;
#X obj 1671 53 hradio 15 1 0 8 empty empty empty 0 -8 0 10 -262144
-1 -1 0;
#X obj 1374 59 + 1;
#X obj 1402 59 + 2;
#X text 1452 28 (BEFORE MAKE NOTE);
#X obj 469 190 moses 0;
#X obj 695 189 moses 100;
#X obj 1124 192 moses 100;
#X obj 310 389 moses 100;
#X obj 619 394 moses;
#X obj 671 394 moses;
#X obj 1026 384 moses;
#X obj 1145 384 moses;
#X obj 30 578 moses 50;
#X obj 89 578 moses;
#X obj 254 577 moses 100;
#X obj 315 577 moses;
#X obj 1429 58 + 3;
#X obj 1457 58 + 4;
#X obj 1483 57 + 5;
#X obj 1508 57 + 6;
#X obj 1535 57 + 7;
#X obj 1562 57 + 8;
#X obj 1588 57 + 9;
#X obj 1616 58 + 10;
#X obj 147 577 moses 55;
#X obj 203 577 moses 60;
#X text 160 326 1 -TONIC;
#X text 580 325 2 -SUPERTONIC;
#X text 1009 324 3 -MEDIANT;
#X text 144 529 4 -SUB-DOMINANT;
#X text 569 521 5 -DOMINANT;
#X text 1036 530 6 -SUB-MEDIANT;
#X text 154 719 6 -LEADING TONE;
#X obj 726 394 moses 90;
#X text 218 326 C;
#X text 672 325 D;
#X text 1077 324 E;
#X text 250 530 F;
#X text 643 521 G;
#X text 1130 529 A;
#X text 263 717 B;
#X obj 959 192 moses;
#X obj 1069 192 moses;
#X obj 1004 192 moses 70;
#X obj 848 192 moses 10;
#X obj 527 189 moses 50;
#X obj 583 189 moses 60;
#X obj 638 189 moses 70;
#X obj 31 190 moses;
#X obj 87 190 moses 40;
#X obj 142 190 moses 70;
#X obj 197 190 moses 85;
#X obj 252 190 moses 90;
#X obj 307 190 moses 95;
#X obj 84 390 moses 30;
#X obj 142 389 moses 70;
#X obj 198 389 moses 80;
#X obj 253 389 moses 85;
#X obj 1078 384 moses 100;
#X obj 437 395 moses 30;
#X obj 496 395 moses 40;
#X obj 554 394 moses 80;
#X obj 853 385 moses 20;
#X obj 912 385 moses 30;
#X obj 970 384 moses 65;
#X obj 410 190 moses 10;
#X obj 1440 122 s mplex;
#X obj 904 192 moses 40;
#X connect 0 0 107 0;
#X connect 0 0 183 0;
#X connect 1 0 23 0;
#X connect 2 0 0 0;
#X connect 3 0 4 0;
#X connect 4 0 237 0;
#X connect 5 0 27 0;
#X connect 6 0 25 0;
#X connect 7 0 28 0;
#X connect 8 0 29 0;
#X connect 9 0 30 0;
#X connect 10 0 31 0;
#X connect 11 0 32 0;
#X connect 13 0 14 0;
#X connect 14 0 254 0;
#X connect 15 0 50 0;
#X connect 16 0 26 0;
#X connect 17 0 51 0;
#X connect 18 0 52 0;
#X connect 19 0 53 0;
#X connect 20 0 54 0;
#X connect 21 0 55 0;
#X connect 24 0 2 0;
#X connect 25 0 12 0;
#X connect 25 0 35 0;
#X connect 26 0 22 0;
#X connect 26 0 43 0;
#X connect 27 0 12 0;
#X connect 27 0 34 0;
#X connect 28 0 12 0;
#X connect 28 0 36 0;
#X connect 29 0 12 0;
#X connect 29 0 37 0;
#X connect 30 0 12 0;
#X connect 30 0 38 0;
#X connect 31 0 12 0;
#X connect 31 0 39 0;
#X connect 32 0 12 0;
#X connect 32 0 40 0;
#X connect 33 0 1 0;
#X connect 34 0 41 0;
#X connect 35 0 41 0;
#X connect 36 0 41 0;
#X connect 37 0 41 0;
#X connect 38 0 41 0;
#X connect 39 0 41 0;
#X connect 40 0 41 0;
#X connect 42 0 49 0;
#X connect 43 0 49 0;
#X connect 44 0 49 0;
#X connect 45 0 49 0;
#X connect 46 0 49 0;
#X connect 47 0 49 0;
#X connect 48 0 49 0;
#X connect 50 0 22 0;
#X connect 50 0 42 0;
#X connect 51 0 22 0;
#X connect 51 0 44 0;
#X connect 52 0 22 0;
#X connect 52 0 45 0;
#X connect 53 0 22 0;
#X connect 53 0 46 0;
#X connect 54 0 22 0;
#X connect 54 0 47 0;
#X connect 55 0 22 0;
#X connect 55 0 48 0;
#X connect 56 0 57 0;
#X connect 57 0 233 0;
#X connect 58 0 67 0;
#X connect 59 0 66 0;
#X connect 60 0 68 0;
#X connect 61 0 69 0;
#X connect 62 0 70 0;
#X connect 63 0 71 0;
#X connect 64 0 72 0;
#X connect 66 0 65 0;
#X connect 66 0 74 0;
#X connect 67 0 65 0;
#X connect 67 0 73 0;
#X connect 68 0 65 0;
#X connect 68 0 75 0;
#X connect 69 0 65 0;
#X connect 69 0 76 0;
#X connect 70 0 65 0;
#X connect 70 0 77 0;
#X connect 71 0 65 0;
#X connect 71 0 78 0;
#X connect 72 0 65 0;
#X connect 72 0 79 0;
#X connect 73 0 80 0;
#X connect 74 0 80 0;
#X connect 75 0 80 0;
#X connect 76 0 80 0;
#X connect 77 0 80 0;
#X connect 78 0 80 0;
#X connect 79 0 80 0;
#X connect 81 0 82 0;
#X connect 82 0 91 0;
#X connect 83 0 101 0;
#X connect 84 0 92 0;
#X connect 85 0 102 0;
#X connect 86 0 103 0;
#X connect 87 0 104 0;
#X connect 88 0 105 0;
#X connect 89 0 106 0;
#X connect 91 0 83 0;
#X connect 91 1 243 0;
#X connect 92 0 90 0;
#X connect 92 0 94 0;
#X connect 93 0 100 0;
#X connect 94 0 100 0;
#X connect 95 0 100 0;
#X connect 96 0 100 0;
#X connect 97 0 100 0;
#X connect 98 0 100 0;
#X connect 99 0 100 0;
#X connect 101 0 90 0;
#X connect 101 0 93 0;
#X connect 102 0 90 0;
#X connect 102 0 95 0;
#X connect 103 0 90 0;
#X connect 103 0 96 0;
#X connect 104 0 90 0;
#X connect 104 0 97 0;
#X connect 105 0 90 0;
#X connect 105 0 98 0;
#X connect 106 0 90 0;
#X connect 106 0 99 0;
#X connect 107 0 3 0;
#X connect 107 1 13 0;
#X connect 107 2 56 0;
#X connect 107 3 81 0;
#X connect 107 4 108 0;
#X connect 107 5 133 0;
#X connect 107 6 158 0;
#X connect 107 7 184 0;
#X connect 108 0 109 0;
#X connect 109 0 248 0;
#X connect 110 0 127 0;
#X connect 111 0 118 0;
#X connect 112 0 128 0;
#X connect 113 0 129 0;
#X connect 114 0 130 0;
#X connect 115 0 131 0;
#X connect 116 0 132 0;
#X connect 118 0 117 0;
#X connect 118 0 120 0;
#X connect 119 0 126 0;
#X connect 120 0 126 0;
#X connect 121 0 126 0;
#X connect 122 0 126 0;
#X connect 123 0 126 0;
#X connect 124 0 126 0;
#X connect 125 0 126 0;
#X connect 127 0 117 0;
#X connect 127 0 119 0;
#X connect 128 0 117 0;
#X connect 128 0 121 0;
#X connect 129 0 117 0;
#X connect 129 0 122 0;
#X connect 130 0 117 0;
#X connect 130 0 123 0;
#X connect 131 0 117 0;
#X connect 131 0 124 0;
#X connect 132 0 117 0;
#X connect 132 0 125 0;
#X connect 133 0 134 0;
#X connect 134 0 251 0;
#X connect 135 0 152 0;
#X connect 136 0 143 0;
#X connect 137 0 153 0;
#X connect 138 0 154 0;
#X connect 139 0 155 0;
#X connect 140 0 156 0;
#X connect 141 0 157 0;
#X connect 143 0 142 0;
#X connect 143 0 145 0;
#X connect 144 0 151 0;
#X connect 145 0 151 0;
#X connect 146 0 151 0;
#X connect 147 0 151 0;
#X connect 148 0 151 0;
#X connect 149 0 151 0;
#X connect 150 0 151 0;
#X connect 152 0 142 0;
#X connect 152 0 144 0;
#X connect 153 0 142 0;
#X connect 153 0 146 0;
#X connect 154 0 142 0;
#X connect 154 0 147 0;
#X connect 155 0 142 0;
#X connect 155 0 148 0;
#X connect 156 0 142 0;
#X connect 156 0 149 0;
#X connect 157 0 142 0;
#X connect 157 0 150 0;
#X connect 158 0 159 0;
#X connect 159 0 201 0;
#X connect 160 0 177 0;
#X connect 161 0 168 0;
#X connect 162 0 178 0;
#X connect 163 0 179 0;
#X connect 164 0 180 0;
#X connect 165 0 181 0;
#X connect 166 0 182 0;
#X connect 168 0 167 0;
#X connect 168 0 170 0;
#X connect 169 0 176 0;
#X connect 170 0 176 0;
#X connect 171 0 176 0;
#X connect 172 0 176 0;
#X connect 173 0 176 0;
#X connect 174 0 176 0;
#X connect 175 0 176 0;
#X connect 177 0 167 0;
#X connect 177 0 169 0;
#X connect 178 0 167 0;
#X connect 178 0 171 0;
#X connect 179 0 167 0;
#X connect 179 0 172 0;
#X connect 180 0 167 0;
#X connect 180 0 173 0;
#X connect 181 0 167 0;
#X connect 181 0 174 0;
#X connect 182 0 167 0;
#X connect 182 0 175 0;
#X connect 184 0 185 0;
#X connect 187 0 0 1;
#X connect 188 0 255 0;
#X connect 189 0 188 11;
#X connect 190 0 188 0;
#X connect 191 0 188 1;
#X connect 193 0 16 0;
#X connect 193 1 234 0;
#X connect 194 0 20 0;
#X connect 194 1 21 0;
#X connect 195 0 63 0;
#X connect 195 1 64 0;
#X connect 196 0 88 0;
#X connect 196 1 89 0;
#X connect 197 0 113 0;
#X connect 197 1 198 0;
#X connect 198 0 114 0;
#X connect 198 1 222 0;
#X connect 199 0 138 0;
#X connect 199 1 247 0;
#X connect 200 0 140 0;
#X connect 200 1 141 0;
#X connect 201 0 160 0;
#X connect 201 1 202 0;
#X connect 202 0 161 0;
#X connect 202 1 213 0;
#X connect 203 0 164 0;
#X connect 203 1 204 0;
#X connect 204 0 165 0;
#X connect 204 1 166 0;
#X connect 205 0 188 2;
#X connect 206 0 188 3;
#X connect 207 0 188 4;
#X connect 208 0 188 5;
#X connect 209 0 188 6;
#X connect 210 0 188 7;
#X connect 211 0 188 8;
#X connect 212 0 188 9;
#X connect 213 0 162 0;
#X connect 213 1 214 0;
#X connect 214 0 163 0;
#X connect 214 1 203 0;
#X connect 222 0 115 0;
#X connect 222 1 116 0;
#X connect 230 0 60 0;
#X connect 230 1 232 0;
#X connect 231 0 62 0;
#X connect 231 1 195 0;
#X connect 232 0 61 0;
#X connect 232 1 231 0;
#X connect 233 0 58 0;
#X connect 233 1 256 0;
#X connect 234 0 17 0;
#X connect 234 1 235 0;
#X connect 235 0 18 0;
#X connect 235 1 236 0;
#X connect 236 0 19 0;
#X connect 236 1 194 0;
#X connect 237 0 5 0;
#X connect 237 1 238 0;
#X connect 238 0 6 0;
#X connect 238 1 239 0;
#X connect 239 0 7 0;
#X connect 239 1 240 0;
#X connect 240 0 8 0;
#X connect 240 1 241 0;
#X connect 241 0 9 0;
#X connect 241 1 242 0;
#X connect 242 0 10 0;
#X connect 242 1 11 0;
#X connect 243 0 84 0;
#X connect 243 1 244 0;
#X connect 244 0 85 0;
#X connect 244 1 245 0;
#X connect 245 0 86 0;
#X connect 245 1 246 0;
#X connect 246 0 87 0;
#X connect 246 1 196 0;
#X connect 247 0 139 0;
#X connect 247 1 200 0;
#X connect 248 0 110 0;
#X connect 248 1 249 0;
#X connect 249 0 111 0;
#X connect 249 1 250 0;
#X connect 250 0 112 0;
#X connect 250 1 197 0;
#X connect 251 0 135 0;
#X connect 251 1 252 0;
#X connect 252 0 136 0;
#X connect 252 1 253 0;
#X connect 253 0 137 0;
#X connect 253 1 199 0;
#X connect 254 0 15 0;
#X connect 254 1 193 0;
#X connect 256 0 59 0;
#X connect 256 1 230 0;
#X restore 522 -1220 pd markovchain;
#X floatatom 583 -1392 5 0 0 0 - - -;
#X obj 522 -1388 % 3;
#X obj 543 -1245 s new-note;
#N canvas 600 120 560 426 notelength-counter01 0;
#X obj -2441 -6501 bng 15 250 50 0 empty empty empty 17 7 0 10 -262144
-1 -1;
#X obj -2313 -6503 bng 15 250 50 0 empty empty empty 17 7 0 10 -262144
-1 -1;
#X floatatom -2409 -6635 5 0 0 0 - - -;
#X obj -2441 -6537 spigot;
#X obj -2313 -6537 spigot;
#X obj -2410 -6660 count 128;
#X obj -2409 -6598 < 64;
#X obj -2282 -6596 > 64;
#X obj -2410 -6688 r rcount;
#X obj -2441 -6570 r new-note;
#X obj -2314 -6567 r new-note;
#N canvas 38 51 1169 614 notelength-markov 0;
#X msg -712 -246 2;
#X obj -713 -352 bng 15 250 50 0 empty empty empty 17 7 0 10 -262144
-1 -1;
#X obj -710 -276 bng 15 250 50 0 empty empty empty 17 7 0 10 -262144
-1 -1;
#X obj -712 -217 s mstate;
#X obj -709 -467 r mstate;
#X obj -737 -467 bng 15 250 50 0 empty empty empty 17 7 0 10 -262144
-1 -1;
#X obj -736 -434 f 1;
#X floatatom -709 -435 5 0 0 0 - - -;
#X obj -713 -330 random 100;
#X obj -656 -274 bng 15 250 50 0 empty empty empty 17 7 0 10 -262144
-1 -1;
#X obj -593 -275 bng 15 250 50 0 empty empty empty 17 7 0 10 -262144
-1 -1;
#X msg -592 -247 6;
#X obj -737 -496 inlet;
#X obj -489 -275 bng 15 250 50 0 empty empty empty 17 7 0 10 -262144
-1 -1;
#X msg -489 -244 24;
#X obj -535 -273 bng 15 250 50 0 empty empty empty 17 7 0 10 -262144
-1 -1;
#X msg -535 -245 12;
#X msg -657 -245 3;
#X msg 3 -243 2;
#X obj 2 -351 bng 15 250 50 0 empty empty empty 17 7 0 10 -262144 -1
-1;
#X obj 3 -267 bng 15 250 50 0 empty empty empty 17 7 0 10 -262144 -1
-1;
#X obj 64 -268 bng 15 250 50 0 empty empty empty 17 7 0 10 -262144
-1 -1;
#X obj 3 -215 s mstate;
#X obj 3 -324 random 100;
#X obj 123 -270 bng 15 250 50 0 empty empty empty 17 7 0 10 -262144
-1 -1;
#X msg 122 -241 6;
#X obj 226 -273 bng 15 250 50 0 empty empty empty 17 7 0 10 -262144
-1 -1;
#X msg 226 -239 24;
#X obj 181 -270 bng 15 250 50 0 empty empty empty 17 7 0 10 -262144
-1 -1;
#X msg 181 -241 12;
#X msg 64 -243 3;
#X msg -706 -14 2;
#X obj -707 -120 bng 15 250 50 0 empty empty empty 17 7 0 10 -262144
-1 -1;
#X obj -706 -44 bng 15 250 50 0 empty empty empty 17 7 0 10 -262144
-1 -1;
#X obj -706 15 s mstate;
#X obj -707 -98 random 100;
#X obj -650 -42 bng 15 250 50 0 empty empty empty 17 7 0 10 -262144
-1 -1;
#X obj -587 -43 bng 15 250 50 0 empty empty empty 17 7 0 10 -262144
-1 -1;
#X msg -586 -15 6;
#X msg -390 -17 2;
#X obj -390 -120 bng 15 250 50 0 empty empty empty 17 7 0 10 -262144
-1 -1;
#X obj -390 -41 bng 15 250 50 0 empty empty empty 17 7 0 10 -262144
-1 -1;
#X obj -329 -42 bng 15 250 50 0 empty empty empty 17 7 0 10 -262144
-1 -1;
#X obj -390 11 s mstate;
#X obj -390 -98 random 100;
#X obj -270 -44 bng 15 250 50 0 empty empty empty 17 7 0 10 -262144
-1 -1;
#X msg -271 -15 6;
#X obj -483 -43 bng 15 250 50 0 empty empty empty 17 7 0 10 -262144
-1 -1;
#X msg -483 -12 24;
#X obj -529 -41 bng 15 250 50 0 empty empty empty 17 7 0 10 -262144
-1 -1;
#X msg -529 -13 12;
#X obj -167 -47 bng 15 250 50 0 empty empty empty 17 7 0 10 -262144
-1 -1;
#X msg -167 -13 24;
#X obj -212 -44 bng 15 250 50 0 empty empty empty 17 7 0 10 -262144
-1 -1;
#X msg -212 -15 12;
#X msg -329 -17 3;
#X msg -651 -13 3;
#X obj -390 -72 moses 5;
#X msg 5 -19 2;
#X obj 5 -122 bng 15 250 50 0 empty empty empty 17 7 0 10 -262144 -1
-1;
#X obj 5 -43 bng 15 250 50 0 empty empty empty 17 7 0 10 -262144 -1
-1;
#X obj 66 -44 bng 15 250 50 0 empty empty empty 17 7 0 10 -262144 -1
-1;
#X obj 5 9 s mstate;
#X obj 5 -100 random 100;
#X obj 125 -46 bng 15 250 50 0 empty empty empty 17 7 0 10 -262144
-1 -1;
#X msg 124 -17 6;
#X obj 125 -73 moses 60;
#X obj 66 -73 moses 20;
#X obj 234 -49 bng 15 250 50 0 empty empty empty 17 7 0 10 -262144
-1 -1;
#X msg 234 -15 24;
#X obj 183 -46 bng 15 250 50 0 empty empty empty 17 7 0 10 -262144
-1 -1;
#X msg 183 -17 12;
#X msg 66 -19 3;
#X obj 5 -74 moses 5;
#X text -262 62 12;
#X text 133 60 24;
#X obj -212 -71 moses 90;
#X text -595 -194 1;
#X text 125 -194 3;
#X text -579 59 6;
#X obj 183 -73 moses 100;
#X obj 123 -297 moses 80;
#X obj -270 -71 moses 80;
#X obj -534 -299 moses 90;
#X obj 3 -298 moses 10;
#X msg -380 -228 2;
#X obj -381 -336 bng 15 250 50 0 empty empty empty 17 7 0 10 -262144
-1 -1;
#X obj -380 -252 bng 15 250 50 0 empty empty empty 17 7 0 10 -262144
-1 -1;
#X obj -319 -253 bng 15 250 50 0 empty empty empty 17 7 0 10 -262144
-1 -1;
#X obj -380 -200 s mstate;
#X obj -380 -309 random 100;
#X obj -260 -255 bng 15 250 50 0 empty empty empty 17 7 0 10 -262144
-1 -1;
#X msg -260 -229 6;
#X obj -157 -258 bng 15 250 50 0 empty empty empty 17 7 0 10 -262144
-1 -1;
#X msg -157 -224 24;
#X obj -202 -255 bng 15 250 50 0 empty empty empty 17 7 0 10 -262144
-1 -1;
#X msg -202 -226 12;
#X msg -319 -228 3;
#X obj -713 -387 sel 1 2 3 6 12 24;
#X text -258 -192 2;
#X obj -593 -300 moses 80;
#X obj -650 -69 moses 30;
#X obj -706 -70 moses 5;
#X obj -329 -71 moses 50;
#X obj 64 -297 moses 20;
#X obj -587 -68 moses 80;
#X obj -712 -302 moses 5;
#X obj -319 -282 moses 60;
#X obj -260 -282 moses 90;
#X obj -202 -282 moses 95;
#X obj -528 -67 moses 100;
#X obj 181 -297 moses 95;
#X obj -656 -301 moses 30;
#X obj -380 -283 moses 20;
#X connect 0 0 3 0;
#X connect 1 0 8 0;
#X connect 2 0 0 0;
#X connect 4 0 7 0;
#X connect 4 0 6 1;
#X connect 5 0 6 0;
#X connect 6 0 98 0;
#X connect 8 0 106 0;
#X connect 9 0 17 0;
#X connect 10 0 11 0;
#X connect 11 0 3 0;
#X connect 12 0 5 0;
#X connect 13 0 14 0;
#X connect 14 0 3 0;
#X connect 15 0 16 0;
#X connect 16 0 3 0;
#X connect 17 0 3 0;
#X connect 18 0 22 0;
#X connect 19 0 23 0;
#X connect 20 0 18 0;
#X connect 21 0 30 0;
#X connect 23 0 84 0;
#X connect 24 0 25 0;
#X connect 25 0 22 0;
#X connect 26 0 27 0;
#X connect 27 0 22 0;
#X connect 28 0 29 0;
#X connect 29 0 22 0;
#X connect 30 0 22 0;
#X connect 31 0 34 0;
#X connect 32 0 35 0;
#X connect 33 0 31 0;
#X connect 35 0 102 0;
#X connect 36 0 56 0;
#X connect 37 0 38 0;
#X connect 38 0 34 0;
#X connect 39 0 43 0;
#X connect 40 0 44 0;
#X connect 41 0 39 0;
#X connect 42 0 55 0;
#X connect 44 0 57 0;
#X connect 45 0 46 0;
#X connect 46 0 43 0;
#X connect 47 0 48 0;
#X connect 48 0 34 0;
#X connect 49 0 50 0;
#X connect 50 0 34 0;
#X connect 51 0 52 0;
#X connect 52 0 43 0;
#X connect 53 0 54 0;
#X connect 54 0 43 0;
#X connect 55 0 43 0;
#X connect 56 0 34 0;
#X connect 57 0 41 0;
#X connect 57 1 103 0;
#X connect 58 0 62 0;
#X connect 59 0 63 0;
#X connect 60 0 58 0;
#X connect 61 0 72 0;
#X connect 63 0 73 0;
#X connect 64 0 65 0;
#X connect 65 0 62 0;
#X connect 66 0 64 0;
#X connect 66 1 80 0;
#X connect 67 0 61 0;
#X connect 67 1 66 0;
#X connect 68 0 69 0;
#X connect 69 0 62 0;
#X connect 70 0 71 0;
#X connect 71 0 62 0;
#X connect 72 0 62 0;
#X connect 73 0 60 0;
#X connect 73 1 67 0;
#X connect 76 0 53 0;
#X connect 76 1 51 0;
#X connect 80 0 70 0;
#X connect 80 1 68 0;
#X connect 81 0 24 0;
#X connect 81 1 111 0;
#X connect 82 0 45 0;
#X connect 82 1 76 0;
#X connect 83 0 15 0;
#X connect 83 1 13 0;
#X connect 84 0 20 0;
#X connect 84 1 104 0;
#X connect 85 0 89 0;
#X connect 86 0 90 0;
#X connect 87 0 85 0;
#X connect 88 0 97 0;
#X connect 90 0 113 0;
#X connect 91 0 92 0;
#X connect 92 0 89 0;
#X connect 93 0 94 0;
#X connect 94 0 89 0;
#X connect 95 0 96 0;
#X connect 96 0 89 0;
#X connect 97 0 89 0;
#X connect 98 0 1 0;
#X connect 98 1 86 0;
#X connect 98 2 19 0;
#X connect 98 3 32 0;
#X connect 98 4 40 0;
#X connect 98 5 59 0;
#X connect 100 0 10 0;
#X connect 100 1 83 0;
#X connect 101 0 36 0;
#X connect 101 1 105 0;
#X connect 102 0 33 0;
#X connect 102 1 101 0;
#X connect 103 0 42 0;
#X connect 103 1 82 0;
#X connect 104 0 21 0;
#X connect 104 1 81 0;
#X connect 105 0 37 0;
#X connect 105 1 110 0;
#X connect 106 0 2 0;
#X connect 106 1 112 0;
#X connect 107 0 88 0;
#X connect 107 1 108 0;
#X connect 108 0 91 0;
#X connect 108 1 109 0;
#X connect 109 0 95 0;
#X connect 109 1 93 0;
#X connect 110 0 49 0;
#X connect 110 1 47 0;
#X connect 111 0 28 0;
#X connect 111 1 26 0;
#X connect 112 0 9 0;
#X connect 112 1 100 0;
#X connect 113 0 87 0;
#X connect 113 1 107 0;
#X restore -2441 -6479 pd notelength-markov;
#N canvas 460 22 755 589 notelength-markov2 0;
#X obj -512 -349 bng 15 250 50 0 empty empty empty 17 7 0 10 -262144
-1 -1;
#X obj -512 -278 bng 15 250 50 0 empty empty empty 17 7 0 10 -262144
-1 -1;
#X obj -512 -211 s mstate;
#X obj -485 -454 r mstate;
#X obj -513 -454 bng 15 250 50 0 empty empty empty 17 7 0 10 -262144
-1 -1;
#X obj -512 -421 f 1;
#X floatatom -485 -422 5 0 0 0 - - -;
#X obj -512 -327 random 100;
#X msg -512 -247 1;
#X obj -452 -276 bng 15 250 50 0 empty empty empty 17 7 0 10 -262144
-1 -1;
#X obj -508 -148 bng 15 250 50 0 empty empty empty 17 7 0 10 -262144
-1 -1;
#X obj -510 -67 bng 15 250 50 0 empty empty empty 17 7 0 10 -262144
-1 -1;
#X obj -449 -65 bng 15 250 50 0 empty empty empty 17 7 0 10 -262144
-1 -1;
#X obj -511 -6 s mstate;
#X obj -508 -121 random 100;
#X obj -392 -66 bng 15 250 50 0 empty empty empty 17 7 0 10 -262144
-1 -1;
#X obj -389 -277 bng 15 250 50 0 empty empty empty 17 7 0 10 -262144
-1 -1;
#X msg -388 -249 6;
#X obj -233 -353 bng 15 250 50 0 empty empty empty 17 7 0 10 -262144
-1 -1;
#X obj -233 -280 bng 15 250 50 0 empty empty empty 17 7 0 10 -262144
-1 -1;
#X obj -171 -278 bng 15 250 50 0 empty empty empty 17 7 0 10 -262144
-1 -1;
#X obj -233 -214 s mstate;
#X obj -233 -331 random 100;
#X msg -233 -250 1;
#X obj -112 -279 bng 15 250 50 0 empty empty empty 17 7 0 10 -262144
-1 -1;
#X obj -226 -153 bng 15 250 50 0 empty empty empty 17 7 0 10 -262144
-1 -1;
#X obj -230 -76 bng 15 250 50 0 empty empty empty 17 7 0 10 -262144
-1 -1;
#X obj -167 -71 bng 15 250 50 0 empty empty empty 17 7 0 10 -262144
-1 -1;
#X obj -229 -13 s mstate;
#X obj -226 -128 random 100;
#X obj -105 -71 bng 15 250 50 0 empty empty empty 17 7 0 10 -262144
-1 -1;
#X msg -511 -39 1;
#X msg -393 -34 6;
#X obj -513 -483 inlet;
#X msg -113 -251 6;
#X msg -105 -40 6;
#X msg -229 -46 1;
#X text -419 -180 1;
#X text -422 31 6;
#X obj -338 -277 bng 15 250 50 0 empty empty empty 17 7 0 10 -262144
-1 -1;
#X obj -67 -281 bng 15 250 50 0 empty empty empty 17 7 0 10 -262144
-1 -1;
#X obj -61 -69 bng 15 250 50 0 empty empty empty 17 7 0 10 -262144
-1 -1;
#X obj 8 -147 bng 15 250 50 0 empty empty empty 17 7 0 10 -262144 -1
-1;
#X obj 4 -70 bng 15 250 50 0 empty empty empty 17 7 0 10 -262144 -1
-1;
#X obj 64 -66 bng 15 250 50 0 empty empty empty 17 7 0 10 -262144 -1
-1;
#X obj 5 -7 s mstate;
#X obj 8 -122 random 100;
#X obj 126 -66 bng 15 250 50 0 empty empty empty 17 7 0 10 -262144
-1 -1;
#X msg 126 -35 6;
#X msg 5 -40 1;
#X obj 172 -65 bng 15 250 50 0 empty empty empty 17 7 0 10 -262144
-1 -1;
#X obj -346 -65 bng 15 250 50 0 empty empty empty 17 7 0 10 -262144
-1 -1;
#X obj 64 -97 moses 75;
#X msg -338 -246 24;
#X msg -68 -251 24;
#X msg 171 -34 24;
#X msg -62 -38 24;
#X msg -349 -36 24;
#X msg -453 -247 3;
#X msg -448 -35 3;
#X msg -166 -41 3;
#X msg 65 -36 3;
#X msg -171 -252 3;
#X obj -167 -102 moses 80;
#X obj -452 -303 moses 90;
#X obj -389 -302 moses 100;
#X text 102 32 24;
#X text -145 30 12;
#X text -140 -174 2;
#X obj 5 -357 bng 15 250 50 0 empty empty empty 17 7 0 10 -262144 -1
-1;
#X obj 5 -283 bng 15 250 50 0 empty empty empty 17 7 0 10 -262144 -1
-1;
#X obj 67 -288 bng 15 250 50 0 empty empty empty 17 7 0 10 -262144
-1 -1;
#X obj 5 -220 s mstate;
#X obj 5 -335 random 100;
#X msg 5 -256 1;
#X obj 126 -289 bng 15 250 50 0 empty empty empty 17 7 0 10 -262144
-1 -1;
#X msg 126 -258 6;
#X obj 170 -288 bng 15 250 50 0 empty empty empty 17 7 0 10 -262144
-1 -1;
#X msg 170 -257 24;
#X msg 67 -258 3;
#X text 91 -182 3;
#X obj -512 -393 sel 1 2 3 6 12 24;
#X obj -112 -308 moses 95;
#X obj -171 -308 moses 80;
#X obj -229 -103 moses 20;
#X obj 5 -312 moses 10;
#X obj 5 -97 moses 15;
#X obj -511 -96 moses 20;
#X obj 126 -97 moses 100;
#X obj -105 -102 moses 100;
#X obj -390 -97 moses 95;
#X obj -449 -96 moses 50;
#X obj 67 -312 moses 70;
#X obj 126 -312 moses 100;
#X obj -233 -308 moses 20;
#X obj -512 -304 moses 60;
#X connect 0 0 7 0;
#X connect 1 0 8 0;
#X connect 3 0 6 0;
#X connect 3 0 5 1;
#X connect 4 0 5 0;
#X connect 5 0 81 0;
#X connect 7 0 95 0;
#X connect 8 0 2 0;
#X connect 9 0 58 0;
#X connect 10 0 14 0;
#X connect 11 0 31 0;
#X connect 12 0 59 0;
#X connect 14 0 87 0;
#X connect 15 0 32 0;
#X connect 16 0 17 0;
#X connect 17 0 2 0;
#X connect 18 0 22 0;
#X connect 19 0 23 0;
#X connect 20 0 62 0;
#X connect 22 0 94 0;
#X connect 23 0 21 0;
#X connect 24 0 34 0;
#X connect 25 0 29 0;
#X connect 26 0 36 0;
#X connect 27 0 60 0;
#X connect 29 0 84 0;
#X connect 30 0 35 0;
#X connect 31 0 13 0;
#X connect 32 0 13 0;
#X connect 33 0 4 0;
#X connect 34 0 21 0;
#X connect 35 0 28 0;
#X connect 36 0 28 0;
#X connect 39 0 53 0;
#X connect 40 0 54 0;
#X connect 41 0 56 0;
#X connect 42 0 46 0;
#X connect 43 0 49 0;
#X connect 44 0 61 0;
#X connect 46 0 86 0;
#X connect 47 0 48 0;
#X connect 48 0 45 0;
#X connect 49 0 45 0;
#X connect 50 0 55 0;
#X connect 51 0 57 0;
#X connect 52 0 44 0;
#X connect 52 1 88 0;
#X connect 53 0 2 0;
#X connect 54 0 21 0;
#X connect 55 0 45 0;
#X connect 56 0 28 0;
#X connect 57 0 13 0;
#X connect 58 0 2 0;
#X connect 59 0 13 0;
#X connect 60 0 28 0;
#X connect 61 0 45 0;
#X connect 62 0 21 0;
#X connect 63 0 27 0;
#X connect 63 1 89 0;
#X connect 64 0 9 0;
#X connect 64 1 65 0;
#X connect 65 0 16 0;
#X connect 65 1 39 0;
#X connect 69 0 73 0;
#X connect 70 0 74 0;
#X connect 71 0 79 0;
#X connect 73 0 85 0;
#X connect 74 0 72 0;
#X connect 75 0 76 0;
#X connect 76 0 72 0;
#X connect 77 0 78 0;
#X connect 78 0 72 0;
#X connect 79 0 72 0;
#X connect 81 0 0 0;
#X connect 81 1 18 0;
#X connect 81 2 69 0;
#X connect 81 3 10 0;
#X connect 81 4 25 0;
#X connect 81 5 42 0;
#X connect 82 0 24 0;
#X connect 82 1 40 0;
#X connect 83 0 20 0;
#X connect 83 1 82 0;
#X connect 84 0 26 0;
#X connect 84 1 63 0;
#X connect 85 0 70 0;
#X connect 85 1 92 0;
#X connect 86 0 43 0;
#X connect 86 1 52 0;
#X connect 87 0 11 0;
#X connect 87 1 91 0;
#X connect 88 0 47 0;
#X connect 88 1 50 0;
#X connect 89 0 30 0;
#X connect 89 1 41 0;
#X connect 90 0 15 0;
#X connect 90 1 51 0;
#X connect 91 0 12 0;
#X connect 91 1 90 0;
#X connect 92 0 71 0;
#X connect 92 1 93 0;
#X connect 93 0 75 0;
#X connect 93 1 77 0;
#X connect 94 0 19 0;
#X connect 94 1 83 0;
#X connect 95 0 1 0;
#X connect 95 1 64 0;
#X restore -2313 -6480 pd notelength-markov2;
#X obj -2414 -6502 s t1;
#X obj -2286 -6504 s t2;
#X obj -2334 -6634 s tcount;
#X connect 0 0 11 0;
#X connect 0 0 13 0;
#X connect 1 0 12 0;
#X connect 1 0 14 0;
#X connect 2 0 6 0;
#X connect 2 0 7 0;
#X connect 3 0 0 0;
#X connect 4 0 1 0;
#X connect 5 0 2 0;
#X connect 5 0 15 0;
#X connect 6 0 3 1;
#X connect 7 0 4 1;
#X connect 8 0 5 0;
#X connect 9 0 3 0;
#X connect 10 0 4 0;
#X restore 601 -1324 pd notelength-counter01;
#N canvas 600 120 560 426 notelength-counter02 0;
#X obj -2658 -6642 bng 15 250 50 0 empty empty empty 17 7 0 10 -262144
-1 -1;
#X obj -2658 -6678 spigot;
#X obj -2731 -6652 r rcount;
#N canvas 38 51 1169 614 notelength-markov 0;
#X msg -712 -246 2;
#X obj -713 -352 bng 15 250 50 0 empty empty empty 17 7 0 10 -262144
-1 -1;
#X obj -710 -276 bng 15 250 50 0 empty empty empty 17 7 0 10 -262144
-1 -1;
#X obj -712 -217 s mstate;
#X obj -709 -467 r mstate;
#X obj -737 -467 bng 15 250 50 0 empty empty empty 17 7 0 10 -262144
-1 -1;
#X obj -736 -434 f 1;
#X floatatom -709 -435 5 0 0 0 - - -;
#X obj -713 -330 random 100;
#X obj -656 -274 bng 15 250 50 0 empty empty empty 17 7 0 10 -262144
-1 -1;
#X obj -593 -275 bng 15 250 50 0 empty empty empty 17 7 0 10 -262144
-1 -1;
#X msg -592 -247 6;
#X obj -737 -496 inlet;
#X obj -489 -275 bng 15 250 50 0 empty empty empty 17 7 0 10 -262144
-1 -1;
#X msg -489 -244 24;
#X obj -535 -273 bng 15 250 50 0 empty empty empty 17 7 0 10 -262144
-1 -1;
#X msg -535 -245 12;
#X msg -657 -245 3;
#X msg 3 -243 2;
#X obj 2 -351 bng 15 250 50 0 empty empty empty 17 7 0 10 -262144 -1
-1;
#X obj 3 -267 bng 15 250 50 0 empty empty empty 17 7 0 10 -262144 -1
-1;
#X obj 64 -268 bng 15 250 50 0 empty empty empty 17 7 0 10 -262144
-1 -1;
#X obj 3 -215 s mstate;
#X obj 3 -324 random 100;
#X obj 123 -270 bng 15 250 50 0 empty empty empty 17 7 0 10 -262144
-1 -1;
#X msg 122 -241 6;
#X obj 226 -273 bng 15 250 50 0 empty empty empty 17 7 0 10 -262144
-1 -1;
#X msg 226 -239 24;
#X obj 181 -270 bng 15 250 50 0 empty empty empty 17 7 0 10 -262144
-1 -1;
#X msg 181 -241 12;
#X msg 64 -243 3;
#X msg -706 -14 2;
#X obj -707 -120 bng 15 250 50 0 empty empty empty 17 7 0 10 -262144
-1 -1;
#X obj -706 -44 bng 15 250 50 0 empty empty empty 17 7 0 10 -262144
-1 -1;
#X obj -706 15 s mstate;
#X obj -707 -98 random 100;
#X obj -650 -42 bng 15 250 50 0 empty empty empty 17 7 0 10 -262144
-1 -1;
#X obj -587 -43 bng 15 250 50 0 empty empty empty 17 7 0 10 -262144
-1 -1;
#X msg -586 -15 6;
#X msg -390 -17 2;
#X obj -390 -120 bng 15 250 50 0 empty empty empty 17 7 0 10 -262144
-1 -1;
#X obj -390 -41 bng 15 250 50 0 empty empty empty 17 7 0 10 -262144
-1 -1;
#X obj -329 -42 bng 15 250 50 0 empty empty empty 17 7 0 10 -262144
-1 -1;
#X obj -390 11 s mstate;
#X obj -390 -98 random 100;
#X obj -270 -44 bng 15 250 50 0 empty empty empty 17 7 0 10 -262144
-1 -1;
#X msg -271 -15 6;
#X obj -483 -43 bng 15 250 50 0 empty empty empty 17 7 0 10 -262144
-1 -1;
#X msg -483 -12 24;
#X obj -529 -41 bng 15 250 50 0 empty empty empty 17 7 0 10 -262144
-1 -1;
#X msg -529 -13 12;
#X obj -167 -47 bng 15 250 50 0 empty empty empty 17 7 0 10 -262144
-1 -1;
#X msg -167 -13 24;
#X obj -212 -44 bng 15 250 50 0 empty empty empty 17 7 0 10 -262144
-1 -1;
#X msg -212 -15 12;
#X msg -329 -17 3;
#X msg -651 -13 3;
#X obj -390 -72 moses 5;
#X msg 5 -19 2;
#X obj 5 -122 bng 15 250 50 0 empty empty empty 17 7 0 10 -262144 -1
-1;
#X obj 5 -43 bng 15 250 50 0 empty empty empty 17 7 0 10 -262144 -1
-1;
#X obj 66 -44 bng 15 250 50 0 empty empty empty 17 7 0 10 -262144 -1
-1;
#X obj 5 9 s mstate;
#X obj 5 -100 random 100;
#X obj 125 -46 bng 15 250 50 0 empty empty empty 17 7 0 10 -262144
-1 -1;
#X msg 124 -17 6;
#X obj 125 -73 moses 60;
#X obj 66 -73 moses 20;
#X obj 234 -49 bng 15 250 50 0 empty empty empty 17 7 0 10 -262144
-1 -1;
#X msg 234 -15 24;
#X obj 183 -46 bng 15 250 50 0 empty empty empty 17 7 0 10 -262144
-1 -1;
#X msg 183 -17 12;
#X msg 66 -19 3;
#X obj 5 -74 moses 5;
#X text -262 62 12;
#X text 133 60 24;
#X obj -212 -71 moses 90;
#X text -595 -194 1;
#X text 125 -194 3;
#X text -579 59 6;
#X obj 183 -73 moses 100;
#X obj 123 -297 moses 80;
#X obj -270 -71 moses 80;
#X obj -534 -299 moses 90;
#X obj 3 -298 moses 10;
#X msg -380 -228 2;
#X obj -381 -336 bng 15 250 50 0 empty empty empty 17 7 0 10 -262144
-1 -1;
#X obj -380 -252 bng 15 250 50 0 empty empty empty 17 7 0 10 -262144
-1 -1;
#X obj -319 -253 bng 15 250 50 0 empty empty empty 17 7 0 10 -262144
-1 -1;
#X obj -380 -200 s mstate;
#X obj -380 -309 random 100;
#X obj -260 -255 bng 15 250 50 0 empty empty empty 17 7 0 10 -262144
-1 -1;
#X msg -260 -229 6;
#X obj -157 -258 bng 15 250 50 0 empty empty empty 17 7 0 10 -262144
-1 -1;
#X msg -157 -224 24;
#X obj -202 -255 bng 15 250 50 0 empty empty empty 17 7 0 10 -262144
-1 -1;
#X msg -202 -226 12;
#X msg -319 -228 3;
#X obj -713 -387 sel 1 2 3 6 12 24;
#X text -258 -192 2;
#X obj -593 -300 moses 80;
#X obj -650 -69 moses 30;
#X obj -706 -70 moses 5;
#X obj -329 -71 moses 50;
#X obj 64 -297 moses 20;
#X obj -587 -68 moses 80;
#X obj -712 -302 moses 5;
#X obj -319 -282 moses 60;
#X obj -260 -282 moses 90;
#X obj -202 -282 moses 95;
#X obj -528 -67 moses 100;
#X obj 181 -297 moses 95;
#X obj -656 -301 moses 30;
#X obj -380 -283 moses 20;
#X connect 0 0 3 0;
#X connect 1 0 8 0;
#X connect 2 0 0 0;
#X connect 4 0 7 0;
#X connect 4 0 6 1;
#X connect 5 0 6 0;
#X connect 6 0 98 0;
#X connect 8 0 106 0;
#X connect 9 0 17 0;
#X connect 10 0 11 0;
#X connect 11 0 3 0;
#X connect 12 0 5 0;
#X connect 13 0 14 0;
#X connect 14 0 3 0;
#X connect 15 0 16 0;
#X connect 16 0 3 0;
#X connect 17 0 3 0;
#X connect 18 0 22 0;
#X connect 19 0 23 0;
#X connect 20 0 18 0;
#X connect 21 0 30 0;
#X connect 23 0 84 0;
#X connect 24 0 25 0;
#X connect 25 0 22 0;
#X connect 26 0 27 0;
#X connect 27 0 22 0;
#X connect 28 0 29 0;
#X connect 29 0 22 0;
#X connect 30 0 22 0;
#X connect 31 0 34 0;
#X connect 32 0 35 0;
#X connect 33 0 31 0;
#X connect 35 0 102 0;
#X connect 36 0 56 0;
#X connect 37 0 38 0;
#X connect 38 0 34 0;
#X connect 39 0 43 0;
#X connect 40 0 44 0;
#X connect 41 0 39 0;
#X connect 42 0 55 0;
#X connect 44 0 57 0;
#X connect 45 0 46 0;
#X connect 46 0 43 0;
#X connect 47 0 48 0;
#X connect 48 0 34 0;
#X connect 49 0 50 0;
#X connect 50 0 34 0;
#X connect 51 0 52 0;
#X connect 52 0 43 0;
#X connect 53 0 54 0;
#X connect 54 0 43 0;
#X connect 55 0 43 0;
#X connect 56 0 34 0;
#X connect 57 0 41 0;
#X connect 57 1 103 0;
#X connect 58 0 62 0;
#X connect 59 0 63 0;
#X connect 60 0 58 0;
#X connect 61 0 72 0;
#X connect 63 0 73 0;
#X connect 64 0 65 0;
#X connect 65 0 62 0;
#X connect 66 0 64 0;
#X connect 66 1 80 0;
#X connect 67 0 61 0;
#X connect 67 1 66 0;
#X connect 68 0 69 0;
#X connect 69 0 62 0;
#X connect 70 0 71 0;
#X connect 71 0 62 0;
#X connect 72 0 62 0;
#X connect 73 0 60 0;
#X connect 73 1 67 0;
#X connect 76 0 53 0;
#X connect 76 1 51 0;
#X connect 80 0 70 0;
#X connect 80 1 68 0;
#X connect 81 0 24 0;
#X connect 81 1 111 0;
#X connect 82 0 45 0;
#X connect 82 1 76 0;
#X connect 83 0 15 0;
#X connect 83 1 13 0;
#X connect 84 0 20 0;
#X connect 84 1 104 0;
#X connect 85 0 89 0;
#X connect 86 0 90 0;
#X connect 87 0 85 0;
#X connect 88 0 97 0;
#X connect 90 0 113 0;
#X connect 91 0 92 0;
#X connect 92 0 89 0;
#X connect 93 0 94 0;
#X connect 94 0 89 0;
#X connect 95 0 96 0;
#X connect 96 0 89 0;
#X connect 97 0 89 0;
#X connect 98 0 1 0;
#X connect 98 1 86 0;
#X connect 98 2 19 0;
#X connect 98 3 32 0;
#X connect 98 4 40 0;
#X connect 98 5 59 0;
#X connect 100 0 10 0;
#X connect 100 1 83 0;
#X connect 101 0 36 0;
#X connect 101 1 105 0;
#X connect 102 0 33 0;
#X connect 102 1 101 0;
#X connect 103 0 42 0;
#X connect 103 1 82 0;
#X connect 104 0 21 0;
#X connect 104 1 81 0;
#X connect 105 0 37 0;
#X connect 105 1 110 0;
#X connect 106 0 2 0;
#X connect 106 1 112 0;
#X connect 107 0 88 0;
#X connect 107 1 108 0;
#X connect 108 0 91 0;
#X connect 108 1 109 0;
#X connect 109 0 95 0;
#X connect 109 1 93 0;
#X connect 110 0 49 0;
#X connect 110 1 47 0;
#X connect 111 0 28 0;
#X connect 111 1 26 0;
#X connect 112 0 9 0;
#X connect 112 1 100 0;
#X connect 113 0 87 0;
#X connect 113 1 107 0;
#X restore -2656 -6601 pd notelength-markov;
#X obj -2631 -6643 s t1;
#X obj -2658 -6711 r new-note02;
#X connect 0 0 3 0;
#X connect 0 0 4 0;
#X connect 1 0 0 0;
#X connect 2 0 3 0;
#X connect 5 0 1 0;
#X restore 601 -1351 pd notelength-counter02;
#X floatatom 693 -1022 5 0 0 0 - - -;
#X obj 524 -1065 + 60;
#X obj 524 -1004 makenote 50 100;
#X obj 524 -1041 + 12;
#X obj 692 -1075 random 300;
#N canvas 621 229 528 478 melody-velocity 0;
#X obj 8 -480 outlet;
#X obj 8 -604 bng 15 250 50 0 empty empty empty 17 7 0 10 -262144 -1
-1;
#X floatatom 8 -510 5 0 0 0 - - -;
#X obj 130 -603 bng 15 250 50 0 empty empty empty 17 7 0 10 -262144
-1 -1;
#X floatatom 130 -513 5 0 0 0 - - -;
#X obj 130 -479 outlet;
#X obj 8 -576 random 20;
#X obj 8 -633 r t1;
#X obj 130 -635 r t2;
#X obj 130 -577 random 20;
#X obj 8 -544 + 35;
#X obj 130 -545 + 50;
#X connect 1 0 6 0;
#X connect 2 0 0 0;
#X connect 3 0 9 0;
#X connect 4 0 5 0;
#X connect 6 0 10 0;
#X connect 7 0 1 0;
#X connect 8 0 3 0;
#X connect 9 0 11 0;
#X connect 10 0 2 0;
#X connect 11 0 4 0;
#X restore 567 -1043 pd melody-velocity;
#X obj 692 -1103 r new-note;
#X obj 692 -1049 + 1000;
#X obj 524 -972 noteout;
#X text 330 -1492 START;
#X obj 565 -1121 delay;
#X floatatom 592 -1153 5 0 0 0 - - -;
#X obj 618 -1250 r new-note;
#X obj 565 -1150 bng 15 250 50 0 empty empty empty 17 7 0 10 -262144
-1 -1;
#X floatatom 501 -1145 5 0 0 0 - - -;
#X obj 524 -1097 f;
#X obj 618 -1218 random 10;
#X obj 618 -1190 + 40;
#X obj 379 -1491 knob 32 32 0 100 0 0 empty empty empty 0 -8 0 8 -262144
-1 -1 2170 1;
#X obj 379 -1434 + 150;
#X text 376 -1516 SPEED;
#X obj 416 -1540 loadbang;
#X msg 417 -1510 70;
#X connect 0 0 3 0;
#X connect 1 0 2 0;
#X connect 3 0 1 0;
#X connect 4 0 65 0;
#X connect 6 0 5 0;
#X connect 7 0 8 0;
#X connect 7 0 36 0;
#X connect 8 0 35 0;
#X connect 8 0 44 0;
#X connect 9 0 32 1;
#X connect 10 0 37 0;
#X connect 11 0 38 0;
#X connect 12 0 39 0;
#X connect 13 0 40 0;
#X connect 14 0 41 0;
#X connect 15 0 42 0;
#X connect 16 0 43 0;
#X connect 19 0 17 0;
#X connect 20 0 18 0;
#X connect 21 0 26 0;
#X connect 22 0 27 0;
#X connect 23 0 29 0;
#X connect 24 0 28 0;
#X connect 25 0 30 0;
#X connect 31 0 33 0;
#X connect 32 0 34 0;
#X connect 33 0 32 0;
#X connect 34 0 19 0;
#X connect 34 1 20 0;
#X connect 34 2 21 0;
#X connect 34 3 22 0;
#X connect 34 4 24 0;
#X connect 34 5 23 0;
#X connect 34 6 25 0;
#X connect 34 7 19 0;
#X connect 35 0 31 1;
#X connect 35 0 31 0;
#X connect 37 0 45 0;
#X connect 38 0 46 0;
#X connect 39 0 47 0;
#X connect 40 0 48 0;
#X connect 41 0 49 0;
#X connect 42 0 50 0;
#X connect 43 0 51 0;
#X connect 45 0 60 0;
#X connect 45 0 59 0;
#X connect 46 0 60 0;
#X connect 46 0 59 0;
#X connect 47 0 60 0;
#X connect 47 0 59 0;
#X connect 48 0 60 0;
#X connect 48 0 59 0;
#X connect 49 0 60 0;
#X connect 49 0 59 0;
#X connect 50 0 60 0;
#X connect 50 0 59 0;
#X connect 51 0 60 0;
#X connect 51 0 59 0;
#X connect 52 0 7 0;
#X connect 53 0 56 0;
#X connect 53 1 56 1;
#X connect 54 0 53 1;
#X connect 55 0 53 2;
#X connect 57 0 61 0;
#X connect 58 0 57 1;
#X connect 59 0 57 0;
#X connect 60 0 61 1;
#X connect 61 0 53 0;
#X connect 62 0 64 0;
#X connect 63 0 58 0;
#X connect 64 0 63 0;
#X connect 65 0 66 0;
#X connect 65 0 75 0;
#X connect 66 0 65 1;
#X connect 67 0 68 0;
#X connect 68 0 70 0;
#X connect 69 0 67 0;
#X connect 70 0 72 0;
#X connect 71 0 74 0;
#X connect 71 0 75 1;
#X connect 72 0 73 0;
#X connect 72 0 76 0;
#X connect 73 0 93 0;
#X connect 73 0 92 0;
#X connect 75 0 69 0;
#X connect 79 0 81 2;
#X connect 80 0 82 0;
#X connect 81 0 87 0;
#X connect 81 1 87 1;
#X connect 82 0 81 0;
#X connect 83 0 86 0;
#X connect 84 0 81 1;
#X connect 84 1 81 1;
#X connect 85 0 83 0;
#X connect 86 0 79 0;
#X connect 89 0 94 0;
#X connect 90 0 89 1;
#X connect 91 0 95 0;
#X connect 92 0 89 0;
#X connect 93 0 94 1;
#X connect 94 0 80 0;
#X connect 95 0 96 0;
#X connect 96 0 90 0;
#X connect 97 0 98 0;
#X connect 98 0 3 1;
#X connect 100 0 101 0;
#X connect 101 0 97 0;
