#N canvas 581 23 728 482 10;
#X obj -161 268 s resetMatrix;
#X obj -161 241 bng 15 250 50 0 empty empty empty 17 7 0 10 -262144
-1 -1;
#X text -164 221 Reset Matrix;
#X obj -166 95 bng 15 250 50 0 empty empty empty 17 7 0 10 -262144
-1 -1;
#X obj -62 101 bng 15 250 50 0 empty empty empty 17 7 0 10 -262144
-1 -1;
#X obj 82 148 tgl 15 0 empty empty empty 17 7 0 10 -262144 -1 -1 1
1;
#X obj 82 204 bng 15 250 50 0 empty empty empty 17 7 0 10 -262144 -1
-1;
#X obj 133 127 expr 60000/$f1;
#X floatatom 133 152 5 0 0 0 - - -;
#X obj 82 179 metro 200;
#X floatatom 234 112 5 0 0 0 - - -;
#N canvas 501 208 643 493 note-length 0;
#X obj 67 100 i;
#X obj 96 98 + 1;
#X floatatom 29 124 5 0 0 0 - - -;
#X obj 67 182 == 0;
#X floatatom 67 206 5 0 0 0 - - -;
#X msg 14 60 0;
#X floatatom 67 156 5 0 0 0 - - -;
#X obj 68 230 sel 1;
#X obj 67 131 %;
#X obj 192 100 r mstate;
#X obj 88 62 s count;
#X obj 251 101 r mstate2;
#X obj 67 24 inlet;
#X obj 68 259 outlet;
#X obj 202 56 inlet;
#X connect 0 0 2 0;
#X connect 0 0 1 0;
#X connect 0 0 8 0;
#X connect 1 0 0 1;
#X connect 3 0 4 0;
#X connect 4 0 7 0;
#X connect 5 0 0 0;
#X connect 6 0 3 0;
#X connect 7 0 13 0;
#X connect 8 0 6 0;
#X connect 9 0 8 1;
#X connect 11 0 8 1;
#X connect 12 0 0 0;
#X connect 12 0 10 0;
#X connect 14 0 8 1;
#X restore 82 232 pd note-length counter;
#N canvas 232 22 918 635 note-length 0;
#X msg -4057 -3437 2;
#X obj -4114 -3541 bng 15 250 50 0 empty empty empty 17 7 0 10 -262144
-1 -1;
#X obj -4117 -3467 bng 15 250 50 0 empty empty empty 17 7 0 10 -262144
-1 -1;
#X obj -4057 -3467 bng 15 250 50 0 empty empty empty 17 7 0 10 -262144
-1 -1;
#X obj -3996 -3462 bng 15 250 50 0 empty empty empty 17 7 0 10 -262144
-1 -1;
#X obj -4117 -3400 s mstate;
#X msg -3926 -3433 4;
#X msg -3866 -3433 2;
#X msg -3804 -3428 1;
#X obj -3923 -3540 bng 15 250 50 0 empty empty empty 17 7 0 10 -262144
-1 -1;
#X obj -3927 -3463 bng 15 250 50 0 empty empty empty 17 7 0 10 -262144
-1 -1;
#X obj -3866 -3463 bng 15 250 50 0 empty empty empty 17 7 0 10 -262144
-1 -1;
#X obj -3805 -3458 bng 15 250 50 0 empty empty empty 17 7 0 10 -262144
-1 -1;
#X obj -3926 -3400 s mstate;
#X obj -4087 -3638 r mstate;
#X obj -4115 -3638 bng 15 250 50 0 empty empty empty 17 7 0 10 -262144
-1 -1;
#X obj -4114 -3605 f 1;
#X floatatom -4087 -3606 5 0 0 0 - - -;
#X msg -3741 -3432 4;
#X obj -3738 -3539 bng 15 250 50 0 empty empty empty 17 7 0 10 -262144
-1 -1;
#X obj -3742 -3462 bng 15 250 50 0 empty empty empty 17 7 0 10 -262144
-1 -1;
#X obj -3681 -3462 bng 15 250 50 0 empty empty empty 17 7 0 10 -262144
-1 -1;
#X obj -3620 -3457 bng 15 250 50 0 empty empty empty 17 7 0 10 -262144
-1 -1;
#X obj -3741 -3399 s mstate;
#X obj -4114 -3519 random 100;
#X obj -3923 -3515 random 100;
#X obj -3805 -3489 moses 90;
#X msg -4117 -3436 1;
#X msg -3995 -3432 4;
#X obj -4117 -3494 moses 10;
#X obj -4057 -3494 moses 80;
#X obj -3996 -3493 moses 100;
#X obj -4114 -3573 sel 1 2 4;
#X obj -3738 -3514 random 100;
#X obj -3741 -3489 moses 10;
#X obj -3620 -3488 moses 90;
#X obj -3926 -3490 moses 10;
#X obj -4077 -3997 r count;
#X floatatom -4077 -3946 5 0 0 0 - - -;
#X msg -3681 -3432 2;
#X msg -3619 -3427 1;
#X obj -4108 -3845 spigot;
#X obj -4108 -3874 r bang;
#X obj -3681 -3489 moses 40;
#X obj -4017 -3865 spigot;
#X obj -4017 -3893 r bang;
#X obj -4017 -3834 bng 15 250 50 0 empty empty empty 17 7 0 10 -262144
-1 -1;
#X obj -3866 -3490 moses 70;
#X msg -4117 -3949 0;
#X obj -3982 -3922 > 64;
#X obj -4077 -3916 < 64;
#X msg -3960 -3637 2;
#X obj -4017 -3741 bng 15 250 50 0 empty empty empty 17 7 0 10 -262144
-1 -1;
#X obj -4020 -3667 bng 15 250 50 0 empty empty empty 17 7 0 10 -262144
-1 -1;
#X obj -3960 -3667 bng 15 250 50 0 empty empty empty 17 7 0 10 -262144
-1 -1;
#X obj -3899 -3662 bng 15 250 50 0 empty empty empty 17 7 0 10 -262144
-1 -1;
#X msg -3820 -3633 4;
#X msg -3760 -3633 2;
#X msg -3698 -3628 1;
#X obj -3817 -3740 bng 15 250 50 0 empty empty empty 17 7 0 10 -262144
-1 -1;
#X obj -3821 -3663 bng 15 250 50 0 empty empty empty 17 7 0 10 -262144
-1 -1;
#X obj -3760 -3663 bng 15 250 50 0 empty empty empty 17 7 0 10 -262144
-1 -1;
#X obj -3699 -3658 bng 15 250 50 0 empty empty empty 17 7 0 10 -262144
-1 -1;
#X msg -3635 -3632 4;
#X msg -3575 -3632 2;
#X msg -3513 -3627 1;
#X obj -3632 -3739 bng 15 250 50 0 empty empty empty 17 7 0 10 -262144
-1 -1;
#X obj -3636 -3662 bng 15 250 50 0 empty empty empty 17 7 0 10 -262144
-1 -1;
#X obj -3575 -3662 bng 15 250 50 0 empty empty empty 17 7 0 10 -262144
-1 -1;
#X obj -3514 -3657 bng 15 250 50 0 empty empty empty 17 7 0 10 -262144
-1 -1;
#X obj -4017 -3719 random 100;
#X obj -3817 -3715 random 100;
#X obj -3699 -3689 moses 90;
#X msg -4020 -3636 1;
#X msg -3898 -3632 4;
#X obj -4020 -3694 moses 10;
#X obj -3899 -3693 moses 100;
#X obj -4017 -3779 sel 1 2 4;
#X obj -3632 -3714 random 100;
#X obj -3635 -3689 moses 10;
#X obj -3514 -3688 moses 90;
#X obj -3820 -3690 moses 10;
#X obj -3760 -3690 moses 85;
#X obj -3575 -3689 moses 60;
#X obj -4017 -3806 f 1;
#X floatatom -3990 -3807 5 0 0 0 - - -;
#X obj -3990 -3839 r mstate2;
#X obj -4020 -3600 s mstate2;
#X obj -3820 -3600 s mstate2;
#X obj -3635 -3599 s mstate2;
#X obj -3960 -3694 moses 90;
#X obj -4077 -3970 counter 128;
#X connect 0 0 5 0;
#X connect 1 0 24 0;
#X connect 2 0 27 0;
#X connect 3 0 0 0;
#X connect 4 0 28 0;
#X connect 6 0 13 0;
#X connect 7 0 13 0;
#X connect 8 0 13 0;
#X connect 9 0 25 0;
#X connect 10 0 6 0;
#X connect 11 0 7 0;
#X connect 12 0 8 0;
#X connect 14 0 17 0;
#X connect 14 0 16 1;
#X connect 15 0 16 0;
#X connect 16 0 32 0;
#X connect 18 0 23 0;
#X connect 19 0 33 0;
#X connect 20 0 18 0;
#X connect 21 0 39 0;
#X connect 22 0 40 0;
#X connect 24 0 29 0;
#X connect 25 0 36 0;
#X connect 26 0 12 0;
#X connect 27 0 5 0;
#X connect 28 0 5 0;
#X connect 29 0 2 0;
#X connect 29 1 30 0;
#X connect 30 0 3 0;
#X connect 30 1 31 0;
#X connect 31 0 4 0;
#X connect 32 0 1 0;
#X connect 32 1 9 0;
#X connect 32 2 19 0;
#X connect 33 0 34 0;
#X connect 34 0 20 0;
#X connect 34 1 43 0;
#X connect 35 0 22 0;
#X connect 36 0 10 0;
#X connect 36 1 47 0;
#X connect 37 0 91 0;
#X connect 38 0 49 0;
#X connect 38 0 50 0;
#X connect 39 0 23 0;
#X connect 40 0 23 0;
#X connect 41 0 15 0;
#X connect 42 0 41 0;
#X connect 43 0 21 0;
#X connect 43 1 35 0;
#X connect 44 0 46 0;
#X connect 45 0 44 0;
#X connect 46 0 84 0;
#X connect 47 0 11 0;
#X connect 47 1 26 0;
#X connect 48 0 38 0;
#X connect 49 0 44 1;
#X connect 50 0 41 1;
#X connect 51 0 87 0;
#X connect 52 0 70 0;
#X connect 53 0 73 0;
#X connect 54 0 51 0;
#X connect 55 0 74 0;
#X connect 56 0 88 0;
#X connect 57 0 88 0;
#X connect 58 0 88 0;
#X connect 59 0 71 0;
#X connect 60 0 56 0;
#X connect 61 0 57 0;
#X connect 62 0 58 0;
#X connect 63 0 89 0;
#X connect 64 0 89 0;
#X connect 65 0 89 0;
#X connect 66 0 78 0;
#X connect 67 0 63 0;
#X connect 68 0 64 0;
#X connect 69 0 65 0;
#X connect 70 0 75 0;
#X connect 71 0 81 0;
#X connect 72 0 62 0;
#X connect 73 0 87 0;
#X connect 74 0 87 0;
#X connect 75 0 53 0;
#X connect 75 1 90 0;
#X connect 76 0 55 0;
#X connect 77 0 52 0;
#X connect 77 1 59 0;
#X connect 77 2 66 0;
#X connect 78 0 79 0;
#X connect 79 0 67 0;
#X connect 79 1 83 0;
#X connect 80 0 69 0;
#X connect 81 0 60 0;
#X connect 81 1 82 0;
#X connect 82 0 61 0;
#X connect 82 1 72 0;
#X connect 83 0 68 0;
#X connect 83 1 80 0;
#X connect 84 0 77 0;
#X connect 86 0 85 0;
#X connect 86 0 84 1;
#X connect 90 0 54 0;
#X connect 90 1 76 0;
#X connect 91 0 38 0;
#X restore 239 232 pd note-length chain;
#N canvas 226 23 811 606 pitchMarkov_2nd_order 0;
#X obj -240 24 bng 15 250 50 0 empty empty empty 17 7 0 10 -262144
-1 -1;
#X obj -288 546 noteout;
#X text -218 24 new pitch;
#X obj -333 50 bng 15 250 50 0 empty empty empty 17 7 0 10 -262144
-1 -1;
#X obj -334 125 f;
#X obj -334 151 t f f;
#X obj -356 174 coll pitchMatrix;
#C restore;
#X obj -356 200 length;
#X obj -356 226 t b f;
#X obj -356 251 random;
#X obj -356 278 + 1;
#X obj -356 304 pack;
#X msg -287 341 nth \$2 \$1;
#X obj -287 368 coll pitchMatrix;
#C restore;
#X floatatom -288 399 5 0 0 0 - - -;
#X text -255 427 Output pitch;
#X obj -253 4 r finished;
#X msg -240 62 next;
#X obj -240 86 coll pitchMatrix;
#C restore;
#X floatatom -240 111 5 0 0 0 - - -;
#X floatatom -373 85 5 0 0 0 - - -;
#X msg -373 330 \$2;
#X obj -374 356 % 100;
#X obj -374 386 pack;
#X obj -374 416 sprintf %i%i;
#X obj 29 368 random 50;
#X floatatom 29 392 5 0 0 0 - - -;
#X floatatom 28 439 5 0 0 0 - - -;
#X obj 29 416 + 70;
#X obj -296 51 s bang;
#X obj -333 22 inlet;
#X obj -288 517 makenote 100 800;
#X obj 109 381 random 100;
#X floatatom 109 404 5 0 0 0 - - -;
#X obj 109 434 + 400;
#X connect 0 0 17 0;
#X connect 3 0 4 0;
#X connect 3 0 25 0;
#X connect 3 0 29 0;
#X connect 3 0 32 0;
#X connect 4 0 5 0;
#X connect 5 0 6 0;
#X connect 5 1 11 1;
#X connect 6 0 7 0;
#X connect 7 0 8 0;
#X connect 8 0 9 0;
#X connect 8 1 9 1;
#X connect 9 0 10 0;
#X connect 10 0 11 0;
#X connect 11 0 12 0;
#X connect 11 0 21 0;
#X connect 12 0 13 0;
#X connect 13 0 14 0;
#X connect 13 0 23 1;
#X connect 14 0 31 0;
#X connect 16 0 17 0;
#X connect 17 0 18 0;
#X connect 18 1 19 0;
#X connect 19 0 4 1;
#X connect 20 0 4 1;
#X connect 21 0 22 0;
#X connect 22 0 23 0;
#X connect 23 0 24 0;
#X connect 24 0 20 0;
#X connect 25 0 26 0;
#X connect 26 0 28 0;
#X connect 27 0 31 1;
#X connect 28 0 27 0;
#X connect 30 0 3 0;
#X connect 31 0 1 0;
#X connect 31 1 1 1;
#X connect 32 0 33 0;
#X connect 33 0 34 0;
#X connect 34 0 31 2;
#X restore 82 263 pd pitchMarkov_2nd_order;
#X text -121 48 LOAD MIDI;
#N canvas 225 61 542 502 loadMIDI 0;
#N canvas 588 211 518 348 pair 0;
#X obj -10 40 inlet;
#X obj -10 236 outlet;
#X obj -10 204 pack;
#N canvas 684 229 450 300 zl-stream 0;
#X obj 26 18 inlet;
#X obj 27 54 t f f b;
#X obj 51 106 f;
#X obj 53 141 t f b f;
#X obj 53 174 f;
#X obj 28 209 pack f f f;
#X msg 28 239 \$2 \$3 \$1;
#X obj 27 266 outlet;
#X connect 0 0 1 0;
#X connect 1 0 5 0;
#X connect 1 1 2 1;
#X connect 1 2 2 0;
#X connect 2 0 3 0;
#X connect 3 0 4 1;
#X connect 3 1 4 0;
#X connect 3 2 5 2;
#X connect 4 0 5 1;
#X connect 5 0 6 0;
#X connect 6 0 7 0;
#X restore -10 80 pd zl-stream;
#X obj -10 107 unpack f f f;
#X obj -10 142 pack;
#X obj -10 174 sprintf %i%i;
#X connect 0 0 3 0;
#X connect 2 0 1 0;
#X connect 3 0 4 0;
#X connect 4 0 5 0;
#X connect 4 1 5 1;
#X connect 4 2 2 1;
#X connect 5 0 6 0;
#X connect 6 0 2 0;
#X restore -179 280 pd pair;
#X msg -179 316 merge \$1 \$2;
#X obj -93 292 r resetMatrix;
#X msg -93 318 clear;
#X obj -179 346 coll pitchMatrix;
#C restore;
#X obj -179 77 inlet;
#X obj -73 77 inlet;
#X obj -25 175 outlet;
#X obj -179 138 seq;
#X obj -179 170 midiparse ------------;
#X obj -179 201 unpack;
#X obj -179 232 stripnote;
#X floatatom -179 259 5 0 0 0 - - -;
#X obj -25 155 bng 15 250 50 0 empty empty empty 17 7 0 10 -262144
-1 -1;
#X obj 22 175 s finished;
#X msg -73 105 start 65536;
#X msg -179 106 read;
#X connect 0 0 1 0;
#X connect 1 0 4 0;
#X connect 2 0 3 0;
#X connect 3 0 4 0;
#X connect 5 0 16 0;
#X connect 6 0 15 0;
#X connect 8 0 9 0;
#X connect 8 1 13 0;
#X connect 9 0 10 0;
#X connect 10 0 11 0;
#X connect 10 1 11 1;
#X connect 11 0 12 0;
#X connect 12 0 0 0;
#X connect 13 0 7 0;
#X connect 13 0 14 0;
#X connect 15 0 8 0;
#X connect 16 0 8 0;
#X restore -166 124 pd loadMIDI;
#X obj -166 154 bng 15 250 50 0 empty empty empty 17 7 0 10 -262144
-1 -1;
#X text -146 96 Open MIDI;
#X text -43 98 load MIDI to chain;
#X text -145 156 Bangs when finished;
#X text 75 127 Start;
#X obj 237 65 hsl 128 15 200 1000 0 0 empty empty empty -2 -8 0 10
-262144 -1 -1 11100 1;
#X text 144 48 RUN ALGORITHM;
#X text 266 32 SPEED;
#X connect 1 0 0 0;
#X connect 3 0 15 0;
#X connect 4 0 15 1;
#X connect 5 0 9 0;
#X connect 6 0 11 0;
#X connect 7 0 8 0;
#X connect 8 0 9 1;
#X connect 9 0 6 0;
#X connect 10 0 7 0;
#X connect 11 0 13 0;
#X connect 15 0 16 0;
#X connect 21 0 10 0;
